<svg xmlns="http://www.w3.org/2000/svg" xmlns:xlink="http://www.w3.org/1999/xlink" width="500" zoomAndPan="magnify" viewBox="0 0 375 374.999991" height="500" preserveAspectRatio="xMidYMid meet" version="1.0"><defs><filter x="0%" y="0%" width="100%" height="100%" id="928d93ab08"><feColorMatrix values="0 0 0 0 1 0 0 0 0 1 0 0 0 0 1 0 0 0 1 0" color-interpolation-filters="sRGB"/></filter><g/><mask id="c34d453be5"><g filter="url(#928d93ab08)"><rect x="-37.5" width="450" fill="#000000" y="-37.499999" height="449.999989" fill-opacity="0.298"/></g></mask><clipPath id="45c5f1fbfc"><path d="M 0.511719 31 L 124 31 L 124 176 L 0.511719 176 Z M 0.511719 31 " clip-rule="nonzero"/></clipPath><clipPath id="d917ed0906"><path d="M 12 0.816406 L 88 0.816406 L 88 72 L 12 72 Z M 12 0.816406 " clip-rule="nonzero"/></clipPath><clipPath id="1d16e8a0eb"><path d="M 39 0.816406 L 115 0.816406 L 115 74 L 39 74 Z M 39 0.816406 " clip-rule="nonzero"/></clipPath><clipPath id="f7dc4d2ad1"><path d="M 0.511719 24 L 64 24 L 64 77 L 0.511719 77 Z M 0.511719 24 " clip-rule="nonzero"/></clipPath><clipPath id="dcf73d49c9"><path d="M 0.511719 28 L 63 28 L 63 77 L 0.511719 77 Z M 0.511719 28 " clip-rule="nonzero"/></clipPath><clipPath id="96c2f1dcae"><path d="M 56 0.816406 L 103 0.816406 L 103 33 L 56 33 Z M 56 0.816406 " clip-rule="nonzero"/></clipPath><clipPath id="96d0ebf392"><path d="M 0.511719 0.816406 L 96 0.816406 L 96 114 L 0.511719 114 Z M 0.511719 0.816406 " clip-rule="nonzero"/></clipPath><clipPath id="5921fa3c18"><path d="M 0.511719 36 L 56 36 L 56 133 L 0.511719 133 Z M 0.511719 36 " clip-rule="nonzero"/></clipPath><clipPath id="e68e2c6f23"><path d="M 64 0.816406 L 156.511719 0.816406 L 156.511719 207.816406 L 64 207.816406 Z M 64 0.816406 " clip-rule="nonzero"/></clipPath><clipPath id="ecb81ce554"><path d="M 107 145 L 156.511719 145 L 156.511719 207.816406 L 107 207.816406 Z M 107 145 " clip-rule="nonzero"/></clipPath><clipPath id="bf2e94bc0b"><path d="M 66 95 L 136 95 L 136 207.816406 L 66 207.816406 Z M 66 95 " clip-rule="nonzero"/></clipPath><clipPath id="74d7816060"><path d="M 0.511719 62 L 58 62 L 58 171 L 0.511719 171 Z M 0.511719 62 " clip-rule="nonzero"/></clipPath><clipPath id="bed3189094"><path d="M 75 122 L 144 122 L 144 207.816406 L 75 207.816406 Z M 75 122 " clip-rule="nonzero"/></clipPath><clipPath id="3d323494f5"><path d="M 0.511719 70 L 65 70 L 65 171 L 0.511719 171 Z M 0.511719 70 " clip-rule="nonzero"/></clipPath><clipPath id="36ffd518c7"><rect x="0" width="157" y="0" height="209"/></clipPath></defs><g mask="url(#c34d453be5)"><g transform="matrix(1, 0, 0, 1, 109, 83)"><g clip-path="url(#36ffd518c7)"><g clip-path="url(#45c5f1fbfc)"><path stroke-linecap="butt" transform="matrix(0.200705, 0, 0, 0.200323, 0.510639, 0.835287)" fill="none" stroke-linejoin="miter" d="M 95.975651 777.281848 C 99.284299 757.197129 102.573485 737.073411 121.860961 705.873849 C 141.128973 674.674286 176.375813 632.398879 201.599393 601.472313 C 226.80351 570.565246 241.984369 551.04602 249.302321 520.411949 C 256.620273 489.777878 256.094782 448.028964 246.869491 416.575905 C 237.6442 385.122846 219.758035 363.965642 204.032223 351.778313 C 188.30641 339.571484 174.740951 336.31503 166.333091 341.735954 C 157.925231 347.156878 154.67497 361.25518 161.194954 375.626479 C 167.695476 389.997777 183.966242 404.642072 200.237008 413.865443 C 216.507774 423.088813 232.759078 426.87176 239.804553 423.088813 C 246.869491 419.286367 244.689676 407.898526 237.916677 404.09608 C 231.124216 400.313133 219.738572 404.09608 207.807975 403.569587 C 195.877377 403.023595 183.401825 398.148663 175.285905 389.451785 C 167.150522 380.774407 163.355307 368.314081 166.605568 360.455692 C 169.855829 352.597302 180.151565 349.340847 189.921809 351.505317 C 199.672591 353.669787 208.897882 361.25518 212.42062 368.314081 C 215.943358 375.353483 213.763542 381.866391 220.556003 386.468327 C 227.329002 391.070262 243.054814 393.780724 256.600811 408.971011 C 270.16627 424.141799 281.551914 451.811911 301.072941 464.272236 C 320.593968 476.752061 348.230915 474.041599 381.589878 470.785145 C 414.948842 467.54819 453.971433 463.745743 478.922536 455.887354 C 503.854177 448.028964 514.714329 436.095131 518.237067 425.779776 C 521.740342 415.48392 517.96459 406.806542 510.646638 403.823084 C 503.328685 400.839625 492.468533 403.550087 485.150581 402.731099 C 477.832628 401.93161 474.037414 397.583171 475.92529 394.05372 C 477.832628 390.54377 485.423058 387.833308 492.332294 385.259344 C 499.241531 382.66588 505.489038 380.247914 508.52521 376.308969 C 511.580844 372.370024 511.444606 366.9491 507.921868 363.907143 C 504.399131 360.845686 497.470431 360.163196 490.366568 361.118682 C 483.243242 362.074169 475.92529 364.648133 466.038269 368.782075 C 456.131786 372.916017 443.656234 378.609937 434.859121 382.607381 C 426.042546 386.604825 420.884947 388.905793 422.500346 390.407272 C 424.135207 391.908751 432.543067 392.571741 441.612657 392.786238 C 450.70171 392.981236 460.452492 392.708239 459.654523 392.103748 C 458.837093 391.499256 447.451449 390.54377 437.895293 390.134275 C 428.339137 389.724781 420.61247 389.861279 419.6588 386.546326 C 418.705131 383.231372 424.543923 376.445467 432.27059 368.119084 C 439.997258 359.773201 449.611802 349.88684 456.404263 345.811397 C 463.177261 341.735954 467.108714 343.510429 471.857598 342.145448 C 476.606482 340.780467 482.153334 336.31503 488.381379 336.666025 C 494.628886 336.99752 501.538123 342.145448 504.788383 346.766883 C 508.038644 351.368819 507.649391 355.444262 502.822657 357.667231 C 498.015385 359.909699 488.790094 360.319193 485.267356 357.803729 C 481.744619 355.307764 483.904972 349.88684 483.282167 345.343403 C 482.678825 340.799967 479.292326 337.134018 475.010546 334.423556 C 470.748228 331.713094 465.590628 329.958119 463.02156 327.442654 C 460.433029 324.946689 460.433029 321.690235 457.455245 315.723319 C 454.477462 309.756402 448.502431 301.079024 440.23081 297.627572 C 431.978651 294.156621 421.390975 295.911596 417.731999 302.09301 C 414.073023 308.254923 417.323284 318.823775 422.286257 324.517695 C 427.229767 330.211616 433.866527 331.030604 438.206695 330.426113 C 442.546864 329.802121 444.570978 327.77415 443.558921 327.091659 C 442.546864 326.428669 438.479172 327.091659 439.354991 324.049702 C 440.23081 321.007745 446.069601 314.22184 450.818485 312.876359 C 455.567369 311.511378 459.226345 315.586821 462.476606 316.873803 C 465.726867 318.160784 468.587875 316.678805 471.371032 315.352824 C 474.173652 314.065842 476.917884 312.954357 480.168145 307.728431 C 483.418406 302.502504 487.194158 293.181635 484.255299 288.716197 C 481.335903 284.25076 471.701897 284.660254 465.123525 286.434729 C 458.564616 288.189705 455.022415 291.309661 455.294892 297.06208 C 455.567369 302.833999 459.635061 311.238382 462.963172 315.235825 C 466.271821 319.233269 468.860352 318.823775 472.227388 317.146799 C 475.574962 315.450322 479.720504 312.466864 482.717751 306.928942 C 485.695535 301.37152 487.544485 293.240134 484.664015 286.590727 C 481.783544 279.96082 474.173652 274.793392 467.459042 270.035459 C 460.724969 265.297026 454.90564 260.948587 451.052037 257.575134 C 447.198435 254.201681 445.310559 251.822715 443.442145 249.424248 " stroke="#000000" stroke-width="2.95" stroke-opacity="1" stroke-miterlimit="22.926001"/></g><path stroke-linecap="butt" transform="matrix(0.200705, 0, 0, 0.200323, 0.510639, 0.835287)" fill="none" stroke-linejoin="miter" d="M 495.54363 253.207195 C 501.752212 262.333067 507.960794 271.478439 510.743951 284.172761 C 513.507646 296.867083 512.826453 313.149355 513.293557 328.729636 C 513.76066 344.329418 515.395522 359.227209 517.439099 375.431482 C 519.463213 391.635754 521.896043 409.127009 520.455808 420.144355 C 518.99611 431.1617 513.663347 435.705137 506.929274 440.307072 C 500.175738 444.909008 492.020892 449.569442 481.16074 453.469388 C 470.281124 457.369333 456.696202 460.508789 449.611802 466.963198 C 442.546864 473.417608 441.962985 483.147971 441.398568 494.808808 C 440.834152 506.450145 440.30866 520.002455 435.559776 538.722192 C 430.810892 557.42243 421.877541 581.290095 414.073023 601.218816 C 406.268505 621.147537 399.631745 637.137313 395.622441 646.419182 C 391.6326 655.701052 390.289678 658.275016 385.94951 657.202531 C 381.609341 656.110547 374.271926 651.372113 359.03268 647.706164 C 343.773971 644.059715 320.593968 641.466252 308.390893 633.802859 C 296.207281 626.158966 294.981135 613.406145 294.416718 600.185331 C 293.832839 586.964516 293.930152 573.275708 296.849548 571.852228 C 299.768944 570.448247 305.510422 581.270596 307.573462 593.145929 C 309.636502 605.001763 308.00164 617.871583 320.885907 627.972441 C 333.750712 638.073299 361.134645 645.405197 377.950365 652.444598 C 394.766085 659.503499 400.994129 666.289404 417.245433 678.67173 C 433.496737 691.054057 459.751837 709.071804 471.195868 743.215825 C 482.620438 777.379346 479.233938 827.688641 475.847439 878.017435 " stroke="#000000" stroke-width="2.95" stroke-opacity="1" stroke-miterlimit="22.926001"/><g clip-path="url(#d917ed0906)"><path stroke-linecap="butt" transform="matrix(0.200705, 0, 0, 0.200323, 0.510639, 0.835287)" fill="none" stroke-linejoin="miter" d="M 267.441501 143.092239 C 267.07171 147.187181 266.70192 151.262624 269.757555 153.524593 C 272.813189 155.786561 279.294248 156.235055 287.312855 153.0176 C 295.331462 149.780645 304.907081 142.877742 314.035058 139.328792 C 323.143573 135.779841 331.82391 135.584844 334.937933 133.693371 C 338.051955 131.821397 335.619125 128.272447 331.862836 122.188532 C 328.126009 116.085118 323.065723 107.427239 315.319593 103.273797 C 307.592925 99.120355 297.180413 99.47135 289.453745 103.878289 C 281.727078 108.285227 276.686254 116.748108 274.214499 123.085519 C 271.762206 129.44243 271.898445 133.693371 271.139402 131.5679 C 270.360896 129.422931 268.706572 120.92105 270.516598 115.090631 C 272.326623 109.260213 277.620461 106.120757 280.189529 105.691763 C 282.77806 105.282269 282.622359 107.563737 283.43979 104.677777 C 284.257221 101.772318 286.008858 93.679932 288.967179 84.51506 C 291.9255 75.330689 296.090505 65.093332 299.204527 58.346427 C 302.31855 51.619021 304.342664 48.382067 302.68834 46.70509 C 301.034015 45.008614 295.662327 44.852616 290.660429 46.451594 C 285.677993 48.050571 281.065348 51.424024 275.888286 53.471495 C 270.691761 55.518967 264.911357 56.240457 260.902054 62.246372 C 256.873288 68.252288 254.596159 79.52313 255.608216 91.554461 C 256.620273 103.585793 260.921516 116.377613 261.680559 118.366586 C 262.459065 120.355558 259.675908 111.561181 260.940979 103.917288 C 262.225513 96.253896 267.538814 89.760487 268.823348 90.111482 C 270.107882 90.462477 267.344187 97.657876 266.565682 105.009273 C 265.767714 112.34117 266.935472 119.848565 265.6704 121.564541 C 264.424792 123.280517 260.785278 119.224573 257.496092 117.216102 C 254.226369 115.20763 251.306973 115.246629 250.372766 111.736678 C 249.419097 108.226728 250.431154 101.187326 251.637838 92.958442 C 252.825059 84.729557 254.187443 75.291689 252.727745 67.023805 C 251.268048 58.775421 246.966804 51.69702 244.767526 47.894574 C 242.568248 44.092127 242.451472 43.585134 239.629389 46.919587 C 236.807307 50.25404 231.260455 57.41044 228.671924 65.639325 C 226.083393 73.868209 226.43372 83.150079 229.255803 91.593461 C 232.058423 100.036843 237.293873 107.622236 241.40049 111.736678 C 245.507106 115.851121 248.465428 116.494612 246.071523 111.190686 C 243.677618 105.88676 235.950951 94.635418 228.827625 86.582031 C 221.684836 78.528644 215.125927 73.653712 208.411316 71.723239 C 201.696706 69.792767 194.806932 70.787253 190.66139 71.976736 C 186.515848 73.166219 185.095075 74.5507 183.693765 78.645642 C 182.272992 82.740585 180.871682 89.565489 182.117291 96.058898 C 183.343437 102.552307 187.19704 108.733721 193.133145 113.628152 C 199.06925 118.503084 207.087857 122.091033 214.56151 124.021506 C 222.035164 125.932479 228.963863 126.166476 229.859145 126.419973 C 230.754426 126.673469 225.616289 126.965965 221.431822 124.703997 C 217.266817 122.422529 214.055482 117.586596 212.401157 113.803649 C 210.766296 110.001203 210.688445 107.271241 212.887723 106.393753 C 215.106464 105.516266 219.621796 106.510752 224.37068 109.552709 C 229.139027 112.575167 234.121463 117.664595 236.729456 119.45857 C 239.33745 121.233045 239.571001 119.731566 238.033453 120.336058 C 236.495905 120.940549 233.167793 123.690011 231.396693 128.311446 C 229.625593 132.932881 229.392041 139.46529 226.180706 142.214751 C 222.988833 144.964213 216.780251 143.969727 210.493819 142.507247 C 204.226849 141.044768 197.862566 139.133794 196.247167 136.676829 C 194.612305 134.180864 197.726328 131.158406 202.397361 129.754426 C 207.087857 128.389445 213.335364 128.662441 217.967472 129.734926 C 222.59958 130.807411 225.596827 132.679385 223.92304 131.6069 C 222.22979 130.534415 215.865507 126.517471 207.632811 124.060506 C 199.400115 121.60354 189.33793 120.726052 181.183084 123.06602 C 173.047701 125.386487 166.858582 130.924409 162.810353 137.612816 C 158.781587 144.320722 156.932636 152.198611 156.874248 156.040057 C 156.81586 159.901003 158.548035 159.745005 162.635189 161.987474 C 166.722344 164.249442 173.164477 168.870877 182.175679 170.664852 C 191.186881 172.458827 202.786614 171.366842 211.525339 168.207887 C 220.283526 165.048931 226.200168 159.784005 227.017599 158.204527 C 227.83503 156.605549 223.572712 158.69202 217.94801 159.140514 C 212.323307 159.608507 205.355682 158.419024 200.373246 155.630563 C 195.390811 152.861602 192.413027 148.474163 194.028426 147.050683 C 195.624363 145.646703 201.813482 147.206681 207.769049 147.850172 C 213.724617 148.493663 219.42717 148.201167 222.443879 147.109183 C 225.480051 146.017198 225.830378 144.106225 226.842436 146.036698 C 227.873955 147.98667 229.547742 153.778089 231.357768 157.366039 C 233.167793 160.973488 235.114057 162.396968 234.569103 164.40544 C 234.024149 166.413912 230.987978 169.007376 225.304887 171.503341 C 219.641259 173.999306 211.350175 176.378272 205.336219 176.748767 C 199.322264 177.119262 195.585437 175.442285 190.466763 176.787766 C 185.328627 178.094248 178.808642 182.403688 175.169129 187.454117 C 171.510153 192.504546 170.731647 198.315465 171.49069 204.418879 C 172.249733 210.522294 174.546325 216.918204 176.200649 221.325142 C 177.874436 225.712581 178.905956 228.130547 180.424042 227.662553 C 181.922665 227.21406 183.927317 223.879606 188.754051 219.979661 C 193.600248 216.060216 201.307453 211.614278 206.328814 205.959358 C 211.369638 200.284937 213.705154 193.421033 216.488312 187.415117 C 219.252006 181.409202 222.424417 176.222274 226.083393 172.497827 C 229.761831 168.753879 233.926836 166.433412 236.573755 166.452911 C 239.220674 166.472411 240.388432 168.831878 239.765628 172.419828 C 239.142823 175.988278 236.748919 180.78521 232.603377 184.119664 C 228.477297 187.473617 222.580118 189.36509 218.551351 193.089538 C 214.522585 196.794486 212.342769 202.312909 211.466951 209.625306 C 210.591132 216.937704 211.01931 226.044076 213.568916 233.980465 C 216.137984 241.936353 220.82848 248.683259 227.387389 252.290708 C 233.946299 255.898157 242.373621 256.366151 244.689676 254.825672 C 247.00573 253.285194 243.17159 249.716744 243.61923 243.944825 C 244.047408 238.153406 248.757367 230.158518 251.131809 223.762608 C 253.525714 217.386197 253.564639 212.647764 251.229122 208.279825 C 248.874143 203.931386 244.164184 199.972941 242.393084 194.922512 C 240.621984 189.872083 241.789742 183.729669 241.945443 183.027679 C 242.081682 182.325689 241.205863 187.083622 238.208617 189.930582 C 235.21137 192.777542 230.131622 193.733029 228.847087 192.836041 C 227.562553 191.939054 230.112159 189.150593 233.265106 186.089136 C 236.437517 183.027679 240.193806 179.634727 241.750817 175.676282 C 243.288366 171.717838 242.607173 167.193901 244.65075 164.522438 C 246.694327 161.850976 251.443211 161.051487 254.75186 159.862004 C 258.060509 158.653021 259.928922 157.054043 260.3571 158.516523 C 260.785278 159.979002 259.792683 164.483439 257.92427 168.051889 C 256.036394 171.600839 253.272699 174.213803 250.372766 175.988278 C 247.472833 177.743253 244.456124 178.67924 243.813857 182.735183 C 243.152127 186.810626 244.884302 194.045025 249.107695 199.972941 C 253.331087 205.920358 260.06516 210.561293 266.546219 212.88176 C 273.046741 215.202228 279.294248 215.202228 283.829043 216.333212 C 288.344375 217.464196 291.10807 219.726165 291.614098 215.923718 C 292.139589 212.121271 290.368489 202.273909 290.018162 192.699543 C 289.648372 183.144677 290.679892 173.862807 288.986642 167.661894 C 287.293392 161.460981 282.894836 158.321525 278.671443 157.405038 C 274.467513 156.469051 270.45821 157.736534 268.142156 157.463537 C 265.826102 157.190541 265.22276 155.416066 266.25428 156.937045 C 267.266337 158.458023 269.913256 163.274456 272.482324 165.438926 C 275.070855 167.583896 277.581535 167.037903 277.328521 168.344385 C 277.075507 169.650867 274.019873 172.829322 270.886388 172.400328 C 267.752903 171.971334 264.56103 167.97389 261.349695 163.976446 " stroke="#000000" stroke-width="2.95" stroke-opacity="1" stroke-miterlimit="22.926001"/></g><g clip-path="url(#1d16e8a0eb)"><path stroke-linecap="butt" transform="matrix(0.200705, 0, 0, 0.200323, 0.510639, 0.835287)" fill="none" stroke-linejoin="miter" d="M 312.886763 168.870877 C 311.641154 165.380426 310.395545 161.870476 305.821825 158.224027 C 302.902429 155.88406 298.640111 153.485593 294.903284 149.312652 M 287.429631 105.18477 C 287.818884 102.571807 288.30545 100.017343 288.869866 97.501878 C 292.295291 82.779584 299.126677 70.631255 305.12117 66.126818 C 311.135125 61.641881 316.292724 64.800837 323.201961 60.471897 C 330.111198 56.142958 338.772073 44.345623 348.114139 42.259153 C 357.436743 40.172682 367.421077 47.855574 372.75384 54.524481 C 378.067141 61.173887 378.748333 66.848308 375.245058 69.500271 C 371.741783 72.171733 364.073503 71.820738 357.495131 75.99368 C 350.916759 80.147121 345.428295 88.805 342.080721 95.785902 C 338.75261 102.786304 337.584852 108.109729 340.484785 108.616722 C 343.404181 109.104215 350.391268 104.794776 353.232813 101.128827 C 356.054896 97.462879 354.731437 94.47942 354.147557 96.292895 C 353.563678 98.125869 353.738842 104.794776 350.488581 112.614166 C 347.238321 120.433557 340.562635 129.422931 336.553332 142.33175 C 332.544028 155.221069 331.201106 172.049333 330.617227 182.96918 C 330.013885 193.869527 330.189049 198.861457 328.768276 202.020413 C 327.347503 205.179368 324.350257 206.50535 323.591214 204.672376 C 322.851634 202.858901 324.350257 197.847471 323.201961 187.94161 C 322.034203 178.035749 318.219526 163.215957 318.550391 150.229139 C 318.686629 145.685703 319.309434 141.376263 320.321491 137.30082 M 328.904515 117.391599 C 328.982365 117.274601 329.079678 117.138103 329.157529 117.001605 C 334.91847 107.934232 341.905557 100.93383 350.488581 93.952928 C 359.071605 86.952526 369.231103 79.971624 373.902136 75.408688 C 378.573169 70.826252 377.736276 68.661782 379.157049 68.661782 C 380.577821 68.661782 384.236797 70.826252 387.05888 69.422272 C 389.880963 68.018291 391.885614 63.006862 396.556648 60.764393 C 401.227681 58.521925 408.545633 59.028917 412.807951 61.368885 C 417.031344 63.689352 418.218565 67.862294 422.441958 70.436257 C 426.684813 73.029721 434.022228 74.024207 439.841557 79.952124 C 445.660886 85.860541 449.981592 96.68289 450.059442 104.268283 C 450.137293 111.853677 445.972288 116.163116 448.132641 119.419571 C 450.292994 122.676025 458.778705 124.840495 464.851048 131.840897 C 470.923391 138.841298 474.582368 150.658133 473.823325 158.575022 C 473.083744 166.472411 467.906682 170.469855 464.481258 175.383786 C 461.075296 180.297717 459.401509 186.128136 455.567369 189.443089 C 451.733229 192.777542 445.738737 193.596531 446.244765 195.09801 C 446.731331 196.599489 453.737881 198.763958 455.392206 204.087384 C 457.04653 209.410809 453.387554 217.91269 449.806428 221.149645 C 446.225303 224.386599 442.722028 222.397627 439.316066 225.225087 C 435.890641 228.052548 432.56253 235.71594 426.062009 241.780355 C 419.561487 247.84477 409.908018 252.349207 401.07198 252.583204 C 392.235942 252.8367 384.25626 248.839256 379.857704 244.178822 C 375.439684 239.498887 374.602791 234.175462 371.27468 230.334016 C 367.946568 226.512069 362.127239 224.172102 355.471017 219.33617 C 348.814794 214.500238 341.321678 207.168341 337.331837 202.098412 C 333.341996 197.008983 332.835968 194.181523 333.264146 196.911484 C 333.672861 199.660946 334.996321 207.987329 340.562635 215.416725 C 346.148413 222.826621 355.957583 229.33953 362.535955 233.492971 C 369.114327 237.665913 372.442438 239.498887 373.104168 245.153808 C 373.765898 250.808729 371.761246 260.305096 365.260724 264.536536 C 358.779665 268.787477 347.783274 267.773491 341.127052 264.029543 C 334.451367 260.266096 332.135313 253.772687 327.386429 249.521747 C 322.657007 245.270806 315.494756 243.262335 311.407602 238.777397 C 307.320448 234.272961 306.347316 227.272559 307.339911 222.124631 C 308.332505 216.957203 311.349214 213.62275 310.006292 213.388753 C 308.682833 213.135257 303.019205 215.962717 298.523335 212.452766 C 294.027465 208.942816 290.699354 199.114953 292.159052 190.515574 C 293.61875 181.916195 299.846795 174.545298 304.420515 171.386342 C 309.013697 168.227386 311.933093 169.280372 317.149081 175.09129 C 322.345605 180.902209 329.838721 191.49056 339.317026 198.412963 C 348.814794 205.335366 360.297751 208.572321 373.12363 210.0543 C 385.94951 211.51678 400.098848 211.185284 409.090587 210.0348 C 418.082327 208.884316 421.916466 206.875845 422.169481 205.549863 C 422.422495 204.223882 419.094384 203.541391 420.768171 202.059412 C 422.422495 200.557933 429.09818 198.237466 434.586644 192.738543 C 440.094571 187.25912 444.43474 178.581741 445.680349 170.84035 C 446.925958 163.118458 445.115932 156.274054 441.281792 151.106627 C 437.447652 145.939199 431.628323 142.448748 425.711681 139.192294 C 419.814501 135.935839 413.820009 132.932881 409.168438 130.358917 C 404.497405 127.765454 401.169293 125.600984 398.347211 123.183018 C 395.505665 120.765052 393.189611 118.093589 395.505665 117.177102 C 397.841182 116.260615 404.847732 117.099103 412.65225 120.277559 C 420.476231 123.436514 429.137106 128.935437 434.041691 133.77137 C 438.965738 138.607302 440.114034 142.760744 440.367048 145.276208 C 440.620063 147.772173 439.958333 148.591162 437.291951 148.00617 C 434.62557 147.421178 429.973999 145.412706 426.976753 144.086725 C 423.979506 142.760744 422.636584 142.097753 424.466072 144.593718 C 426.29556 147.089683 431.297458 152.764103 433.282648 160.505495 C 435.267837 168.246886 434.275242 178.074748 430.188088 185.231148 C 426.100934 192.387548 418.938683 196.872485 418.101789 196.306993 C 417.264896 195.722001 422.772823 190.06708 425.770069 183.222676 C 428.767315 176.397772 429.273344 168.402884 427.774721 162.825962 C 426.29556 157.24904 422.792285 154.070585 419.386323 151.243125 C 415.960899 148.415664 412.632788 145.919699 411.640193 146.251195 C 410.647598 146.58269 411.971058 149.741646 410.472435 151.652619 C 408.973811 153.563592 404.633643 154.246083 401.383382 153.895087 C 398.133122 153.563592 395.972769 152.237611 393.053373 154.226583 C 390.133977 156.235055 386.475001 161.55848 383.069039 164.210443 C 379.643614 166.862406 376.471204 166.862406 377.658425 165.12693 C 378.826184 163.371955 384.314648 159.881504 386.3193 156.215555 C 388.304489 152.569106 386.805866 148.72766 388.401802 145.471206 C 389.978276 142.234251 394.649309 139.562788 395.817068 134.824355 C 396.984826 130.085921 394.668772 123.261017 392.508419 118.347086 C 390.348066 113.433155 388.343414 110.430197 392.099703 107.095744 C 395.83653 103.76129 405.334298 100.114841 411.406641 99.198354 C 417.498447 98.281867 420.145366 100.114841 418.062864 100.621834 C 415.980362 101.128827 409.168438 100.270839 400.429713 100.017343 C 391.671525 99.763846 381.025462 100.095342 372.111573 103.839289 C 363.197685 107.563737 356.035433 114.739636 350.391268 121.701039 C 344.747103 128.681941 340.640486 135.467846 341.710931 136.540331 C 342.800839 137.632315 349.087271 132.99138 354.711974 131.762898 C 360.356139 130.534415 365.338575 132.718384 369.328416 136.969325 C 373.318257 141.200765 376.315503 147.538177 376.802069 154.285082 C 377.308098 161.012488 375.303446 168.188387 376.95777 172.517326 C 378.612095 176.846266 383.944858 178.347745 386.786403 183.261676 C 389.608486 188.175607 389.939351 196.50199 388.012549 201.415921 C 386.105211 206.310353 381.940206 207.811832 382.11537 205.06237 C 382.271071 202.312909 386.786403 195.332006 392.197017 194.006025 C 397.60763 192.660544 403.932988 197.008983 408.253694 197.262479 C 412.593862 197.515976 414.929379 193.67453 416.914568 189.774584 C 418.91922 185.855139 420.593007 181.857695 421.838616 177.528756 C 423.084225 173.199817 423.921118 168.539382 423.765417 168.363885 C 423.590253 168.207887 422.422495 172.536826 420.768171 173.355815 C 419.094384 174.194303 416.934031 171.52284 414.851528 168.188387 C 412.769026 164.853934 410.783837 160.85649 407.942292 158.536022 C 405.120209 156.196055 401.461233 155.533064 400.215624 155.611063 C 398.950552 155.689062 400.137773 156.527551 400.215624 159.355011 C 400.293474 162.182471 399.281417 167.018403 395.213726 169.358371 C 391.126572 171.678838 383.96432 171.503341 383.633455 171.425342 C 383.302591 171.347343 389.803112 171.347343 393.637252 174.662296 C 397.451929 177.99675 398.619688 184.665656 401.286069 187.25912 C 403.932988 189.833084 408.117455 188.331605 410.939538 186.186635 C 413.761621 184.022165 415.279707 181.194705 414.773678 180.278218 C 414.267649 179.342231 411.776432 180.356216 409.693929 179.010735 C 407.611427 177.684754 405.957102 174.018805 403.8746 174.018805 C 401.792098 174.018805 399.281417 177.684754 396.790199 181.331203 " stroke="#000000" stroke-width="2.95" stroke-opacity="1" stroke-miterlimit="22.926001"/></g><path stroke-linecap="butt" transform="matrix(0.200705, 0, 0, 0.200323, 0.510639, 0.835287)" fill="none" stroke-linejoin="miter" d="M 292.295291 266.720506 C 282.019017 262.586564 271.742744 258.452622 262.848318 256.892643 C 253.934429 255.332665 246.402388 256.346651 240.874998 259.739604 C 235.367071 263.113056 231.844334 268.904475 230.657113 274.169401 C 229.489354 279.414828 230.657113 284.133762 229.022251 288.5212 C 227.387389 292.908639 222.96937 296.945082 219.466095 298.173565 C 215.96282 299.402047 213.374289 297.82257 213.549453 299.655544 C 213.724617 301.469018 216.682938 306.694945 220.672779 308.976413 C 224.66262 311.257881 229.683981 310.575391 235.308684 307.845429 C 240.933386 305.115467 247.161431 300.338034 253.233774 296.048094 C 259.32558 291.758155 265.261685 287.975208 270.263583 285.381744 C 275.284944 282.768781 279.372098 281.345301 277.620461 281.501298 C 275.868823 281.657296 268.297857 283.373272 260.785278 288.072706 C 253.292162 292.77214 245.876897 300.435533 243.346753 307.006941 C 240.81661 313.578349 243.152127 319.038272 243.288366 323.581708 C 243.385679 328.125145 241.264251 331.752094 241.84813 336.412529 C 242.393084 341.072963 245.643345 346.786383 248.718442 349.496845 C 251.774076 352.187807 254.654547 351.895312 257.126302 351.97331 C 259.578594 352.051309 261.622171 352.538803 264.483179 352.402304 C 267.344187 352.265806 271.022626 351.544316 273.163516 349.828341 C 275.323869 348.092865 275.946674 345.343403 277.192283 346.552386 C 278.457354 347.761369 280.306305 352.909297 281.162661 355.814757 C 282.019017 358.720216 281.863316 359.422206 285.989396 358.681216 C 290.096012 357.940227 298.464947 355.795257 304.148038 349.789341 C 309.811666 343.783425 312.789449 333.897064 313.567955 325.356184 C 314.365923 316.815303 312.964613 309.639404 310.72641 304.023483 C 308.507669 298.427061 305.413109 294.390618 303.972874 293.981123 C 302.513176 293.571629 302.68834 296.769584 303.42792 299.694543 C 304.148038 302.619502 305.413109 305.251965 304.556753 306.597447 C 303.700397 307.923428 300.703151 307.923428 299.087752 306.694945 C 297.472353 305.466462 297.258264 302.989997 297.355577 303.47749 C 297.472353 303.964984 297.919993 307.396935 296.285132 308.956914 C 294.630807 310.536391 290.893981 310.224396 289.103418 308.664418 C 287.312855 307.123939 287.468556 304.315979 286.787364 303.711487 C 286.086709 303.126495 284.54916 304.725473 281.882779 304.062482 C 279.23586 303.418991 275.440645 300.474532 274.00041 296.633086 C 272.579637 292.81114 273.455456 288.111706 275.382257 283.782766 C 277.309059 279.453827 280.228454 275.514882 283.108925 274.383898 C 285.989396 273.233414 288.792016 274.890891 289.298044 276.684866 C 289.804073 278.459341 288.032973 280.331315 289.356432 283.002777 C 290.699354 285.67424 295.117373 289.145191 299.691093 289.847181 C 304.284276 290.568671 308.994235 288.5212 311.076737 285.576741 C 313.178702 282.632283 312.633748 278.790836 311.407602 276.470369 C 310.181456 274.169401 308.274117 273.369912 305.49096 273.584409 C 302.707802 273.818406 299.087752 275.046889 297.0831 272.921419 C 295.097911 270.795949 294.767046 265.277526 296.440833 262.411066 C 298.134082 259.564106 301.831984 259.349609 303.194368 261.026585 C 304.556753 262.723062 303.564159 266.291512 303.544696 266.369511 C 303.525233 266.40851 304.478903 262.937559 306.833882 260.851088 C 309.188861 258.764617 312.964613 258.082127 314.657863 258.979114 C 316.351112 259.856602 315.96186 262.313567 317.927586 263.132556 C 319.893313 263.951544 324.233481 263.113056 327.736756 264.751033 C 331.240031 266.40851 333.906413 270.503453 333.692324 272.960418 C 333.497697 275.436883 330.383675 276.275372 331.220569 276.821364 C 332.076925 277.367356 336.845271 277.581853 339.064012 279.317329 C 341.282753 281.033305 340.932425 284.27026 339.823055 285.732739 C 338.713685 287.214718 336.845271 286.941722 336.533869 287.81921 C 336.241929 288.696698 337.526464 290.705169 336.864734 292.128649 C 336.222467 293.552129 333.633936 294.351618 332.018537 294.059122 C 330.403138 293.747127 329.721945 292.343146 329.391081 291.641156 C 329.060216 290.958666 329.060216 290.958666 327.736756 293.084136 C 326.413297 295.229106 323.766378 299.499546 321.27516 300.396534 C 318.783942 301.293521 316.428963 298.836555 315.786696 298.758556 C 315.124966 298.661058 316.175949 300.962026 315.825621 302.268507 C 315.475294 303.555489 313.723656 303.828485 313.762581 306.34395 C 313.782044 308.859415 315.572607 313.578349 318.355764 317.107799 C 321.138922 320.61775 324.914674 322.938218 328.923977 325.161186 C 332.933281 327.384155 337.176136 329.509625 342.29481 330.699109 C 347.432947 331.888592 353.446902 332.122589 358.234712 326.448168 C 363.022521 320.754248 366.584184 309.112911 367.012362 300.123537 C 367.421077 291.114664 364.696308 284.757753 360.005812 281.306301 C 355.315316 277.85485 348.659093 277.347857 349.165122 276.43137 C 349.67115 275.534382 357.33943 274.208401 363.586937 276.294871 C 369.834444 278.381342 374.680642 283.880265 378.612095 285.810738 C 382.56301 287.760711 385.599182 286.142233 387.545446 283.841266 C 389.49171 281.520798 390.386991 278.51784 389.56956 277.932848 C 388.732667 277.347857 386.221986 279.180831 385.968972 277.445355 C 385.677033 275.69038 387.623296 270.386454 387.331357 265.843018 C 387.039417 261.299582 384.489812 257.477635 382.134832 256.073655 C 379.799316 254.650175 377.638963 255.644661 376.549055 254.182181 C 375.575923 252.895199 375.459147 249.658245 373.201481 247.786271 M 316.137023 242.540845 C 311.563303 247.201279 308.37143 252.17371 307.106359 253.382693 C 305.354721 255.02067 307.242597 249.560746 311.719004 244.373819 C 312.555898 243.398833 313.490104 242.404347 314.463236 241.44886 M 307.690238 231.659997 C 306.288928 233.317474 305.160095 234.604456 303.603084 234.584956 C 301.36488 234.526457 298.270321 231.757496 295.467701 232.654483 C 292.665081 233.551471 290.134938 238.114407 286.417574 238.835897 C 282.680747 239.537887 277.756699 236.378931 272.501787 236.554429 C 267.246874 236.749426 261.641634 240.317876 260.454413 244.354319 C 259.267192 248.390763 262.49799 252.934199 264.891895 254.182181 C 267.324725 255.430164 268.920661 253.402192 270.555523 251.354721 " stroke="#000000" stroke-width="2.95" stroke-opacity="1" stroke-miterlimit="22.926001"/><g clip-path="url(#f7dc4d2ad1)"><path stroke-linecap="butt" transform="matrix(0.200705, 0, 0, 0.200323, 0.510639, 0.835287)" fill="none" stroke-linejoin="miter" d="M 173.359104 212.998759 C 158.548035 211.750776 143.717504 210.502794 132.25401 215.74822 C 120.771053 220.974147 112.655132 232.693483 105.882134 247.259778 C 99.128598 261.826074 93.698522 279.25883 93.854223 282.261788 C 93.990462 285.264746 99.712477 273.857406 111.448449 272.511924 C 123.164958 271.166443 140.875959 279.902321 157.866843 278.712838 C 174.838264 277.523354 191.089568 266.40851 201.093364 259.057113 C 211.136086 251.705716 214.950763 248.098267 218.76544 244.490817 " stroke="#000000" stroke-width="2.95" stroke-opacity="1" stroke-miterlimit="22.926001"/></g><g clip-path="url(#dcf73d49c9)"><path stroke-linecap="butt" transform="matrix(0.200705, 0, 0, 0.200323, 0.510639, 0.835287)" fill="none" stroke-linejoin="miter" d="M 213.588378 234.019464 C 189.26008 234.779953 164.931781 235.540443 147.804659 239.381889 C 130.677536 243.223335 120.75159 250.126238 112.966535 257.789631 C 105.162016 265.453023 99.498388 273.857406 93.834761 282.261788 " stroke="#000000" stroke-width="2.95" stroke-opacity="1" stroke-miterlimit="22.926001"/></g><path stroke-linecap="butt" transform="matrix(0.200705, 0, 0, 0.200323, 0.510639, 0.835287)" fill="none" stroke-linejoin="miter" d="M 186.691011 268.650979 C 179.120045 279.804822 171.568541 290.978166 168.668608 303.925984 C 165.788137 316.873803 167.5787 331.596096 168.162579 335.359543 C 168.765921 339.103491 168.162579 331.908092 175.69462 328.593138 C 183.207199 325.297684 198.835698 325.902176 208.917345 323.50371 C 218.998992 321.085743 223.533787 315.64532 228.068582 310.204896 " stroke="#000000" stroke-width="2.95" stroke-opacity="1" stroke-miterlimit="22.926001"/><path stroke-linecap="butt" transform="matrix(0.200705, 0, 0, 0.200323, 0.510639, 0.835287)" fill="none" stroke-linejoin="miter" d="M 230.034308 281.3648 C 216.741326 285.596241 203.448343 289.827682 193.133145 298.817056 C 182.817946 307.825929 175.499994 321.592736 168.182042 335.359543 " stroke="#000000" stroke-width="2.95" stroke-opacity="1" stroke-miterlimit="22.926001"/><path stroke-linecap="butt" transform="matrix(0.200705, 0, 0, 0.200323, 0.510639, 0.835287)" fill="none" stroke-linejoin="miter" d="M 451.013112 198.62746 C 456.112323 188.6631 461.970578 179.907723 469.891872 174.4088 C 482.289573 165.82892 499.708635 165.224429 515.473372 168.851378 C 531.257572 172.478327 545.367986 180.297717 548.871261 182.345189 C 552.374536 184.39266 545.25121 180.668212 536.259471 183.67117 C 527.248269 186.693628 516.329728 196.462991 501.22672 203.443893 C 487.427709 209.820303 470.144886 213.856747 452.55066 217.698193 " stroke="#000000" stroke-width="2.95" stroke-opacity="1" stroke-miterlimit="22.926001"/><path stroke-linecap="butt" transform="matrix(0.200705, 0, 0, 0.200323, 0.510639, 0.835287)" fill="none" stroke-linejoin="miter" d="M 450.974186 219.960161 C 459.284733 218.536681 467.264415 217.600694 475.652813 219.004675 C 490.074628 221.422641 505.703127 230.74351 517.419636 236.924923 C 529.136145 243.086837 536.940663 246.109295 530.926708 248.644259 C 524.912752 251.198723 505.080323 253.285194 486.454577 253.421692 C 467.828832 253.57769 450.390307 251.744716 435.890641 247.454776 C 431.803487 246.245793 427.949885 244.841812 424.310371 243.340333 " stroke="#000000" stroke-width="2.95" stroke-opacity="1" stroke-miterlimit="22.926001"/><g clip-path="url(#96c2f1dcae)"><path stroke-linecap="butt" transform="matrix(0.200705, 0, 0, 0.200323, 0.510639, 0.835287)" fill="none" stroke-linejoin="miter" d="M 409.985869 60.218401 C 412.632788 50.468537 415.299169 40.718674 412.28246 32.080295 C 409.265751 23.441916 400.546489 15.934522 396.342559 9.987105 C 392.138629 4.059188 392.430568 -0.308751 389.355471 2.167715 C 386.280374 4.64418 379.818778 13.965049 376.471204 23.812411 C 373.143093 33.679273 372.948467 44.092127 373.532346 50.527037 C 374.135688 56.942447 375.517535 59.360413 376.899382 61.797879 " stroke="#000000" stroke-width="2.95" stroke-opacity="1" stroke-miterlimit="22.926001"/></g><g clip-path="url(#96d0ebf392)"><path stroke-linecap="butt" transform="matrix(0.200705, 0, 0, 0.200323, 0.510639, 0.835287)" fill="none" stroke-linejoin="miter" d="M 376.471204 23.831911 C 347.199395 20.34146 317.908124 16.851009 288.422225 24.650899 C 258.916865 32.45079 229.216878 51.541022 211.428025 63.86485 C 207.788512 66.380314 204.635564 68.622783 201.813482 70.650754 M 182.117291 85.002553 C 179.431447 86.874527 176.531514 88.805 173.164477 90.93047 C 158.625886 100.134341 135.42642 113.02366 122.250213 143.404235 C 109.074007 173.784809 105.921059 221.656637 98.564182 253.831186 C 91.226767 286.025235 79.665959 302.522004 63.511969 323.44521 C 47.338516 344.368417 26.552417 369.718062 16.490233 394.521714 C 6.428049 419.325366 7.070316 443.563526 7.712583 467.821186 " stroke="#000000" stroke-width="2.95" stroke-opacity="1" stroke-miterlimit="22.926001"/></g><g clip-path="url(#5921fa3c18)"><path stroke-linecap="butt" transform="matrix(0.200705, 0, 0, 0.200323, 0.510639, 0.835287)" fill="none" stroke-linejoin="miter" d="M 180.754906 271.868433 C 163.491546 295.697099 146.208722 319.525765 118.104671 343.627427 C 89.981158 367.70959 51.016955 392.045249 28.71277 423.225312 C 6.408586 454.405374 0.764421 492.410342 1.542926 516.8045 C 2.321432 541.198658 9.522608 551.962507 16.723785 562.745855 " stroke="#2b2a29" stroke-width="2.95" stroke-opacity="1" stroke-miterlimit="22.926001"/></g><g clip-path="url(#e68e2c6f23)"><path stroke-linecap="butt" transform="matrix(0.200705, 0, 0, 0.200323, 0.510639, 0.835287)" fill="none" stroke-linejoin="miter" d="M 413.197204 46.256596 C 436.552371 54.56348 459.907538 62.850864 474.134727 79.932624 C 488.342453 97.014385 493.40274 122.851523 490.288717 140.225779 C 487.155232 157.619535 475.827977 166.491911 477.599077 164.210443 C 479.370177 161.948475 494.239633 148.474163 518.918259 152.647105 C 543.596886 156.820046 578.065219 178.620741 590.735397 215.377725 C 603.405575 252.11521 594.29706 303.828485 576.547133 357.043239 C 558.816669 410.277493 532.444793 465.013226 525.613407 516.219508 C 518.762558 567.42579 531.432736 615.063622 562.864898 651.820607 C 594.29706 688.577591 644.491206 714.414729 668.819505 740.01787 C 693.147804 765.621011 691.629718 790.970656 667.281957 819.869251 C 642.953658 848.767846 595.815146 881.195891 580.867839 917.445883 C 565.90107 953.676375 583.144968 993.728813 606.967238 1012.741047 C 630.789508 1031.75328 661.209613 1029.725309 678.687063 1018.317969 C 696.183975 1006.910628 700.738233 986.12392 699.220147 973.95609 C 697.702061 961.807761 690.092169 958.258811 686.802983 956.737832 C 683.513797 955.216853 684.525855 955.723846 687.055998 959.526293 C 689.586141 963.328739 693.653832 970.42664 690.617661 981.053991 C 687.562026 991.700842 677.421991 1005.896643 656.149327 1013.501536 C 634.8572 1021.106429 602.412981 1022.120415 577.053162 1007.924614 C 551.712806 993.748313 533.476313 964.342725 529.91465 939.246577 C 526.37245 914.150429 537.524542 893.36372 559.069684 872.577012 C 580.614825 851.790303 612.553016 831.003595 629.524437 811.230872 C 646.515321 791.477649 648.539435 772.718912 639.664472 757.762621 C 630.789508 742.806331 611.015467 731.652487 584.020787 721.746626 C 557.026107 711.840765 522.771862 703.182887 496.828164 672.880311 C 470.884466 642.597236 453.21239 590.649964 456.287487 548.277058 C 459.343121 505.904152 483.145929 473.105612 506.929274 440.307072 " stroke="#2b2a29" stroke-width="2.95" stroke-opacity="1" stroke-miterlimit="22.926001"/></g><g clip-path="url(#ecb81ce554)"><path stroke-linecap="butt" transform="matrix(0.200705, 0, 0, 0.200323, 0.510639, 0.835287)" fill="none" stroke-linejoin="miter" d="M 657.317085 830.730598 C 640.365127 879.14842 623.413168 927.566241 629.874764 964.440224 C 636.355823 1001.333707 666.269899 1026.683351 693.381355 1030.973291 C 720.512274 1035.282731 744.840573 1018.571465 753.462522 997.024267 C 762.084471 975.477069 754.980608 949.113439 746.611673 936.945609 C 738.242738 924.77778 728.628195 926.805751 731.411352 929.08722 C 734.194509 931.368688 749.394831 933.903652 761.325428 944.297006 C 773.236563 954.690361 781.858512 972.942105 770.433943 987.644899 C 759.0483 1002.347692 727.616138 1013.482036 703.774405 1006.384136 C 679.952135 999.305735 663.739756 973.95609 659.672065 949.366935 C 655.623836 924.77778 663.739756 900.949114 665.763871 895.372192 C 667.787985 889.79527 663.739756 902.489592 673.101286 908.300511 C 682.482278 914.130929 705.292491 913.116943 720.765289 902.470093 C 736.218624 891.823242 744.334544 871.543526 745.346602 854.812761 C 746.358659 838.081995 740.286316 824.91968 730.652309 820.590741 C 721.018303 816.281301 707.842096 820.863737 704.027419 826.947651 C 700.232204 833.012066 705.817982 840.63646 705.039476 839.87597 C 704.280433 839.115481 697.17657 829.989609 702.762347 827.961637 C 708.348125 825.933666 726.584618 831.003595 729.620789 842.664431 C 732.656961 854.325268 720.492812 872.577012 705.545505 882.443873 C 690.598198 892.349735 672.848271 893.851213 660.178093 891.569745 C 647.507915 889.288277 639.898023 883.204363 635.849795 876.652455 C 631.801566 870.081047 631.334462 863.061145 630.867359 856.021744 " stroke="#2b2a29" stroke-width="2.95" stroke-opacity="1" stroke-miterlimit="22.926001"/></g><g clip-path="url(#bf2e94bc0b)"><path stroke-linecap="butt" transform="matrix(0.200705, 0, 0, 0.200323, 0.510639, 0.835287)" fill="none" stroke-linejoin="miter" d="M 537.913795 964.71322 C 526.294599 946.675973 514.675404 928.638726 510.121146 911.24497 C 505.586352 893.870713 508.116495 877.139948 521.039687 860.155686 C 533.962879 843.171424 557.279121 825.953165 569.190256 809.475896 C 581.101391 792.998627 581.60742 777.281848 559.770339 760.258586 C 537.933258 743.235325 493.753067 724.925082 467.692593 693.043029 C 441.612657 661.160976 433.652438 615.707113 425.692218 570.25325 " stroke="#2b2a29" stroke-width="2.95" stroke-opacity="1" stroke-miterlimit="22.926001"/></g><g clip-path="url(#74d7816060)"><path stroke-linecap="butt" transform="matrix(0.200705, 0, 0, 0.200323, 0.510639, 0.835287)" fill="none" stroke-linejoin="miter" d="M 187.469517 405.48056 C 180.910607 419.247367 172.930925 433.033674 153.351511 447.014978 C 130.988938 462.985254 93.46497 479.228526 66.587066 494.535812 C 39.709161 509.862597 23.438395 524.311894 16.76271 560.327889 C 10.087025 596.343884 12.986958 653.926577 29.277187 689.513578 C 45.567416 725.08108 75.228478 738.652889 104.909002 752.205199 " stroke="#2b2a29" stroke-width="2.95" stroke-opacity="1" stroke-miterlimit="22.926001"/></g><g clip-path="url(#bed3189094)"><path stroke-linecap="butt" transform="matrix(0.200705, 0, 0, 0.200323, 0.510639, 0.835287)" fill="none" stroke-linejoin="miter" d="M 477.793703 703.962876 C 503.873639 720.615642 529.934113 737.287908 525.302005 767.960978 C 520.650434 798.634048 485.306282 843.327422 473.044819 886.909311 C 460.783357 930.4912 471.604584 972.961604 499.280457 994.742799 C 526.936867 1016.543493 571.447922 1017.654978 615.939515 1018.785962 " stroke="#2b2a29" stroke-width="2.95" stroke-opacity="1" stroke-miterlimit="22.926001"/></g><g clip-path="url(#3d323494f5)"><path stroke-linecap="butt" transform="matrix(0.200705, 0, 0, 0.200323, 0.510639, 0.835287)" fill="none" stroke-linejoin="miter" d="M 101.464115 750.606222 C 81.339746 741.168354 61.215378 731.710987 46.715711 710.904778 C 32.216045 690.11807 23.341082 657.963021 33.305953 627.406949 C 43.270824 596.850877 72.07553 567.893783 102.301008 548.433056 C 132.526487 528.972329 164.153275 519.007969 183.907854 499.566741 C 203.64297 480.106014 211.505876 451.187919 217.578219 443.583026 C 223.6311 436.017132 227.912881 449.764439 217.480906 475.718576 C 207.048932 501.672712 181.922665 539.814177 158.295021 571.01374 C 134.68684 602.213302 112.577282 626.470962 105.103628 650.787121 C 97.610512 675.083781 104.753301 699.419439 111.89609 723.735598 " stroke="#2b2a29" stroke-width="2.95" stroke-opacity="1" stroke-miterlimit="22.926001"/></g><path stroke-linecap="butt" transform="matrix(0.200705, 0, 0, 0.200323, 0.510639, 0.835287)" fill="none" stroke-linejoin="miter" d="M 591.455515 679.334721 C 567.049366 667.205891 542.623754 655.077061 523.044339 636.220825 C 503.464924 617.36459 488.731706 591.800448 487.21362 561.244377 C 485.695535 530.707805 497.392581 495.159803 510.393623 462.224765 C 523.394666 429.309226 537.699706 398.967652 543.752587 367.768089 C 549.82493 336.568526 547.664577 304.491476 542.721067 284.835752 C 537.797019 265.199527 530.089814 257.965128 522.382609 250.73073 " stroke="#2b2a29" stroke-width="2.95" stroke-opacity="1" stroke-miterlimit="22.926001"/></g></g></g><g fill="#ffffff" fill-opacity="1"><g transform="translate(82.320476, 240.971411)"><g><path d="M 10.496094 0.441406 C 12.75 0.441406 14.921875 -0.0546875 16.707031 -1.179688 C 17.011719 -1.347656 17.285156 -1.402344 17.503906 -1.402344 C 18.21875 -1.402344 18.605469 -0.796875 18.605469 0 L 18.714844 0 L 18.714844 -7.007812 C 18.714844 -8.328125 19.511719 -9.039062 20.445312 -9.039062 L 15.332031 -9.039062 C 16.269531 -9.039062 17.066406 -8.328125 17.066406 -7.007812 L 17.066406 -2.941406 C 15.800781 -1.125 13.574219 0.0546875 10.496094 0.0546875 C -1.210938 0.0546875 -1.179688 -19.402344 10.496094 -19.402344 C 14.042969 -19.402344 17.863281 -17.695312 17.367188 -14.730469 L 18.21875 -16.679688 C 16.128906 -18.90625 13.519531 -19.757812 10.496094 -19.757812 C -3.601562 -19.757812 -3.792969 0.441406 10.496094 0.441406 Z M 10.496094 0.441406 "/></g></g></g><g fill="#ffffff" fill-opacity="1"><g transform="translate(103.38852, 240.971411)"><g><path d="M 3.296875 0.21875 C 3.628906 0.273438 3.984375 0.300781 4.34375 0.300781 C 6.320312 0.300781 8.738281 -0.550781 9.726562 -2.253906 L 9.726562 -1.042969 C 9.726562 -0.136719 10.332031 0.191406 11.074219 0.191406 C 11.734375 0.191406 12.503906 -0.0820312 12.996094 -0.441406 C 12.613281 -0.300781 12.3125 -0.246094 12.0625 -0.246094 C 11.402344 -0.246094 11.292969 -0.769531 11.292969 -1.921875 L 11.292969 -10.113281 C 11.183594 -12.613281 8.683594 -13.960938 6.101562 -13.960938 C 3.875 -13.960938 1.59375 -12.96875 0.769531 -10.828125 C 0.714844 -10.691406 0.714844 -10.550781 0.714844 -10.414062 C 0.714844 -9.835938 1.179688 -9.34375 1.785156 -9.34375 C 2.363281 -9.34375 2.859375 -9.835938 2.859375 -10.414062 C 2.859375 -11.019531 2.363281 -11.488281 1.785156 -11.488281 C 1.621094 -11.488281 1.484375 -11.460938 1.320312 -11.375 C 2.007812 -12.75 4.066406 -13.710938 5.964844 -13.710938 C 7.804688 -13.710938 9.507812 -12.832031 9.699219 -10.523438 C 9.34375 -7.914062 4.066406 -7.886719 2.199219 -6.816406 C -1.097656 -4.945312 -0.46875 -0.441406 3.296875 0.21875 Z M 3.296875 -6.566406 C 5.109375 -8.023438 8.574219 -7.640625 9.726562 -9.894531 L 9.726562 -2.746094 C 9.480469 -1.457031 6.925781 -0.191406 5.386719 -0.0273438 C 1.457031 0.414062 0.851562 -4.589844 3.296875 -6.566406 Z M 3.296875 -6.566406 "/></g></g></g><g fill="#ffffff" fill-opacity="1"><g transform="translate(116.490653, 240.971411)"><g><path d="M 5.054688 0.0273438 C 4.121094 0.0273438 3.324219 -0.6875 3.324219 -2.007812 L 3.324219 -9.921875 C 3.324219 -9.949219 3.351562 -9.976562 3.351562 -10.003906 C 3.875 -11.925781 6.402344 -13.628906 8.65625 -13.628906 C 9.207031 -13.628906 9.78125 -13.519531 10.277344 -13.273438 C 10.222656 -13.273438 10.167969 -13.246094 10.113281 -13.246094 C 9.535156 -13.082031 9.207031 -12.503906 9.371094 -11.925781 C 9.535156 -11.347656 10.113281 -11.019531 10.691406 -11.183594 C 11.265625 -11.347656 11.597656 -11.953125 11.433594 -12.53125 L 11.347656 -12.75 C 10.9375 -13.546875 9.507812 -13.878906 8.710938 -13.878906 C 6.675781 -13.878906 4.257812 -12.667969 3.324219 -10.550781 L 3.324219 -13.710938 L 0.6875 -13.328125 C 1.402344 -13.328125 1.730469 -12.667969 1.730469 -11.980469 L 1.730469 -2.007812 C 1.730469 -0.6875 0.960938 0.0273438 0.0273438 0.0273438 Z M 5.054688 0.0273438 "/></g></g></g><g fill="#ffffff" fill-opacity="1"><g transform="translate(128.329221, 240.971411)"><g><path d="M 6.953125 0.246094 C 16.296875 0.246094 16.296875 -14.042969 6.953125 -14.042969 C -2.390625 -14.042969 -2.390625 0.246094 6.953125 0.246094 Z M 6.953125 -13.851562 C 14.097656 -13.851562 14.097656 0.0546875 6.953125 0.0546875 C -0.191406 0.0546875 -0.191406 -13.851562 6.953125 -13.851562 Z M 6.953125 -13.851562 "/></g></g></g><g fill="#ffffff" fill-opacity="1"><g transform="translate(142.942133, 240.971411)"><g><path d="M 1.949219 -13.65625 L 1.949219 -3.574219 C 1.949219 -1.320312 3.078125 0.164062 5.359375 0.164062 C 6.183594 0.164062 7.171875 -0.0820312 8.410156 -0.769531 L 8.300781 -0.90625 C 7.53125 -0.441406 6.707031 -0.164062 5.964844 -0.164062 C 5.332031 -0.164062 4.753906 -0.355469 4.34375 -0.714844 C 3.820312 -1.125 3.515625 -1.921875 3.542969 -3.132812 L 3.542969 -13.65625 L 7.226562 -13.65625 L 7.226562 -13.851562 L 3.542969 -13.851562 L 3.542969 -18.328125 C 3.542969 -18.410156 3.433594 -18.4375 3.433594 -18.328125 C 3.296875 -14.867188 2.308594 -13.878906 0 -13.851562 L 0 -13.65625 Z M 1.949219 -13.65625 "/></g></g></g><g fill="#ffffff" fill-opacity="1"><g transform="translate(152.088777, 240.971411)"><g><path d="M 3.296875 0.21875 C 3.628906 0.273438 3.984375 0.300781 4.34375 0.300781 C 6.320312 0.300781 8.738281 -0.550781 9.726562 -2.253906 L 9.726562 -1.042969 C 9.726562 -0.136719 10.332031 0.191406 11.074219 0.191406 C 11.734375 0.191406 12.503906 -0.0820312 12.996094 -0.441406 C 12.613281 -0.300781 12.3125 -0.246094 12.0625 -0.246094 C 11.402344 -0.246094 11.292969 -0.769531 11.292969 -1.921875 L 11.292969 -10.113281 C 11.183594 -12.613281 8.683594 -13.960938 6.101562 -13.960938 C 3.875 -13.960938 1.59375 -12.96875 0.769531 -10.828125 C 0.714844 -10.691406 0.714844 -10.550781 0.714844 -10.414062 C 0.714844 -9.835938 1.179688 -9.34375 1.785156 -9.34375 C 2.363281 -9.34375 2.859375 -9.835938 2.859375 -10.414062 C 2.859375 -11.019531 2.363281 -11.488281 1.785156 -11.488281 C 1.621094 -11.488281 1.484375 -11.460938 1.320312 -11.375 C 2.007812 -12.75 4.066406 -13.710938 5.964844 -13.710938 C 7.804688 -13.710938 9.507812 -12.832031 9.699219 -10.523438 C 9.34375 -7.914062 4.066406 -7.886719 2.199219 -6.816406 C -1.097656 -4.945312 -0.46875 -0.441406 3.296875 0.21875 Z M 3.296875 -6.566406 C 5.109375 -8.023438 8.574219 -7.640625 9.726562 -9.894531 L 9.726562 -2.746094 C 9.480469 -1.457031 6.925781 -0.191406 5.386719 -0.0273438 C 1.457031 0.414062 0.851562 -4.589844 3.296875 -6.566406 Z M 3.296875 -6.566406 "/></g></g></g><g fill="#ffffff" fill-opacity="1"><g transform="translate(165.190911, 240.971411)"><g/></g></g><g fill="#ffffff" fill-opacity="1"><g transform="translate(171.013847, 240.971411)"><g><path d="M -0.0546875 -16.460938 C 0.355469 -17.945312 1.292969 -19.070312 3.683594 -19.070312 L 8.132812 -19.070312 L 8.132812 -2.0625 C 8.132812 -0.769531 7.335938 -0.0546875 6.402344 -0.0546875 L 11.625 -0.0546875 C 10.691406 -0.0546875 9.894531 -0.769531 9.894531 -2.0625 L 9.894531 -19.070312 L 14.34375 -19.070312 C 16.679688 -19.070312 17.640625 -17.972656 18.027344 -16.515625 L 17.285156 -19.375 L 0.742188 -19.375 Z M 18.027344 -16.515625 C 18.027344 -16.515625 18.027344 -16.488281 18.054688 -16.460938 Z M 18.027344 -16.515625 "/></g></g></g><g fill="#ffffff" fill-opacity="1"><g transform="translate(190.516175, 240.971411)"><g><path d="M 5.054688 0.0273438 C 4.121094 0.0273438 3.324219 -0.6875 3.324219 -2.007812 L 3.324219 -9.921875 C 3.324219 -9.949219 3.351562 -9.976562 3.351562 -10.003906 C 3.875 -11.925781 6.402344 -13.628906 8.65625 -13.628906 C 9.207031 -13.628906 9.78125 -13.519531 10.277344 -13.273438 C 10.222656 -13.273438 10.167969 -13.246094 10.113281 -13.246094 C 9.535156 -13.082031 9.207031 -12.503906 9.371094 -11.925781 C 9.535156 -11.347656 10.113281 -11.019531 10.691406 -11.183594 C 11.265625 -11.347656 11.597656 -11.953125 11.433594 -12.53125 L 11.347656 -12.75 C 10.9375 -13.546875 9.507812 -13.878906 8.710938 -13.878906 C 6.675781 -13.878906 4.257812 -12.667969 3.324219 -10.550781 L 3.324219 -13.710938 L 0.6875 -13.328125 C 1.402344 -13.328125 1.730469 -12.667969 1.730469 -11.980469 L 1.730469 -2.007812 C 1.730469 -0.6875 0.960938 0.0273438 0.0273438 0.0273438 Z M 5.054688 0.0273438 "/></g></g></g><g fill="#ffffff" fill-opacity="1"><g transform="translate(202.354743, 240.971411)"><g><path d="M 3.296875 0.21875 C 3.628906 0.273438 3.984375 0.300781 4.34375 0.300781 C 6.320312 0.300781 8.738281 -0.550781 9.726562 -2.253906 L 9.726562 -1.042969 C 9.726562 -0.136719 10.332031 0.191406 11.074219 0.191406 C 11.734375 0.191406 12.503906 -0.0820312 12.996094 -0.441406 C 12.613281 -0.300781 12.3125 -0.246094 12.0625 -0.246094 C 11.402344 -0.246094 11.292969 -0.769531 11.292969 -1.921875 L 11.292969 -10.113281 C 11.183594 -12.613281 8.683594 -13.960938 6.101562 -13.960938 C 3.875 -13.960938 1.59375 -12.96875 0.769531 -10.828125 C 0.714844 -10.691406 0.714844 -10.550781 0.714844 -10.414062 C 0.714844 -9.835938 1.179688 -9.34375 1.785156 -9.34375 C 2.363281 -9.34375 2.859375 -9.835938 2.859375 -10.414062 C 2.859375 -11.019531 2.363281 -11.488281 1.785156 -11.488281 C 1.621094 -11.488281 1.484375 -11.460938 1.320312 -11.375 C 2.007812 -12.75 4.066406 -13.710938 5.964844 -13.710938 C 7.804688 -13.710938 9.507812 -12.832031 9.699219 -10.523438 C 9.34375 -7.914062 4.066406 -7.886719 2.199219 -6.816406 C -1.097656 -4.945312 -0.46875 -0.441406 3.296875 0.21875 Z M 3.296875 -6.566406 C 5.109375 -8.023438 8.574219 -7.640625 9.726562 -9.894531 L 9.726562 -2.746094 C 9.480469 -1.457031 6.925781 -0.191406 5.386719 -0.0273438 C 1.457031 0.414062 0.851562 -4.589844 3.296875 -6.566406 Z M 3.296875 -6.566406 "/></g></g></g><g fill="#ffffff" fill-opacity="1"><g transform="translate(215.456877, 240.971411)"><g><path d="M 5.054688 0 C 4.121094 0 3.324219 -0.714844 3.324219 -2.035156 L 3.324219 -11.433594 C 3.847656 -12.96875 6.347656 -13.710938 7.804688 -13.710938 C 9.726562 -13.710938 11.515625 -12.722656 11.460938 -10.167969 L 11.460938 -2.035156 C 11.460938 -0.714844 10.664062 0 9.726562 0 L 14.757812 0 C 13.824219 0 13.027344 -0.714844 13.027344 -2.035156 L 13.027344 -10.167969 C 13.027344 -12.667969 10.632812 -13.933594 8.105469 -13.933594 C 6.320312 -13.933594 4.480469 -13.328125 3.324219 -12.0625 L 3.324219 -13.738281 L 0.6875 -13.355469 C 1.429688 -13.355469 1.757812 -12.695312 1.757812 -12.007812 L 1.757812 -2.035156 C 1.757812 -0.714844 0.960938 0 0.0273438 0 Z M 5.054688 0 "/></g></g></g><g fill="#ffffff" fill-opacity="1"><g transform="translate(230.838914, 240.971411)"><g><path d="M -0.109375 -6.84375 C -0.0546875 -2.144531 3.023438 0 6.15625 0.246094 L 5.304688 2.035156 L 5.796875 2.253906 C 7.445312 1.894531 9.207031 3.351562 8.382812 5.054688 C 7.96875 5.878906 7.171875 6.238281 6.347656 6.238281 C 5.441406 6.238281 4.507812 5.769531 4.148438 4.917969 C 4.371094 6.074219 5.660156 6.871094 6.953125 6.871094 C 7.832031 6.871094 8.738281 6.484375 9.289062 5.578125 C 10.46875 3.65625 9.039062 1.097656 6.402344 1.484375 L 6.707031 0.273438 C 9.34375 0.273438 11.84375 -1.070312 12.53125 -3.351562 L 12.339844 -3.378906 C 11.625 -1.320312 9.589844 -0.191406 7.472656 -0.191406 C 4.644531 -0.191406 1.703125 -2.253906 1.648438 -6.871094 C 1.621094 -10.332031 3.820312 -13.492188 7.445312 -13.492188 C 9.011719 -13.492188 10.605469 -12.859375 11.625 -11.488281 C 11.488281 -11.542969 11.347656 -11.570312 11.210938 -11.570312 C 10.632812 -11.570312 10.140625 -11.074219 10.140625 -10.496094 C 10.140625 -9.894531 10.632812 -9.425781 11.210938 -9.425781 C 11.816406 -9.425781 12.285156 -9.894531 12.285156 -10.496094 C 12.285156 -10.746094 12.171875 -11.046875 12.0625 -11.265625 C 10.882812 -13.136719 8.847656 -14.015625 6.761719 -14.015625 C 2.636719 -14.015625 -0.164062 -10.992188 -0.109375 -6.84375 Z M -0.109375 -6.84375 "/></g></g></g><g fill="#ffffff" fill-opacity="1"><g transform="translate(243.63889, 240.971411)"><g><path d="M 3.296875 0.21875 C 3.628906 0.273438 3.984375 0.300781 4.34375 0.300781 C 6.320312 0.300781 8.738281 -0.550781 9.726562 -2.253906 L 9.726562 -1.042969 C 9.726562 -0.136719 10.332031 0.191406 11.074219 0.191406 C 11.734375 0.191406 12.503906 -0.0820312 12.996094 -0.441406 C 12.613281 -0.300781 12.3125 -0.246094 12.0625 -0.246094 C 11.402344 -0.246094 11.292969 -0.769531 11.292969 -1.921875 L 11.292969 -10.113281 C 11.183594 -12.613281 8.683594 -13.960938 6.101562 -13.960938 C 3.875 -13.960938 1.59375 -12.96875 0.769531 -10.828125 C 0.714844 -10.691406 0.714844 -10.550781 0.714844 -10.414062 C 0.714844 -9.835938 1.179688 -9.34375 1.785156 -9.34375 C 2.363281 -9.34375 2.859375 -9.835938 2.859375 -10.414062 C 2.859375 -11.019531 2.363281 -11.488281 1.785156 -11.488281 C 1.621094 -11.488281 1.484375 -11.460938 1.320312 -11.375 C 2.007812 -12.75 4.066406 -13.710938 5.964844 -13.710938 C 7.804688 -13.710938 9.507812 -12.832031 9.699219 -10.523438 C 9.34375 -7.914062 4.066406 -7.886719 2.199219 -6.816406 C -1.097656 -4.945312 -0.46875 -0.441406 3.296875 0.21875 Z M 3.296875 -6.566406 C 5.109375 -8.023438 8.574219 -7.640625 9.726562 -9.894531 L 9.726562 -2.746094 C 9.480469 -1.457031 6.925781 -0.191406 5.386719 -0.0273438 C 1.457031 0.414062 0.851562 -4.589844 3.296875 -6.566406 Z M 3.296875 -6.566406 "/></g></g></g><g fill="#ffffff" fill-opacity="1"><g transform="translate(256.741024, 240.971411)"><g><path d="M 11.046875 0.300781 L 14.316406 -0.578125 C 13.164062 -0.578125 12.613281 -0.988281 12.613281 -2.691406 L 12.613281 -21.847656 L 9.976562 -21.460938 C 10.71875 -21.460938 11.046875 -20.800781 11.046875 -20.117188 L 11.046875 -12.285156 C 9.894531 -13.4375 8.410156 -13.960938 6.789062 -13.960938 C 2.417969 -13.960938 -0.21875 -11.183594 -0.273438 -6.734375 C -0.300781 -1.921875 2.832031 0.300781 5.964844 0.300781 C 7.886719 0.300781 9.835938 -0.550781 11.046875 -2.117188 Z M 1.539062 -6.816406 C 1.539062 -11.652344 4.453125 -13.824219 7.117188 -13.796875 C 8.765625 -13.765625 10.386719 -12.777344 11.046875 -11.761719 L 11.046875 -2.582031 C 9.921875 -0.933594 8.242188 -0.0820312 6.621094 -0.0820312 C 4.039062 -0.0820312 1.539062 -2.253906 1.539062 -6.816406 Z M 1.539062 -6.816406 "/></g></g></g><g fill="#ffffff" fill-opacity="1"><g transform="translate(271.216586, 240.971411)"><g><path d="M 3.296875 0.21875 C 3.628906 0.273438 3.984375 0.300781 4.34375 0.300781 C 6.320312 0.300781 8.738281 -0.550781 9.726562 -2.253906 L 9.726562 -1.042969 C 9.726562 -0.136719 10.332031 0.191406 11.074219 0.191406 C 11.734375 0.191406 12.503906 -0.0820312 12.996094 -0.441406 C 12.613281 -0.300781 12.3125 -0.246094 12.0625 -0.246094 C 11.402344 -0.246094 11.292969 -0.769531 11.292969 -1.921875 L 11.292969 -10.113281 C 11.183594 -12.613281 8.683594 -13.960938 6.101562 -13.960938 C 3.875 -13.960938 1.59375 -12.96875 0.769531 -10.828125 C 0.714844 -10.691406 0.714844 -10.550781 0.714844 -10.414062 C 0.714844 -9.835938 1.179688 -9.34375 1.785156 -9.34375 C 2.363281 -9.34375 2.859375 -9.835938 2.859375 -10.414062 C 2.859375 -11.019531 2.363281 -11.488281 1.785156 -11.488281 C 1.621094 -11.488281 1.484375 -11.460938 1.320312 -11.375 C 2.007812 -12.75 4.066406 -13.710938 5.964844 -13.710938 C 7.804688 -13.710938 9.507812 -12.832031 9.699219 -10.523438 C 9.34375 -7.914062 4.066406 -7.886719 2.199219 -6.816406 C -1.097656 -4.945312 -0.46875 -0.441406 3.296875 0.21875 Z M 3.296875 -6.566406 C 5.109375 -8.023438 8.574219 -7.640625 9.726562 -9.894531 L 9.726562 -2.746094 C 9.480469 -1.457031 6.925781 -0.191406 5.386719 -0.0273438 C 1.457031 0.414062 0.851562 -4.589844 3.296875 -6.566406 Z M 3.296875 -6.566406 "/></g></g></g><g fill="#ffffff" fill-opacity="1"><g transform="translate(284.316557, 240.971411)"><g/></g></g><g fill="#ffffff" fill-opacity="1"><g transform="translate(163.810621, 213.3525)"><g><path d="M 47.609375 0 L 48.621094 0 L 48.621094 -87.261719 L 85.875 -87.261719 L 85.875 -88.398438 L 10.355469 -88.398438 L 10.355469 -87.261719 L 47.609375 -87.261719 Z M 47.609375 0 "/></g></g></g><g fill="#ffffff" fill-opacity="1"><g transform="translate(119.65113, 257.567519)"><g><path d="M 5.5 -5.515625 L 5.5 0 L 4.9375 0 L 4.9375 -2.546875 L 1.484375 -2.546875 L 1.484375 0 L 0.890625 0 L 0.890625 -5.515625 L 1.484375 -5.515625 L 1.484375 -3.0625 L 4.9375 -3.0625 L 4.9375 -5.515625 Z M 5.5 -5.515625 "/></g></g></g><g fill="#ffffff" fill-opacity="1"><g transform="translate(128.215699, 257.567519)"><g><path d="M 4.359375 -1.46875 L 1.28125 -1.46875 L 0.625 0 L 0.015625 0 L 2.53125 -5.515625 L 3.109375 -5.515625 L 5.625 0 L 5.015625 0 Z M 4.140625 -1.9375 L 2.8125 -4.90625 L 1.5 -1.9375 Z M 4.140625 -1.9375 "/></g></g></g><g fill="#ffffff" fill-opacity="1"><g transform="translate(136.023875, 257.567519)"><g><path d="M 0.890625 -5.515625 L 1.484375 -5.515625 L 1.484375 0 L 0.890625 0 Z M 0.890625 -5.515625 "/></g></g></g><g fill="#ffffff" fill-opacity="1"><g transform="translate(140.56222, 257.567519)"><g><path d="M 4.65625 0 L 3.40625 -1.765625 C 3.257812 -1.753906 3.113281 -1.75 2.96875 -1.75 L 1.484375 -1.75 L 1.484375 0 L 0.890625 0 L 0.890625 -5.515625 L 2.96875 -5.515625 C 3.664062 -5.515625 4.210938 -5.34375 4.609375 -5 C 5.015625 -4.664062 5.21875 -4.207031 5.21875 -3.625 C 5.21875 -3.195312 5.109375 -2.832031 4.890625 -2.53125 C 4.671875 -2.238281 4.359375 -2.023438 3.953125 -1.890625 L 5.296875 0 Z M 2.9375 -2.25 C 3.488281 -2.25 3.90625 -2.367188 4.1875 -2.609375 C 4.476562 -2.847656 4.625 -3.1875 4.625 -3.625 C 4.625 -4.070312 4.476562 -4.414062 4.1875 -4.65625 C 3.90625 -4.894531 3.488281 -5.015625 2.9375 -5.015625 L 1.484375 -5.015625 L 1.484375 -2.25 Z M 2.9375 -2.25 "/></g></g></g><g fill="#ffffff" fill-opacity="1"><g transform="translate(148.417664, 257.567519)"><g><path d="M 0.890625 -5.515625 L 3.140625 -5.515625 C 3.722656 -5.515625 4.238281 -5.394531 4.6875 -5.15625 C 5.132812 -4.925781 5.476562 -4.601562 5.71875 -4.1875 C 5.96875 -3.769531 6.09375 -3.289062 6.09375 -2.75 C 6.09375 -2.21875 5.96875 -1.742188 5.71875 -1.328125 C 5.476562 -0.910156 5.132812 -0.582031 4.6875 -0.34375 C 4.238281 -0.113281 3.722656 0 3.140625 0 L 0.890625 0 Z M 3.109375 -0.5 C 3.585938 -0.5 4.007812 -0.59375 4.375 -0.78125 C 4.738281 -0.976562 5.019531 -1.242188 5.21875 -1.578125 C 5.414062 -1.921875 5.515625 -2.3125 5.515625 -2.75 C 5.515625 -3.195312 5.414062 -3.585938 5.21875 -3.921875 C 5.019531 -4.265625 4.738281 -4.53125 4.375 -4.71875 C 4.007812 -4.914062 3.585938 -5.015625 3.109375 -5.015625 L 1.484375 -5.015625 L 1.484375 -0.5 Z M 3.109375 -0.5 "/></g></g></g><g fill="#ffffff" fill-opacity="1"><g transform="translate(157.084656, 257.567519)"><g><path d="M 4.65625 0 L 3.40625 -1.765625 C 3.257812 -1.753906 3.113281 -1.75 2.96875 -1.75 L 1.484375 -1.75 L 1.484375 0 L 0.890625 0 L 0.890625 -5.515625 L 2.96875 -5.515625 C 3.664062 -5.515625 4.210938 -5.34375 4.609375 -5 C 5.015625 -4.664062 5.21875 -4.207031 5.21875 -3.625 C 5.21875 -3.195312 5.109375 -2.832031 4.890625 -2.53125 C 4.671875 -2.238281 4.359375 -2.023438 3.953125 -1.890625 L 5.296875 0 Z M 2.9375 -2.25 C 3.488281 -2.25 3.90625 -2.367188 4.1875 -2.609375 C 4.476562 -2.847656 4.625 -3.1875 4.625 -3.625 C 4.625 -4.070312 4.476562 -4.414062 4.1875 -4.65625 C 3.90625 -4.894531 3.488281 -5.015625 2.9375 -5.015625 L 1.484375 -5.015625 L 1.484375 -2.25 Z M 2.9375 -2.25 "/></g></g></g><g fill="#ffffff" fill-opacity="1"><g transform="translate(164.940101, 257.567519)"><g><path d="M 4.796875 -0.5 L 4.796875 0 L 0.890625 0 L 0.890625 -5.515625 L 4.671875 -5.515625 L 4.671875 -5.015625 L 1.484375 -5.015625 L 1.484375 -3.046875 L 4.328125 -3.046875 L 4.328125 -2.546875 L 1.484375 -2.546875 L 1.484375 -0.5 Z M 4.796875 -0.5 "/></g></g></g><g fill="#ffffff" fill-opacity="1"><g transform="translate(172.370081, 257.567519)"><g><path d="M 2.421875 0.046875 C 2.003906 0.046875 1.609375 -0.015625 1.234375 -0.140625 C 0.859375 -0.273438 0.570312 -0.453125 0.375 -0.671875 L 0.59375 -1.125 C 0.789062 -0.914062 1.054688 -0.75 1.390625 -0.625 C 1.722656 -0.507812 2.066406 -0.453125 2.421875 -0.453125 C 2.910156 -0.453125 3.273438 -0.539062 3.515625 -0.71875 C 3.765625 -0.90625 3.890625 -1.140625 3.890625 -1.421875 C 3.890625 -1.640625 3.820312 -1.816406 3.6875 -1.953125 C 3.5625 -2.085938 3.398438 -2.1875 3.203125 -2.25 C 3.003906 -2.320312 2.734375 -2.398438 2.390625 -2.484375 C 1.972656 -2.585938 1.640625 -2.6875 1.390625 -2.78125 C 1.148438 -2.882812 0.941406 -3.035156 0.765625 -3.234375 C 0.585938 -3.429688 0.5 -3.703125 0.5 -4.046875 C 0.5 -4.328125 0.570312 -4.582031 0.71875 -4.8125 C 0.863281 -5.039062 1.085938 -5.222656 1.390625 -5.359375 C 1.703125 -5.492188 2.082031 -5.5625 2.53125 -5.5625 C 2.851562 -5.5625 3.160156 -5.515625 3.453125 -5.421875 C 3.753906 -5.335938 4.019531 -5.222656 4.25 -5.078125 L 4.046875 -4.609375 C 3.816406 -4.753906 3.566406 -4.863281 3.296875 -4.9375 C 3.035156 -5.019531 2.78125 -5.0625 2.53125 -5.0625 C 2.050781 -5.0625 1.6875 -4.96875 1.4375 -4.78125 C 1.195312 -4.59375 1.078125 -4.351562 1.078125 -4.0625 C 1.078125 -3.84375 1.144531 -3.664062 1.28125 -3.53125 C 1.414062 -3.394531 1.582031 -3.289062 1.78125 -3.21875 C 1.988281 -3.15625 2.257812 -3.082031 2.59375 -3 C 3 -2.894531 3.328125 -2.789062 3.578125 -2.6875 C 3.828125 -2.59375 4.035156 -2.445312 4.203125 -2.25 C 4.378906 -2.050781 4.46875 -1.785156 4.46875 -1.453125 C 4.46875 -1.179688 4.394531 -0.929688 4.25 -0.703125 C 4.101562 -0.472656 3.875 -0.289062 3.5625 -0.15625 C 3.25 -0.0195312 2.867188 0.046875 2.421875 0.046875 Z M 2.421875 0.046875 "/></g></g></g><g fill="#ffffff" fill-opacity="1"><g transform="translate(179.374586, 257.567519)"><g><path d="M 2.421875 0.046875 C 2.003906 0.046875 1.609375 -0.015625 1.234375 -0.140625 C 0.859375 -0.273438 0.570312 -0.453125 0.375 -0.671875 L 0.59375 -1.125 C 0.789062 -0.914062 1.054688 -0.75 1.390625 -0.625 C 1.722656 -0.507812 2.066406 -0.453125 2.421875 -0.453125 C 2.910156 -0.453125 3.273438 -0.539062 3.515625 -0.71875 C 3.765625 -0.90625 3.890625 -1.140625 3.890625 -1.421875 C 3.890625 -1.640625 3.820312 -1.816406 3.6875 -1.953125 C 3.5625 -2.085938 3.398438 -2.1875 3.203125 -2.25 C 3.003906 -2.320312 2.734375 -2.398438 2.390625 -2.484375 C 1.972656 -2.585938 1.640625 -2.6875 1.390625 -2.78125 C 1.148438 -2.882812 0.941406 -3.035156 0.765625 -3.234375 C 0.585938 -3.429688 0.5 -3.703125 0.5 -4.046875 C 0.5 -4.328125 0.570312 -4.582031 0.71875 -4.8125 C 0.863281 -5.039062 1.085938 -5.222656 1.390625 -5.359375 C 1.703125 -5.492188 2.082031 -5.5625 2.53125 -5.5625 C 2.851562 -5.5625 3.160156 -5.515625 3.453125 -5.421875 C 3.753906 -5.335938 4.019531 -5.222656 4.25 -5.078125 L 4.046875 -4.609375 C 3.816406 -4.753906 3.566406 -4.863281 3.296875 -4.9375 C 3.035156 -5.019531 2.78125 -5.0625 2.53125 -5.0625 C 2.050781 -5.0625 1.6875 -4.96875 1.4375 -4.78125 C 1.195312 -4.59375 1.078125 -4.351562 1.078125 -4.0625 C 1.078125 -3.84375 1.144531 -3.664062 1.28125 -3.53125 C 1.414062 -3.394531 1.582031 -3.289062 1.78125 -3.21875 C 1.988281 -3.15625 2.257812 -3.082031 2.59375 -3 C 3 -2.894531 3.328125 -2.789062 3.578125 -2.6875 C 3.828125 -2.59375 4.035156 -2.445312 4.203125 -2.25 C 4.378906 -2.050781 4.46875 -1.785156 4.46875 -1.453125 C 4.46875 -1.179688 4.394531 -0.929688 4.25 -0.703125 C 4.101562 -0.472656 3.875 -0.289062 3.5625 -0.15625 C 3.25 -0.0195312 2.867188 0.046875 2.421875 0.046875 Z M 2.421875 0.046875 "/></g></g></g><g fill="#ffffff" fill-opacity="1"><g transform="translate(186.379092, 257.567519)"><g><path d="M 0.890625 -5.515625 L 1.484375 -5.515625 L 1.484375 0 L 0.890625 0 Z M 0.890625 -5.515625 "/></g></g></g><g fill="#ffffff" fill-opacity="1"><g transform="translate(190.917438, 257.567519)"><g><path d="M 5.5 -5.515625 L 5.5 0 L 5.03125 0 L 1.484375 -4.46875 L 1.484375 0 L 0.890625 0 L 0.890625 -5.515625 L 1.375 -5.515625 L 4.9375 -1.046875 L 4.9375 -5.515625 Z M 5.5 -5.515625 "/></g></g></g><g fill="#ffffff" fill-opacity="1"><g transform="translate(199.482008, 257.567519)"><g><path d="M 4.78125 -2.75 L 5.34375 -2.75 L 5.34375 -0.65625 C 5.082031 -0.425781 4.773438 -0.25 4.421875 -0.125 C 4.066406 -0.0078125 3.695312 0.046875 3.3125 0.046875 C 2.757812 0.046875 2.265625 -0.0703125 1.828125 -0.3125 C 1.390625 -0.550781 1.039062 -0.882812 0.78125 -1.3125 C 0.53125 -1.738281 0.40625 -2.21875 0.40625 -2.75 C 0.40625 -3.28125 0.53125 -3.757812 0.78125 -4.1875 C 1.039062 -4.613281 1.390625 -4.945312 1.828125 -5.1875 C 2.265625 -5.4375 2.765625 -5.5625 3.328125 -5.5625 C 3.742188 -5.5625 4.128906 -5.492188 4.484375 -5.359375 C 4.835938 -5.222656 5.132812 -5.023438 5.375 -4.765625 L 5.015625 -4.390625 C 4.578125 -4.828125 4.019531 -5.046875 3.34375 -5.046875 C 2.894531 -5.046875 2.488281 -4.945312 2.125 -4.75 C 1.769531 -4.550781 1.488281 -4.273438 1.28125 -3.921875 C 1.082031 -3.578125 0.984375 -3.1875 0.984375 -2.75 C 0.984375 -2.320312 1.082031 -1.9375 1.28125 -1.59375 C 1.488281 -1.25 1.769531 -0.972656 2.125 -0.765625 C 2.488281 -0.566406 2.894531 -0.46875 3.34375 -0.46875 C 3.90625 -0.46875 4.382812 -0.609375 4.78125 -0.890625 Z M 4.78125 -2.75 "/></g></g></g><g fill="#ffffff" fill-opacity="1"><g transform="translate(207.731405, 257.567519)"><g/></g></g><g fill="#ffffff" fill-opacity="1"><g transform="translate(211.954587, 257.567519)"><g><path d="M 2.421875 0.046875 C 2.003906 0.046875 1.609375 -0.015625 1.234375 -0.140625 C 0.859375 -0.273438 0.570312 -0.453125 0.375 -0.671875 L 0.59375 -1.125 C 0.789062 -0.914062 1.054688 -0.75 1.390625 -0.625 C 1.722656 -0.507812 2.066406 -0.453125 2.421875 -0.453125 C 2.910156 -0.453125 3.273438 -0.539062 3.515625 -0.71875 C 3.765625 -0.90625 3.890625 -1.140625 3.890625 -1.421875 C 3.890625 -1.640625 3.820312 -1.816406 3.6875 -1.953125 C 3.5625 -2.085938 3.398438 -2.1875 3.203125 -2.25 C 3.003906 -2.320312 2.734375 -2.398438 2.390625 -2.484375 C 1.972656 -2.585938 1.640625 -2.6875 1.390625 -2.78125 C 1.148438 -2.882812 0.941406 -3.035156 0.765625 -3.234375 C 0.585938 -3.429688 0.5 -3.703125 0.5 -4.046875 C 0.5 -4.328125 0.570312 -4.582031 0.71875 -4.8125 C 0.863281 -5.039062 1.085938 -5.222656 1.390625 -5.359375 C 1.703125 -5.492188 2.082031 -5.5625 2.53125 -5.5625 C 2.851562 -5.5625 3.160156 -5.515625 3.453125 -5.421875 C 3.753906 -5.335938 4.019531 -5.222656 4.25 -5.078125 L 4.046875 -4.609375 C 3.816406 -4.753906 3.566406 -4.863281 3.296875 -4.9375 C 3.035156 -5.019531 2.78125 -5.0625 2.53125 -5.0625 C 2.050781 -5.0625 1.6875 -4.96875 1.4375 -4.78125 C 1.195312 -4.59375 1.078125 -4.351562 1.078125 -4.0625 C 1.078125 -3.84375 1.144531 -3.664062 1.28125 -3.53125 C 1.414062 -3.394531 1.582031 -3.289062 1.78125 -3.21875 C 1.988281 -3.15625 2.257812 -3.082031 2.59375 -3 C 3 -2.894531 3.328125 -2.789062 3.578125 -2.6875 C 3.828125 -2.59375 4.035156 -2.445312 4.203125 -2.25 C 4.378906 -2.050781 4.46875 -1.785156 4.46875 -1.453125 C 4.46875 -1.179688 4.394531 -0.929688 4.25 -0.703125 C 4.101562 -0.472656 3.875 -0.289062 3.5625 -0.15625 C 3.25 -0.0195312 2.867188 0.046875 2.421875 0.046875 Z M 2.421875 0.046875 "/></g></g></g><g fill="#ffffff" fill-opacity="1"><g transform="translate(218.959087, 257.567519)"><g><path d="M 1.96875 -5.015625 L 0.03125 -5.015625 L 0.03125 -5.515625 L 4.484375 -5.515625 L 4.484375 -5.015625 L 2.546875 -5.015625 L 2.546875 0 L 1.96875 0 Z M 1.96875 -5.015625 "/></g></g></g><g fill="#ffffff" fill-opacity="1"><g transform="translate(225.640544, 257.567519)"><g><path d="M 3.125 0.046875 C 2.40625 0.046875 1.84375 -0.15625 1.4375 -0.5625 C 1.039062 -0.976562 0.84375 -1.578125 0.84375 -2.359375 L 0.84375 -5.515625 L 1.4375 -5.515625 L 1.4375 -2.375 C 1.4375 -1.738281 1.578125 -1.257812 1.859375 -0.9375 C 2.148438 -0.625 2.570312 -0.46875 3.125 -0.46875 C 3.675781 -0.46875 4.09375 -0.625 4.375 -0.9375 C 4.664062 -1.257812 4.8125 -1.738281 4.8125 -2.375 L 4.8125 -5.515625 L 5.375 -5.515625 L 5.375 -2.359375 C 5.375 -1.578125 5.175781 -0.976562 4.78125 -0.5625 C 4.382812 -0.15625 3.832031 0.046875 3.125 0.046875 Z M 3.125 0.046875 "/></g></g></g><g fill="#ffffff" fill-opacity="1"><g transform="translate(234.03965, 257.567519)"><g><path d="M 0.890625 -5.515625 L 3.140625 -5.515625 C 3.722656 -5.515625 4.238281 -5.394531 4.6875 -5.15625 C 5.132812 -4.925781 5.476562 -4.601562 5.71875 -4.1875 C 5.96875 -3.769531 6.09375 -3.289062 6.09375 -2.75 C 6.09375 -2.21875 5.96875 -1.742188 5.71875 -1.328125 C 5.476562 -0.910156 5.132812 -0.582031 4.6875 -0.34375 C 4.238281 -0.113281 3.722656 0 3.140625 0 L 0.890625 0 Z M 3.109375 -0.5 C 3.585938 -0.5 4.007812 -0.59375 4.375 -0.78125 C 4.738281 -0.976562 5.019531 -1.242188 5.21875 -1.578125 C 5.414062 -1.921875 5.515625 -2.3125 5.515625 -2.75 C 5.515625 -3.195312 5.414062 -3.585938 5.21875 -3.921875 C 5.019531 -4.265625 4.738281 -4.53125 4.375 -4.71875 C 4.007812 -4.914062 3.585938 -5.015625 3.109375 -5.015625 L 1.484375 -5.015625 L 1.484375 -0.5 Z M 3.109375 -0.5 "/></g></g></g><g fill="#ffffff" fill-opacity="1"><g transform="translate(242.706637, 257.567519)"><g><path d="M 0.890625 -5.515625 L 1.484375 -5.515625 L 1.484375 0 L 0.890625 0 Z M 0.890625 -5.515625 "/></g></g></g><g fill="#ffffff" fill-opacity="1"><g transform="translate(247.244978, 257.567519)"><g><path d="M 3.3125 0.046875 C 2.757812 0.046875 2.257812 -0.0703125 1.8125 -0.3125 C 1.375 -0.5625 1.03125 -0.894531 0.78125 -1.3125 C 0.53125 -1.738281 0.40625 -2.21875 0.40625 -2.75 C 0.40625 -3.28125 0.53125 -3.757812 0.78125 -4.1875 C 1.03125 -4.613281 1.375 -4.945312 1.8125 -5.1875 C 2.257812 -5.4375 2.757812 -5.5625 3.3125 -5.5625 C 3.851562 -5.5625 4.34375 -5.4375 4.78125 -5.1875 C 5.21875 -4.945312 5.5625 -4.613281 5.8125 -4.1875 C 6.070312 -3.757812 6.203125 -3.28125 6.203125 -2.75 C 6.203125 -2.21875 6.070312 -1.738281 5.8125 -1.3125 C 5.5625 -0.882812 5.21875 -0.550781 4.78125 -0.3125 C 4.34375 -0.0703125 3.851562 0.046875 3.3125 0.046875 Z M 3.3125 -0.46875 C 3.75 -0.46875 4.140625 -0.566406 4.484375 -0.765625 C 4.835938 -0.960938 5.113281 -1.234375 5.3125 -1.578125 C 5.507812 -1.929688 5.609375 -2.320312 5.609375 -2.75 C 5.609375 -3.1875 5.507812 -3.578125 5.3125 -3.921875 C 5.113281 -4.273438 4.835938 -4.550781 4.484375 -4.75 C 4.140625 -4.945312 3.75 -5.046875 3.3125 -5.046875 C 2.875 -5.046875 2.476562 -4.945312 2.125 -4.75 C 1.769531 -4.550781 1.488281 -4.273438 1.28125 -3.921875 C 1.082031 -3.578125 0.984375 -3.1875 0.984375 -2.75 C 0.984375 -2.320312 1.082031 -1.929688 1.28125 -1.578125 C 1.488281 -1.234375 1.769531 -0.960938 2.125 -0.765625 C 2.476562 -0.566406 2.875 -0.46875 3.3125 -0.46875 Z M 3.3125 -0.46875 "/></g></g></g><g fill="#ffffff" fill-opacity="1"><g transform="translate(106.868445, 180.5985)"><g><path d="M 54.429688 0 C 65.921875 0 76.527344 -4.292969 84.863281 -11.996094 L 84.863281 0 L 85.875 0 L 85.875 -44.703125 L 51.398438 -44.703125 L 51.398438 -43.566406 L 84.863281 -43.566406 L 84.863281 -13.511719 C 76.65625 -5.429688 65.921875 -1.011719 54.429688 -1.011719 C 42.9375 -1.011719 32.078125 -5.429688 23.996094 -13.640625 C 7.070312 -30.433594 7.070312 -57.839844 23.996094 -74.632812 C 32.078125 -82.84375 42.9375 -87.261719 54.429688 -87.261719 C 66.046875 -87.261719 76.78125 -82.84375 84.988281 -74.632812 L 85.746094 -75.390625 C 77.414062 -83.726562 66.300781 -88.398438 54.429688 -88.398438 C 42.683594 -88.398438 31.570312 -83.726562 23.238281 -75.390625 C 5.933594 -58.21875 5.933594 -30.183594 23.238281 -12.882812 C 31.570312 -4.546875 42.683594 0 54.429688 0 Z M 54.429688 0 "/></g></g></g></svg>