<svg xmlns="http://www.w3.org/2000/svg" xmlns:xlink="http://www.w3.org/1999/xlink" width="500" zoomAndPan="magnify" viewBox="0 0 375 374.999991" height="500" preserveAspectRatio="xMidYMid meet" version="1.0"><defs><filter x="0%" y="0%" width="100%" height="100%" id="c7d22fe5f3"><feColorMatrix values="0 0 0 0 1 0 0 0 0 1 0 0 0 0 1 0 0 0 1 0" color-interpolation-filters="sRGB"/></filter><g/><mask id="3dc80256ca"><g filter="url(#c7d22fe5f3)"><rect x="-37.5" width="450" fill="#000000" y="-37.499999" height="449.999989" fill-opacity="0.3569"/></g></mask><clipPath id="6fae6a8c4e"><path d="M 0.761719 31 L 125 31 L 125 176 L 0.761719 176 Z M 0.761719 31 " clip-rule="nonzero"/></clipPath><clipPath id="5f0d55228a"><path d="M 13 0.816406 L 88 0.816406 L 88 72 L 13 72 Z M 13 0.816406 " clip-rule="nonzero"/></clipPath><clipPath id="6b8003d477"><path d="M 39 0.816406 L 116 0.816406 L 116 74 L 39 74 Z M 39 0.816406 " clip-rule="nonzero"/></clipPath><clipPath id="701aab0ecd"><path d="M 0.761719 24 L 64 24 L 64 77 L 0.761719 77 Z M 0.761719 24 " clip-rule="nonzero"/></clipPath><clipPath id="c02a68e406"><path d="M 0.761719 28 L 63 28 L 63 77 L 0.761719 77 Z M 0.761719 28 " clip-rule="nonzero"/></clipPath><clipPath id="cb1161f790"><path d="M 56 0.816406 L 103 0.816406 L 103 33 L 56 33 Z M 56 0.816406 " clip-rule="nonzero"/></clipPath><clipPath id="080647d4d5"><path d="M 0.761719 0.816406 L 96 0.816406 L 96 114 L 0.761719 114 Z M 0.761719 0.816406 " clip-rule="nonzero"/></clipPath><clipPath id="b87372ff41"><path d="M 0.761719 36 L 57 36 L 57 133 L 0.761719 133 Z M 0.761719 36 " clip-rule="nonzero"/></clipPath><clipPath id="51b5a3b809"><path d="M 64 0.816406 L 156.761719 0.816406 L 156.761719 207.816406 L 64 207.816406 Z M 64 0.816406 " clip-rule="nonzero"/></clipPath><clipPath id="7d5b8f522b"><path d="M 107 145 L 156.761719 145 L 156.761719 207.816406 L 107 207.816406 Z M 107 145 " clip-rule="nonzero"/></clipPath><clipPath id="a9cffcf16a"><path d="M 67 95 L 136 95 L 136 207.816406 L 67 207.816406 Z M 67 95 " clip-rule="nonzero"/></clipPath><clipPath id="6f73753be0"><path d="M 0.761719 62 L 58 62 L 58 171 L 0.761719 171 Z M 0.761719 62 " clip-rule="nonzero"/></clipPath><clipPath id="fd5e853f9c"><path d="M 75 122 L 144 122 L 144 207.816406 L 75 207.816406 Z M 75 122 " clip-rule="nonzero"/></clipPath><clipPath id="c6aba36da8"><path d="M 0.761719 70 L 65 70 L 65 171 L 0.761719 171 Z M 0.761719 70 " clip-rule="nonzero"/></clipPath><clipPath id="9f2f1c9673"><rect x="0" width="157" y="0" height="209"/></clipPath></defs><g mask="url(#3dc80256ca)"><g transform="matrix(1, 0, 0, 1, 108, 83)"><g clip-path="url(#9f2f1c9673)"><g clip-path="url(#6fae6a8c4e)"><path stroke-linecap="butt" transform="matrix(0.200705, 0, 0, 0.200323, 0.760639, 0.835258)" fill="none" stroke-linejoin="miter" d="M 95.975651 777.281994 C 99.284299 757.197276 102.573485 737.073558 121.86096 705.873995 C 141.128973 674.674433 176.375812 632.399025 201.599393 601.472459 C 226.80351 570.565392 241.984368 551.046166 249.302321 520.412095 C 256.620273 489.778025 256.094782 448.02911 246.869491 416.576051 C 237.6442 385.122992 219.758035 363.965789 204.032222 351.778459 C 188.30641 339.571631 174.740951 336.315176 166.333091 341.7361 C 157.925231 347.157024 154.67497 361.255327 161.194954 375.626625 C 167.695475 389.997924 183.966242 404.642218 200.237008 413.865589 C 216.507774 423.08896 232.759078 426.871907 239.804553 423.08896 C 246.869491 419.286513 244.689675 407.898673 237.916677 404.096226 C 231.124216 400.313279 219.738572 404.096226 207.807974 403.550234 C 195.877377 403.023741 183.401825 398.148809 175.285905 389.451931 C 167.150521 380.774553 163.355307 368.314228 166.605568 360.455838 C 169.855828 352.597448 180.151564 349.340994 189.921809 351.505463 C 199.672591 353.669933 208.897882 361.255327 212.42062 368.314228 C 215.943357 375.353629 213.763542 381.866538 220.556003 386.468473 C 227.329001 391.070409 243.054814 393.780871 256.60081 408.971158 C 270.16627 424.141945 281.551914 451.812057 301.072941 464.272382 C 320.593967 476.752207 348.230915 474.041745 381.589878 470.785291 C 414.948841 467.548336 453.971433 463.74589 478.922536 455.8875 C 503.854176 448.02911 514.714329 436.095277 518.237067 425.779922 C 521.740342 415.484066 517.96459 406.806688 510.646637 403.82323 C 503.328685 400.839772 492.468533 403.550234 485.15058 402.731245 C 477.832628 401.931756 474.037413 397.583317 475.925289 394.053867 C 477.832628 390.543916 485.423057 387.833454 492.332294 385.25949 C 499.241531 382.666026 505.489038 380.24806 508.52521 376.309116 C 511.580844 372.370171 511.444606 366.949247 507.921868 363.907289 C 504.39913 360.845832 497.470431 360.163342 490.366568 361.118828 C 483.243242 362.074315 475.925289 364.648279 466.038269 368.782221 C 456.131786 372.916163 443.656234 378.610083 434.859121 382.607527 C 426.042546 386.604971 420.884946 388.905939 422.500345 390.407418 C 424.135207 391.908897 432.543067 392.571888 441.612657 392.786385 C 450.701709 392.981382 460.452491 392.708386 459.654523 392.103894 C 458.837092 391.499403 447.451449 390.543916 437.895293 390.134422 C 428.339137 389.724927 420.612469 389.861426 419.6588 386.546472 C 418.705131 383.231518 424.543922 376.445614 432.27059 368.11923 C 439.997258 359.773347 449.611802 349.886986 456.404263 345.811543 C 463.177261 341.7361 467.108714 343.510575 471.857598 342.145594 C 476.606482 340.780614 482.153334 336.315176 488.381378 336.666171 C 494.628886 336.997667 501.538122 342.145594 504.788383 346.76703 C 508.038644 351.368965 507.649391 355.444408 502.822657 357.667377 C 498.015385 359.909845 488.790094 360.31934 485.267356 357.803875 C 481.744619 355.30791 483.904971 349.886986 483.282167 345.34355 C 482.678825 340.800113 479.292326 337.134165 475.010545 334.423703 C 470.748227 331.713241 465.590628 329.958265 463.02156 327.442801 C 460.433029 324.946836 460.433029 321.690381 457.455245 315.723465 C 454.477461 309.756549 448.502431 301.07917 440.23081 297.627719 C 431.978651 294.156767 421.390975 295.911743 417.731999 302.093156 C 414.073023 308.25507 417.323283 318.823921 422.286256 324.517842 C 427.229767 330.211762 433.866527 331.03075 438.206695 330.426259 C 442.546864 329.802268 444.570978 327.774296 443.558921 327.091806 C 442.546864 326.428815 438.479172 327.091806 439.354991 324.049848 C 440.23081 321.007891 446.069601 314.221986 450.818485 312.876505 C 455.567369 311.511524 459.226345 315.586967 462.476606 316.873949 C 465.726867 318.160931 468.587875 316.678952 471.371032 315.35297 C 474.173652 314.065988 476.917884 312.954504 480.168145 307.728577 C 483.418405 302.50265 487.194157 293.181781 484.255299 288.716344 C 481.335903 284.250906 471.701897 284.6604 465.123525 286.434876 C 458.564615 288.189851 455.022415 291.309807 455.294892 297.062227 C 455.567369 302.834146 459.635061 311.238528 462.963172 315.235972 C 466.271821 319.233416 468.860352 318.823921 472.227388 317.146945 C 475.574962 315.450469 479.720504 312.467011 482.71775 306.929088 C 485.695534 301.371666 487.544485 293.24028 484.664014 286.590873 C 481.783544 279.960966 474.173652 274.793539 467.459041 270.035605 C 460.724968 265.297172 454.905639 260.948733 451.052037 257.57528 C 447.198434 254.201827 445.310558 251.822861 443.442145 249.424394 " stroke="#000000" stroke-width="2.95" stroke-opacity="1" stroke-miterlimit="22.926001"/></g><path stroke-linecap="butt" transform="matrix(0.200705, 0, 0, 0.200323, 0.760639, 0.835258)" fill="none" stroke-linejoin="miter" d="M 495.54363 253.207341 C 501.752211 262.333213 507.960793 271.478585 510.743951 284.172907 C 513.507645 296.867229 512.826453 313.149501 513.293556 328.729783 C 513.76066 344.329564 515.395521 359.227355 517.439098 375.431628 C 519.463213 391.635901 521.896043 409.127155 520.455808 420.144501 C 518.99611 431.161846 513.663347 435.705283 506.929273 440.307218 C 500.175738 444.909154 492.020892 449.569588 481.160739 453.469534 C 470.281124 457.369479 456.696202 460.508935 449.611802 466.963345 C 442.546864 473.417754 441.962984 483.148118 441.398568 494.808954 C 440.834151 506.450291 440.30866 520.002601 435.559776 538.722339 C 430.810892 557.422576 421.877541 581.290242 414.073023 601.218962 C 406.268504 621.147683 399.631745 637.137459 395.622441 646.419329 C 391.6326 655.701199 390.289678 658.275162 385.949509 657.202677 C 381.609341 656.110693 374.271926 651.372259 359.03268 647.706311 C 343.773971 644.040362 320.593967 641.466398 308.390893 633.803006 C 296.207281 626.159113 294.981135 613.406291 294.416718 600.185477 C 293.832839 586.964662 293.930152 573.275854 296.849548 571.852374 C 299.768944 570.448394 305.510422 581.270742 307.573462 593.146076 C 309.636502 605.001909 308.00164 617.871729 320.885907 627.972587 C 333.750711 638.073446 361.134645 645.405343 377.950365 652.444744 C 394.766085 659.503645 400.994129 666.28955 417.245433 678.671876 C 433.496736 691.054203 459.751836 709.07195 471.195868 743.215972 C 482.620437 777.379493 479.233938 827.688787 475.847439 878.017582 " stroke="#000000" stroke-width="2.95" stroke-opacity="1" stroke-miterlimit="22.926001"/><g clip-path="url(#5f0d55228a)"><path stroke-linecap="butt" transform="matrix(0.200705, 0, 0, 0.200323, 0.760639, 0.835258)" fill="none" stroke-linejoin="miter" d="M 267.4415 143.092385 C 267.07171 147.187328 266.70192 151.262771 269.757554 153.524739 C 272.813189 155.786707 279.294247 156.235201 287.312855 153.017746 C 295.331462 149.780791 304.90708 142.877888 314.035058 139.328938 C 323.143573 135.779988 331.82391 135.58499 334.937932 133.693517 C 338.051955 131.821543 335.619125 128.272593 331.862835 122.188678 C 328.126009 116.085264 323.065723 107.427385 315.319592 103.273943 C 307.592925 99.120502 297.180413 99.471497 289.453745 103.878435 C 281.727077 108.285373 276.686254 116.748254 274.214499 123.085666 C 271.762206 129.442576 271.898445 133.693517 271.139402 131.568047 C 270.360896 129.423077 268.706572 120.921196 270.516597 115.090778 C 272.326623 109.260359 277.620461 106.120903 280.189529 105.691909 C 282.77806 105.282415 282.622359 107.563883 283.43979 104.677924 C 284.25722 101.772464 286.008858 93.680078 288.967179 84.515206 C 291.9255 75.330835 296.090505 65.093479 299.204527 58.346573 C 302.318549 51.619168 304.342664 48.382213 302.68834 46.705236 C 301.034015 45.00876 295.662327 44.852762 290.660429 46.45174 C 285.677993 48.050718 281.065348 51.42417 275.888286 53.471642 C 270.691761 55.519113 264.911357 56.240603 260.902054 62.246519 C 256.873287 68.252434 254.596159 79.523276 255.608216 91.554608 C 256.620273 103.585939 260.921516 116.37776 261.680559 118.366732 C 262.459065 120.355704 259.675907 111.561327 260.940979 103.917434 C 262.225513 96.254042 267.538814 89.760633 268.823348 90.111628 C 270.107882 90.462623 267.344187 97.658022 266.565682 105.009419 C 265.767713 112.341316 266.935472 119.848711 265.6704 121.564687 C 264.424791 123.280663 260.785278 119.22472 257.496092 117.216248 C 254.226368 115.207776 251.306973 115.246776 250.372766 111.736825 C 249.419097 108.226874 250.431154 101.187473 251.637837 92.958588 C 252.825058 84.729703 254.187443 75.291836 252.727745 67.023952 C 251.268047 58.775567 246.966804 51.697166 244.767526 47.89472 C 242.568248 44.092273 242.451472 43.58528 239.629389 46.919733 C 236.807306 50.254187 231.260454 57.410586 228.671923 65.639471 C 226.083392 73.868356 226.43372 83.150225 229.255803 91.593607 C 232.058423 100.036989 237.293872 107.622382 241.400489 111.736825 C 245.507106 115.851267 248.465427 116.494758 246.071523 111.190832 C 243.677618 105.886907 235.95095 94.635564 228.827624 86.582177 C 221.684836 78.52879 215.125927 73.653859 208.411316 71.723386 C 201.696706 69.792913 194.806931 70.787399 190.661389 71.976882 C 186.515847 73.166365 185.095075 74.550846 183.693765 78.645789 C 182.272992 82.740731 180.871682 89.565636 182.117291 96.059045 C 183.343437 102.552453 187.19704 108.733867 193.133145 113.628298 C 199.069249 118.50323 207.087857 122.09118 214.56151 124.021652 C 222.035163 125.932626 228.963863 126.166622 229.859144 126.420119 C 230.754426 126.673615 225.616289 126.966111 221.431822 124.704143 C 217.266817 122.422675 214.055481 117.586743 212.401157 113.803796 C 210.766295 110.001349 210.688445 107.271387 212.887723 106.3939 C 215.106464 105.516412 219.621796 106.510898 224.37068 109.552855 C 229.139027 112.575313 234.121462 117.664742 236.729456 119.458716 C 239.33745 121.233192 239.571001 119.731713 238.033453 120.336204 C 236.495904 120.940696 233.167793 123.690157 231.396693 128.311592 C 229.625593 132.933028 229.392041 139.465436 226.180706 142.214897 C 222.988833 144.964359 216.780251 143.950373 210.493819 142.507393 C 204.226849 141.044914 197.862566 139.133941 196.247167 136.676975 C 194.612305 134.18101 197.726327 131.158552 202.397361 129.754572 C 207.087857 128.389591 213.335364 128.662587 217.967472 129.735072 C 222.59958 130.807557 225.596826 132.679531 223.923039 131.607046 C 222.22979 130.534561 215.865507 126.517618 207.632811 124.060652 C 199.400114 121.603686 189.33793 120.726199 181.183084 123.066166 C 173.047701 125.386633 166.858582 130.924556 162.810353 137.612962 C 158.781587 144.320868 156.932636 152.198757 156.874248 156.040204 C 156.81586 159.901149 158.548035 159.745152 162.635189 161.98762 C 166.722343 164.249589 173.164477 168.871024 182.175679 170.664999 C 191.186881 172.458973 202.786613 171.366989 211.525338 168.208033 C 220.283526 165.049077 226.200168 159.784151 227.017599 158.204673 C 227.83503 156.605696 223.572712 158.692166 217.948009 159.14066 C 212.323307 159.608654 205.355682 158.41917 200.373246 155.630709 C 195.390811 152.861748 192.413027 148.47431 194.028426 147.05083 C 195.624362 145.646849 201.813482 147.206827 207.769049 147.850318 C 213.724617 148.493809 219.42717 148.201314 222.443879 147.109329 C 225.480051 146.017344 225.830378 144.106371 226.842435 146.036844 C 227.873955 147.986817 229.547742 153.778235 231.357768 157.366185 C 233.167793 160.973634 235.114057 162.397114 234.569103 164.405586 C 234.024149 166.414058 230.987977 169.007522 225.304887 171.503487 C 219.641259 173.999452 211.350175 176.378418 205.336219 176.748913 C 199.322264 177.119408 195.585437 175.442432 190.466763 176.787913 C 185.328626 178.094394 178.808642 182.403834 175.169129 187.454263 C 171.510153 192.504692 170.731647 198.315611 171.49069 204.419025 C 172.249733 210.52244 174.546324 216.91835 176.200649 221.325288 C 177.874436 225.712727 178.905955 228.130693 180.424041 227.662699 C 181.922664 227.214206 183.927316 223.860253 188.754051 219.960307 C 193.600248 216.060362 201.307453 211.614424 206.328814 205.959504 C 211.369637 200.285083 213.705154 193.42118 216.488311 187.415264 C 219.252006 181.409348 222.424416 176.222421 226.083392 172.497973 C 229.761831 168.754025 233.926836 166.433558 236.573755 166.453058 C 239.220674 166.472557 240.388432 168.832024 239.765628 172.419974 C 239.142823 175.988424 236.748919 180.785357 232.603376 184.11981 C 228.477297 187.473763 222.580117 189.365236 218.551351 193.089684 C 214.522585 196.794632 212.342769 202.313055 211.46695 209.625452 C 210.591132 216.93785 211.01931 226.044222 213.568916 233.980611 C 216.137984 241.936499 220.82848 248.683405 227.387389 252.290854 C 233.946299 255.898304 242.373621 256.366297 244.689675 254.825819 C 247.005729 253.28534 243.171589 249.71689 243.61923 243.944971 C 244.047408 238.153552 248.757367 230.158664 251.131809 223.762754 C 253.525713 217.386344 253.564639 212.64791 251.229122 208.279971 C 248.874143 203.931532 244.164184 199.973088 242.393084 194.922658 C 240.621984 189.872229 241.789742 183.729815 241.945443 183.027825 C 242.081682 182.325835 241.205863 187.083768 238.208617 189.930728 C 235.21137 192.777689 230.131621 193.733175 228.847087 192.836188 C 227.562553 191.9392 230.112159 189.150739 233.265106 186.089282 C 236.437516 183.027825 240.193806 179.634873 241.750817 175.676428 C 243.288365 171.717984 242.607173 167.194047 244.65075 164.522585 C 246.694327 161.851122 251.443211 161.051633 254.75186 159.86215 C 258.060508 158.653167 259.928922 157.054189 260.3571 158.516669 C 260.785278 159.979148 259.792683 164.483585 257.92427 168.052035 C 256.036394 171.600985 253.272699 174.213949 250.372766 175.988424 C 247.472833 177.743399 244.456124 178.679386 243.813857 182.735329 C 243.152127 186.810772 244.884302 194.045171 249.107694 199.973088 C 253.331087 205.920504 260.06516 210.561439 266.546219 212.881907 C 273.04674 215.202374 279.294247 215.202374 283.829042 216.333358 C 288.344375 217.464342 291.108069 219.726311 291.614098 215.923864 C 292.139589 212.121417 290.368489 202.274055 290.018162 192.69969 C 289.648371 183.144824 290.679891 173.862954 288.986642 167.662041 C 287.293392 161.461128 282.894836 158.321672 278.671443 157.405184 C 274.467513 156.469198 270.458209 157.73668 268.142155 157.463684 C 265.826101 157.190687 265.222759 155.416212 266.254279 156.937191 C 267.266337 158.45817 269.913255 163.274602 272.482324 165.439072 C 275.070855 167.584042 277.581535 167.038049 277.328521 168.344531 C 277.075507 169.651013 274.019872 172.829468 270.886387 172.400474 C 267.752903 171.97148 264.56103 167.974036 261.349694 163.976592 " stroke="#000000" stroke-width="2.95" stroke-opacity="1" stroke-miterlimit="22.926001"/></g><g clip-path="url(#6b8003d477)"><path stroke-linecap="butt" transform="matrix(0.200705, 0, 0, 0.200323, 0.760639, 0.835258)" fill="none" stroke-linejoin="miter" d="M 312.886762 168.871024 C 311.641154 165.380573 310.395545 161.870622 305.821824 158.224173 C 302.902429 155.884206 298.640111 153.485739 294.903284 149.312798 M 287.429631 105.184917 C 287.818883 102.571953 288.305449 100.017489 288.869866 97.502024 C 292.29529 82.779731 299.126677 70.631401 305.121169 66.126964 C 311.135125 61.642027 316.292724 64.800983 323.201961 60.472043 C 330.111198 56.143104 338.772072 44.34577 348.114139 42.259299 C 357.436743 40.172828 367.421077 47.85572 372.75384 54.524627 C 378.06714 61.174034 378.748333 66.848454 375.245058 69.500417 C 371.741783 72.171879 364.073503 71.820884 357.495131 75.993826 C 350.916759 80.147268 345.428295 88.805146 342.080721 95.786048 C 338.75261 102.78645 337.584851 108.109876 340.484785 108.616868 C 343.40418 109.104362 350.391268 104.794922 353.232813 101.128973 C 356.054896 97.463025 354.731436 94.479567 354.147557 96.293041 C 353.563678 98.126016 353.738842 104.794922 350.488581 112.614312 C 347.23832 120.433703 340.562635 129.423077 336.553331 142.331896 C 332.544028 155.221215 331.201106 172.049479 330.617227 182.969326 C 330.013885 193.869673 330.189049 198.861603 328.768276 202.020559 C 327.347503 205.179515 324.350257 206.505496 323.591214 204.672522 C 322.851634 202.859047 324.350257 197.847617 323.201961 187.941756 C 322.034203 178.035895 318.219526 163.216103 318.55039 150.229285 C 318.686629 145.685849 319.309433 141.376409 320.321491 137.300966 M 328.904514 117.391745 C 328.982365 117.274747 329.079678 117.138249 329.157529 117.001751 C 334.91847 107.934378 341.905557 100.933976 350.488581 93.953074 C 359.071605 86.952672 369.231102 79.97177 373.902136 75.408834 C 378.573169 70.826398 377.736276 68.661929 379.157048 68.661929 C 380.577821 68.661929 384.236797 70.826398 387.05888 69.422418 C 389.880962 68.018438 391.885614 63.007008 396.556648 60.764539 C 401.227681 58.522071 408.545633 59.029064 412.807951 61.369031 C 417.031344 63.689498 418.218565 67.86244 422.441957 70.436404 C 426.684813 73.010368 434.022228 74.024353 439.841557 79.95227 C 445.660886 85.860687 449.981592 96.683036 450.059442 104.268429 C 450.137293 111.853823 445.972288 116.163263 448.132641 119.419717 C 450.292994 122.676171 458.778704 124.840641 464.851048 131.841043 C 470.923391 138.841445 474.582367 150.658279 473.823324 158.575168 C 473.083744 166.472557 467.906682 170.470001 464.481258 175.383932 C 461.075296 180.297864 459.401509 186.128282 455.567369 189.443235 C 451.733229 192.777689 445.738736 193.596677 446.244765 195.098156 C 446.731331 196.599635 453.737881 198.764105 455.392205 204.08753 C 457.04653 209.410955 453.387553 217.912836 449.806428 221.149791 C 446.225302 224.386745 442.722027 222.397773 439.316065 225.225234 C 435.890641 228.052694 432.56253 235.716087 426.062008 241.780502 C 419.561487 247.844917 409.908018 252.349353 401.07198 252.58335 C 392.235942 252.836847 384.25626 248.839403 379.857703 244.178968 C 375.439684 239.499034 374.602791 234.175608 371.274679 230.334162 C 367.946568 226.512216 362.127239 224.172248 355.471017 219.336316 C 348.814794 214.500384 341.321678 207.168487 337.331837 202.098558 C 333.341996 197.009129 332.835967 194.181669 333.264145 196.911631 C 333.672861 199.661092 334.99632 207.987475 340.562635 215.416871 C 346.148412 222.826767 355.957583 229.339676 362.535955 233.493118 C 369.114327 237.666059 372.442438 239.499034 373.104168 245.153954 C 373.765897 250.808875 371.761245 260.305242 365.260724 264.536683 C 358.779665 268.787623 347.783274 267.773637 341.127052 264.02969 C 334.451366 260.266242 332.135312 253.772833 327.386428 249.521893 C 322.657007 245.270953 315.494756 243.262481 311.407602 238.777544 C 307.320448 234.273107 306.347316 227.272705 307.33991 222.124777 C 308.332505 216.95735 311.349214 213.622896 310.006292 213.3889 C 308.682832 213.135403 303.019204 215.962864 298.523335 212.452913 C 294.027465 208.942962 290.699354 199.1151 292.159052 190.51572 C 293.61875 181.916341 299.846794 174.545444 304.420514 171.386488 C 309.013697 168.227533 311.933093 169.280518 317.14908 175.091437 C 322.345605 180.902355 329.838721 191.490707 339.317026 198.41311 C 348.814794 205.335513 360.297751 208.572467 373.12363 210.054446 C 385.949509 211.516926 400.098848 211.18543 409.090587 210.034947 C 418.082326 208.884463 421.916466 206.875991 422.169481 205.550009 C 422.422495 204.224028 419.094384 203.541538 420.76817 202.059558 C 422.422495 200.558079 429.09818 198.237612 434.586644 192.738689 C 440.094571 187.259266 444.43474 178.581888 445.680348 170.840496 C 446.925957 163.118604 445.115932 156.2742 441.281792 151.106773 C 437.447652 145.939345 431.628323 142.448894 425.711681 139.19244 C 419.814501 135.935985 413.820008 132.933028 409.168438 130.359064 C 404.497404 127.7656 401.169293 125.60113 398.34721 123.183164 C 395.505665 120.765198 393.189611 118.093736 395.505665 117.177248 C 397.841182 116.260761 404.847732 117.09925 412.65225 120.277705 C 420.476231 123.436661 429.137105 128.935584 434.04169 133.771516 C 438.965738 138.607448 440.114034 142.76089 440.367048 145.276355 C 440.620062 147.77232 439.958333 148.591308 437.291951 148.006316 C 434.625569 147.421324 429.973999 145.412853 426.976752 144.086871 C 423.979506 142.76089 422.636584 142.097899 424.466072 144.593864 C 426.29556 147.089829 431.297458 152.76425 433.282647 160.505641 C 435.267837 168.247032 434.275242 178.074895 430.188088 185.231294 C 426.100934 192.387694 418.938682 196.872631 418.101789 196.307139 C 417.264895 195.722147 422.772822 190.067227 425.770069 183.222823 C 428.767315 176.397918 429.273344 168.40303 427.774721 162.826108 C 426.29556 157.249187 422.792285 154.070731 419.386323 151.243271 C 415.960899 148.41581 412.632787 145.919845 411.640193 146.251341 C 410.647598 146.582836 411.971058 149.741792 410.472434 151.652765 C 408.973811 153.563738 404.633643 154.246229 401.383382 153.895234 C 398.133121 153.563738 395.972768 152.237757 393.053373 154.226729 C 390.133977 156.235201 386.475001 161.558626 383.069039 164.210589 C 379.643614 166.862552 376.471204 166.862552 377.658425 165.127076 C 378.826183 163.372101 384.314648 159.88165 386.319299 156.215701 C 388.304489 152.569252 386.805865 148.727806 388.401802 145.471352 C 389.978276 142.234397 394.649309 139.562935 395.817067 134.824501 C 396.984826 130.086067 394.668772 123.261163 392.508419 118.347232 C 390.348066 113.433301 388.343414 110.430343 392.099703 107.09589 C 395.83653 103.761437 405.334298 100.114988 411.406641 99.198501 C 417.498447 98.282013 420.145366 100.114988 418.062864 100.621981 C 415.980361 101.128973 409.168438 100.270985 400.429713 100.017489 C 391.671525 99.763993 381.025462 100.095488 372.111573 103.839435 C 363.197684 107.563883 356.035433 114.739783 350.391268 121.701185 C 344.747102 128.682087 340.640486 135.467992 341.710931 136.540477 C 342.800839 137.632462 349.087271 132.991527 354.711974 131.763044 C 360.356139 130.534561 365.338575 132.718531 369.328416 136.969471 C 373.318257 141.200912 376.315503 147.538323 376.802069 154.285228 C 377.308098 161.012634 375.303446 168.188533 376.95777 172.517473 C 378.612094 176.846412 383.944857 178.347891 386.786403 183.261822 C 389.608485 188.175753 389.93935 196.502136 388.012549 201.416067 C 386.10521 206.310499 381.940206 207.811978 382.115369 205.062516 C 382.271071 202.313055 386.786403 195.332153 392.197016 194.006171 C 397.60763 192.66069 403.932988 197.009129 408.253694 197.262626 C 412.593862 197.516122 414.929379 193.674676 416.914568 189.774731 C 418.91922 185.855286 420.593007 181.857842 421.838616 177.528902 C 423.084225 173.199963 423.921118 168.539528 423.765417 168.364031 C 423.590253 168.208033 422.422495 172.536972 420.76817 173.355961 C 419.094384 174.194449 416.934031 171.522987 414.851528 168.188533 C 412.769026 164.85408 410.783837 160.856636 407.942291 158.536169 C 405.120209 156.196201 401.461233 155.533211 400.215624 155.61121 C 398.950552 155.689209 400.137773 156.527697 400.215624 159.355157 C 400.293474 162.182617 399.281417 167.01855 395.213725 169.358517 C 391.126571 171.678984 383.96432 171.503487 383.633455 171.425488 C 383.30259 171.347489 389.803112 171.347489 393.637252 174.662443 C 397.451929 177.996896 398.619687 184.665802 401.286069 187.259266 C 403.932988 189.83323 408.117455 188.331751 410.939538 186.186781 C 413.76162 184.022311 415.279706 181.194851 414.773678 180.278364 C 414.267649 179.342377 411.776431 180.356363 409.693929 179.010882 C 407.611427 177.6849 405.957102 174.018952 403.8746 174.018952 C 401.792097 174.018952 399.281417 177.6849 396.790199 181.331349 " stroke="#000000" stroke-width="2.95" stroke-opacity="1" stroke-miterlimit="22.926001"/></g><path stroke-linecap="butt" transform="matrix(0.200705, 0, 0, 0.200323, 0.760639, 0.835258)" fill="none" stroke-linejoin="miter" d="M 292.29529 266.720652 C 282.019017 262.58671 271.742744 258.452768 262.848317 256.89279 C 253.934429 255.332812 246.402388 256.346797 240.874998 259.72025 C 235.367071 263.113202 231.844334 268.904621 230.657113 274.169547 C 229.489354 279.414974 230.657113 284.133908 229.022251 288.521346 C 227.387389 292.908785 222.96937 296.945228 219.466095 298.173711 C 215.96282 299.402194 213.374289 297.822716 213.549453 299.65569 C 213.724617 301.469165 216.682938 306.695091 220.672779 308.976559 C 224.66262 311.258028 229.683981 310.575537 235.308683 307.845575 C 240.933386 305.115614 247.16143 300.338181 253.233774 296.048241 C 259.32558 291.758301 265.261685 287.975354 270.263583 285.38189 C 275.284944 282.768927 279.372098 281.345447 277.620461 281.501445 C 275.868823 281.657442 268.297856 283.373418 260.785278 288.072853 C 253.292162 292.772287 245.876896 300.435679 243.346753 307.007087 C 240.81661 313.578495 243.152127 319.038418 243.288365 323.581855 C 243.385678 328.125291 241.264251 331.75224 241.84813 336.412675 C 242.393084 341.07311 245.643345 346.786529 248.718442 349.496991 C 251.774076 352.187954 254.654546 351.895458 257.126302 351.973457 C 259.578594 352.051456 261.622171 352.538949 264.483179 352.402451 C 267.344187 352.265953 271.022626 351.544463 273.163516 349.828487 C 275.323869 348.093011 275.946674 345.34355 277.192282 346.552533 C 278.457354 347.761516 280.306305 352.909444 281.162661 355.814903 C 282.019017 358.720362 281.863316 359.422352 285.989395 358.681363 C 290.096012 357.940373 298.464947 355.795403 304.148037 349.789487 C 309.811665 343.783572 312.789449 333.89721 313.567955 325.35633 C 314.365923 316.81545 312.964613 309.63955 310.726409 304.023629 C 308.507669 298.427207 305.413109 294.390764 303.972874 293.98127 C 302.513176 293.571775 302.68834 296.769731 303.42792 299.69469 C 304.148037 302.619649 305.413109 305.252112 304.556753 306.597593 C 303.700397 307.923574 300.70315 307.923574 299.087751 306.695091 C 297.472352 305.466609 297.258263 302.990143 297.355576 303.477637 C 297.472352 303.96513 297.919993 307.397082 296.285131 308.95706 C 294.630807 310.536538 290.89398 310.224542 289.103418 308.664564 C 287.312855 307.124085 287.468556 304.316125 286.787363 303.711633 C 286.086708 303.126642 284.54916 304.725619 281.882778 304.062628 C 279.23586 303.419137 275.440645 300.474679 274.00041 296.633233 C 272.579637 292.811286 273.455456 288.111852 275.382257 283.782913 C 277.309058 279.453973 280.228454 275.515029 283.108925 274.384044 C 285.989395 273.233561 288.792015 274.891037 289.298044 276.685012 C 289.804073 278.459487 288.032972 280.331461 289.356432 283.002924 C 290.699354 285.674386 295.117373 289.145338 299.691093 289.847328 C 304.284276 290.568818 308.994235 288.521346 311.076737 285.576888 C 313.178702 282.632429 312.633748 278.790983 311.407602 276.470515 C 310.181456 274.169547 308.274117 273.370059 305.49096 273.584556 C 302.707802 273.818552 299.087751 275.047035 297.0831 272.921565 C 295.09791 270.796095 294.767045 265.277672 296.440832 262.411212 C 298.134082 259.564252 301.831983 259.349755 303.194368 261.026732 C 304.556753 262.723208 303.564158 266.291658 303.544696 266.350157 C 303.525233 266.408656 304.478902 262.937705 306.833882 260.851234 C 309.188861 258.764763 312.964613 258.082273 314.657863 258.97926 C 316.351112 259.856748 315.961859 262.313714 317.927586 263.132702 C 319.893312 263.951691 324.233481 263.113202 327.736756 264.75118 C 331.240031 266.408656 333.906413 270.503599 333.692324 272.960564 C 333.497697 275.43703 330.383675 276.275518 331.220568 276.82151 C 332.076924 277.367503 336.845271 277.582 339.064012 279.317475 C 341.282753 281.033451 340.932425 284.270406 339.823055 285.732885 C 338.713684 287.214865 336.845271 286.941868 336.533869 287.819356 C 336.241929 288.696844 337.526463 290.705316 336.864734 292.128796 C 336.222467 293.552276 333.633936 294.351765 332.018537 294.059269 C 330.403138 293.747273 329.721945 292.343293 329.39108 291.641303 C 329.060215 290.958812 329.060215 290.958812 327.736756 293.084282 C 326.413297 295.229252 323.766378 299.499692 321.27516 300.39668 C 318.783942 301.293667 316.428963 298.836702 315.786696 298.758703 C 315.124966 298.661204 316.175948 300.962172 315.825621 302.268654 C 315.475293 303.555635 313.723656 303.828632 313.762581 306.344096 C 313.782044 308.859561 315.572607 313.578495 318.355764 317.107945 C 321.138921 320.617896 324.914673 322.938364 328.923977 325.161333 C 332.933281 327.384301 337.176136 329.509772 342.29481 330.699255 C 347.432947 331.888738 353.446902 332.122735 358.234711 326.448315 C 363.022521 320.754394 366.584183 309.113058 367.012362 300.123684 C 367.421077 291.11481 364.696307 284.757899 360.005811 281.306447 C 355.315315 277.854996 348.659093 277.348003 349.165122 276.431516 C 349.67115 275.534528 357.33943 274.208547 363.586937 276.295018 C 369.834444 278.381488 374.680641 283.880411 378.612094 285.810884 C 382.56301 287.760857 385.599182 286.14238 387.545446 283.841412 C 389.49171 281.520944 390.386991 278.517987 389.56956 277.932995 C 388.732667 277.348003 386.221986 279.180977 385.968972 277.445502 C 385.677032 275.690526 387.623296 270.386601 387.331357 265.843164 C 387.039417 261.280228 384.489811 257.477781 382.134832 256.073801 C 379.799315 254.650321 377.638962 255.644807 376.549055 254.182328 C 375.575923 252.895346 375.459147 249.658391 373.201481 247.786417 M 316.137023 242.540991 C 311.563303 247.201426 308.37143 252.173856 307.106359 253.382839 C 305.354721 255.020816 307.242597 249.560892 311.719004 244.373965 C 312.555898 243.398979 313.490104 242.404493 314.463236 241.449006 M 307.690238 231.660143 C 306.288928 233.31762 305.160095 234.604602 303.603084 234.585102 C 301.36488 234.526603 298.270321 231.757642 295.4677 232.654629 C 292.66508 233.551617 290.134937 238.114553 286.417573 238.836043 C 282.680747 239.538033 277.756699 236.379077 272.501786 236.554575 C 267.246874 236.749572 261.641634 240.318022 260.454413 244.354465 C 259.267192 248.390909 262.49799 252.934345 264.891895 254.182328 C 267.324724 255.43031 268.920661 253.402339 270.555523 251.354867 " stroke="#000000" stroke-width="2.95" stroke-opacity="1" stroke-miterlimit="22.926001"/><g clip-path="url(#701aab0ecd)"><path stroke-linecap="butt" transform="matrix(0.200705, 0, 0, 0.200323, 0.760639, 0.835258)" fill="none" stroke-linejoin="miter" d="M 173.359103 212.998905 C 158.548035 211.750923 143.717504 210.50294 132.25401 215.748367 C 120.771053 220.974293 112.655132 232.693629 105.882134 247.259925 C 99.128598 261.826221 93.698522 279.258976 93.854223 282.261934 C 93.990461 285.264892 99.712477 273.857552 111.448449 272.512071 C 123.164957 271.16659 140.875959 279.902467 157.866843 278.712984 C 174.838264 277.5235 191.089567 266.408656 201.093364 259.057259 C 211.136086 251.705862 214.950763 248.098413 218.76544 244.490964 " stroke="#000000" stroke-width="2.95" stroke-opacity="1" stroke-miterlimit="22.926001"/></g><g clip-path="url(#c02a68e406)"><path stroke-linecap="butt" transform="matrix(0.200705, 0, 0, 0.200323, 0.760639, 0.835258)" fill="none" stroke-linejoin="miter" d="M 213.588378 234.01961 C 189.260079 234.7801 164.931781 235.540589 147.804658 239.382035 C 130.677536 243.223481 120.75159 250.126385 112.966534 257.789777 C 105.162016 265.45317 99.498388 273.857552 93.83476 282.261934 " stroke="#000000" stroke-width="2.95" stroke-opacity="1" stroke-miterlimit="22.926001"/></g><path stroke-linecap="butt" transform="matrix(0.200705, 0, 0, 0.200323, 0.760639, 0.835258)" fill="none" stroke-linejoin="miter" d="M 186.691011 268.651125 C 179.120044 279.804968 171.568541 290.978312 168.668607 303.92613 C 165.788137 316.873949 167.5787 331.596242 168.162579 335.35969 C 168.76592 339.103637 168.162579 331.908238 175.69462 328.593284 C 183.207199 325.297831 198.835698 325.902322 208.917345 323.503856 C 218.998992 321.08589 223.533787 315.645466 228.068582 310.205042 " stroke="#000000" stroke-width="2.95" stroke-opacity="1" stroke-miterlimit="22.926001"/><path stroke-linecap="butt" transform="matrix(0.200705, 0, 0, 0.200323, 0.760639, 0.835258)" fill="none" stroke-linejoin="miter" d="M 230.034308 281.364947 C 216.741326 285.596387 203.448343 289.827828 193.133145 298.817202 C 182.817946 307.826076 175.499994 321.592883 168.182041 335.35969 " stroke="#000000" stroke-width="2.95" stroke-opacity="1" stroke-miterlimit="22.926001"/><path stroke-linecap="butt" transform="matrix(0.200705, 0, 0, 0.200323, 0.760639, 0.835258)" fill="none" stroke-linejoin="miter" d="M 451.013112 198.627607 C 456.112323 188.663246 461.970577 179.907869 469.891871 174.408946 C 482.289572 165.829066 499.708634 165.224575 515.473372 168.851524 C 531.257572 172.478473 545.367985 180.297864 548.871261 182.345335 C 552.374536 184.392806 545.25121 180.668358 536.25947 183.671316 C 527.248269 186.693774 516.329728 196.463137 501.22672 203.444039 C 487.427709 209.82045 470.144886 213.856893 452.55066 217.698339 " stroke="#000000" stroke-width="2.95" stroke-opacity="1" stroke-miterlimit="22.926001"/><path stroke-linecap="butt" transform="matrix(0.200705, 0, 0, 0.200323, 0.760639, 0.835258)" fill="none" stroke-linejoin="miter" d="M 450.974186 219.960307 C 459.284733 218.536827 467.264415 217.600841 475.652813 219.004821 C 490.074628 221.422787 505.703127 230.743656 517.419636 236.92507 C 529.136145 243.086983 536.940663 246.109441 530.926707 248.644405 C 524.912752 251.19887 505.080323 253.28534 486.454577 253.421838 C 467.828832 253.577836 450.390307 251.744862 435.890641 247.454922 C 431.803487 246.245939 427.949884 244.841959 424.310371 243.34048 " stroke="#000000" stroke-width="2.95" stroke-opacity="1" stroke-miterlimit="22.926001"/><g clip-path="url(#cb1161f790)"><path stroke-linecap="butt" transform="matrix(0.200705, 0, 0, 0.200323, 0.760639, 0.835258)" fill="none" stroke-linejoin="miter" d="M 409.985868 60.218547 C 412.632787 50.468684 415.299169 40.71882 412.28246 32.080441 C 409.265751 23.442063 400.546489 15.934668 396.342559 9.987251 C 392.138628 4.059334 392.430568 -0.308604 389.355471 2.167861 C 386.280374 4.644326 379.818778 13.965195 376.471204 23.812557 C 373.143093 33.679419 372.948466 44.092273 373.532346 50.527183 C 374.135687 56.942593 375.517535 59.360559 376.899382 61.798025 " stroke="#000000" stroke-width="2.95" stroke-opacity="1" stroke-miterlimit="22.926001"/></g><g clip-path="url(#080647d4d5)"><path stroke-linecap="butt" transform="matrix(0.200705, 0, 0, 0.200323, 0.760639, 0.835258)" fill="none" stroke-linejoin="miter" d="M 376.471204 23.832057 C 347.199395 20.341606 317.908123 16.851155 288.422225 24.651046 C 258.916864 32.450936 229.216877 51.541169 211.428025 63.864996 C 207.788512 66.380461 204.635564 68.622929 201.813482 70.650901 M 182.117291 85.0027 C 179.431447 86.874673 176.531513 88.805146 173.164477 90.930616 C 158.625886 100.134487 135.42642 113.023807 122.250213 143.404381 C 109.074007 173.784955 105.921059 221.656784 98.564182 253.831333 C 91.226767 286.025381 79.665959 302.52215 63.511969 323.445357 C 47.338516 344.368563 26.552417 369.718208 16.490233 394.52186 C 6.428048 419.325512 7.070316 443.563673 7.712583 467.821333 " stroke="#000000" stroke-width="2.95" stroke-opacity="1" stroke-miterlimit="22.926001"/></g><g clip-path="url(#b87372ff41)"><path stroke-linecap="butt" transform="matrix(0.200705, 0, 0, 0.200323, 0.760639, 0.835258)" fill="none" stroke-linejoin="miter" d="M 180.754906 271.86858 C 163.491545 295.697246 146.208722 319.525912 118.104671 343.627574 C 89.981158 367.709736 51.016954 392.045395 28.71277 423.225458 C 6.408586 454.405521 0.76442 492.410488 1.542926 516.804646 C 2.321432 541.198804 9.522608 551.962653 16.723784 562.746002 " stroke="#2b2a29" stroke-width="2.95" stroke-opacity="1" stroke-miterlimit="22.926001"/></g><g clip-path="url(#51b5a3b809)"><path stroke-linecap="butt" transform="matrix(0.200705, 0, 0, 0.200323, 0.760639, 0.835258)" fill="none" stroke-linejoin="miter" d="M 413.197204 46.256743 C 436.552371 54.563626 459.907538 62.85101 474.134727 79.932771 C 488.342453 97.014531 493.402739 122.851669 490.288717 140.225925 C 487.155232 157.619681 475.827976 166.492057 477.599076 164.210589 C 479.370177 161.948621 494.239633 148.47431 518.918259 152.647251 C 543.596885 156.820193 578.065219 178.620887 590.735397 215.377872 C 603.405575 252.115357 594.29706 303.828632 576.547133 357.043386 C 558.816669 410.277639 532.444793 465.013372 525.613407 516.219654 C 518.762558 567.425936 531.432736 615.063768 562.864898 651.820753 C 594.29706 688.577738 644.491206 714.414875 668.819505 740.018016 C 693.147804 765.621157 691.629718 790.970802 667.281956 819.869397 C 642.953658 848.767992 595.815146 881.196037 580.867839 917.446029 C 565.90107 953.676521 583.144968 993.728959 606.967238 1012.741193 C 630.789508 1031.753426 661.209613 1029.725455 678.687063 1018.318115 C 696.183975 1006.910775 700.738233 986.124066 699.220147 973.956237 C 697.702061 961.807907 690.092169 958.258957 686.802983 956.737978 C 683.513797 955.216999 684.525854 955.723992 687.055998 959.526439 C 689.586141 963.328886 693.653832 970.426786 690.61766 981.054137 C 687.562026 991.700988 677.421991 1005.896789 656.149327 1013.501682 C 634.8572 1021.106576 602.41298 1022.120561 577.053162 1007.92476 C 551.712806 993.748459 533.476313 964.342871 529.91465 939.246723 C 526.37245 914.150575 537.524542 893.363867 559.069683 872.577158 C 580.614825 851.790449 612.553015 831.003741 629.524437 811.231018 C 646.51532 791.477795 648.539435 772.719058 639.664472 757.762768 C 630.789508 742.806477 611.015467 731.652634 584.020787 721.746773 C 557.026106 711.840911 522.771862 703.183033 496.828164 672.880458 C 470.884466 642.597382 453.21239 590.650111 456.287487 548.277205 C 459.343121 505.904299 483.145929 473.105758 506.929273 440.307218 " stroke="#2b2a29" stroke-width="2.95" stroke-opacity="1" stroke-miterlimit="22.926001"/></g><g clip-path="url(#7d5b8f522b)"><path stroke-linecap="butt" transform="matrix(0.200705, 0, 0, 0.200323, 0.760639, 0.835258)" fill="none" stroke-linejoin="miter" d="M 657.317085 830.730745 C 640.365127 879.148566 623.413168 927.566387 629.874764 964.44037 C 636.355823 1001.333853 666.269899 1026.683497 693.381355 1030.973437 C 720.512274 1035.282877 744.840573 1018.571611 753.462522 997.024413 C 762.084471 975.477215 754.980608 949.113585 746.611673 936.945756 C 738.242738 924.777926 728.628194 926.805898 731.411352 929.087366 C 734.194509 931.368834 749.39483 933.903798 761.325428 944.297153 C 773.236563 954.690507 781.858512 972.942251 770.433943 987.645045 C 759.048299 1002.347839 727.616137 1013.482183 703.774404 1006.384282 C 679.952134 999.305881 663.739756 973.956237 659.672064 949.367081 C 655.623836 924.777926 663.739756 900.94926 665.76387 895.372338 C 667.787985 889.795417 663.739756 902.470239 673.101285 908.300657 C 682.482277 914.131075 705.29249 913.11709 720.765288 902.470239 C 736.218624 891.823388 744.334544 871.543672 745.346601 854.812907 C 746.358659 838.082142 740.286315 824.900326 730.652309 820.590887 C 721.018303 816.281447 707.842096 820.863883 704.027419 826.947798 C 700.232204 833.012213 705.817982 840.636606 705.039476 839.876116 C 704.280433 839.115627 697.17657 829.989755 702.762347 827.961783 C 708.348125 825.933812 726.584617 831.003741 729.620789 842.664577 C 732.656961 854.325414 720.492811 872.577158 705.545505 882.44402 C 690.598198 892.330381 672.848271 893.85136 660.178093 891.569892 C 647.507915 889.288424 639.898023 883.204509 635.849794 876.652601 C 631.801565 870.081193 631.334462 863.061291 630.867359 856.02189 " stroke="#2b2a29" stroke-width="2.95" stroke-opacity="1" stroke-miterlimit="22.926001"/></g><g clip-path="url(#a9cffcf16a)"><path stroke-linecap="butt" transform="matrix(0.200705, 0, 0, 0.200323, 0.760639, 0.835258)" fill="none" stroke-linejoin="miter" d="M 537.913795 964.713366 C 526.294599 946.676119 514.675404 928.638872 510.121146 911.245116 C 505.586351 893.870859 508.116494 877.140094 521.039687 860.155832 C 533.962879 843.17157 557.279121 825.953312 569.190256 809.476043 C 581.101391 792.998774 581.607419 777.281994 559.770338 760.258733 C 537.933257 743.235471 493.753067 724.925228 467.692593 693.043175 C 441.612657 661.161122 433.652438 615.707259 425.692218 570.253396 " stroke="#2b2a29" stroke-width="2.95" stroke-opacity="1" stroke-miterlimit="22.926001"/></g><g clip-path="url(#6f73753be0)"><path stroke-linecap="butt" transform="matrix(0.200705, 0, 0, 0.200323, 0.760639, 0.835258)" fill="none" stroke-linejoin="miter" d="M 187.469517 405.480707 C 180.910607 419.247514 172.930925 433.03382 153.35151 447.015124 C 130.988938 462.9854 93.46497 479.228673 66.587066 494.535958 C 39.709161 509.862743 23.438395 524.312041 16.76271 560.328036 C 10.087025 596.344031 12.986958 653.926723 29.277187 689.513724 C 45.567415 725.081226 75.228477 738.653036 104.909002 752.205346 " stroke="#2b2a29" stroke-width="2.95" stroke-opacity="1" stroke-miterlimit="22.926001"/></g><g clip-path="url(#fd5e853f9c)"><path stroke-linecap="butt" transform="matrix(0.200705, 0, 0, 0.200323, 0.760639, 0.835258)" fill="none" stroke-linejoin="miter" d="M 477.793703 703.963022 C 503.873639 720.615788 529.934113 737.288055 525.302005 767.961125 C 520.650434 798.634195 485.306281 843.327568 473.044819 886.909457 C 460.783356 930.491346 471.604584 972.961751 499.280456 994.742945 C 526.936866 1016.54364 571.447922 1017.655124 615.939515 1018.786108 " stroke="#2b2a29" stroke-width="2.95" stroke-opacity="1" stroke-miterlimit="22.926001"/></g><g clip-path="url(#c6aba36da8)"><path stroke-linecap="butt" transform="matrix(0.200705, 0, 0, 0.200323, 0.760639, 0.835258)" fill="none" stroke-linejoin="miter" d="M 101.464115 750.606368 C 81.339746 741.1685 61.215377 731.711133 46.715711 710.904925 C 32.216045 690.118216 23.341082 657.963167 33.305953 627.407095 C 43.270824 596.851024 72.07553 567.89393 102.301008 548.433202 C 132.526487 528.972475 164.153275 519.008115 183.907854 499.566887 C 203.64297 480.10616 211.505876 451.188066 217.578219 443.583172 C 223.6311 436.017278 227.91288 449.764586 217.480906 475.718722 C 207.048931 501.672858 181.922664 539.814323 158.295021 571.013886 C 134.68684 602.213448 112.577282 626.471108 105.103628 650.787267 C 97.610512 675.083927 104.753301 699.419586 111.896089 723.735745 " stroke="#2b2a29" stroke-width="2.95" stroke-opacity="1" stroke-miterlimit="22.926001"/></g><path stroke-linecap="butt" transform="matrix(0.200705, 0, 0, 0.200323, 0.760639, 0.835258)" fill="none" stroke-linejoin="miter" d="M 591.455515 679.334867 C 567.049365 667.206037 542.623753 655.077207 523.044339 636.220972 C 503.464924 617.364736 488.731706 591.800594 487.21362 561.244523 C 485.695534 530.707951 497.39258 495.159949 510.393623 462.224911 C 523.394666 429.309372 537.699706 398.967798 543.752586 367.768235 C 549.82493 336.568673 547.664577 304.491622 542.721067 284.835898 C 537.797019 265.199673 530.089814 257.965275 522.382609 250.730876 " stroke="#2b2a29" stroke-width="2.95" stroke-opacity="1" stroke-miterlimit="22.926001"/></g></g></g><g fill="#a77880" fill-opacity="1"><g transform="translate(82.320476, 240.971411)"><g><path d="M 10.496094 0.441406 C 12.75 0.441406 14.921875 -0.0546875 16.707031 -1.179688 C 17.011719 -1.347656 17.285156 -1.402344 17.503906 -1.402344 C 18.21875 -1.402344 18.605469 -0.796875 18.605469 0 L 18.714844 0 L 18.714844 -7.007812 C 18.714844 -8.328125 19.511719 -9.039062 20.445312 -9.039062 L 15.332031 -9.039062 C 16.269531 -9.039062 17.066406 -8.328125 17.066406 -7.007812 L 17.066406 -2.941406 C 15.800781 -1.125 13.574219 0.0546875 10.496094 0.0546875 C -1.210938 0.0546875 -1.179688 -19.402344 10.496094 -19.402344 C 14.042969 -19.402344 17.863281 -17.695312 17.367188 -14.730469 L 18.21875 -16.679688 C 16.128906 -18.90625 13.519531 -19.757812 10.496094 -19.757812 C -3.601562 -19.757812 -3.792969 0.441406 10.496094 0.441406 Z M 10.496094 0.441406 "/></g></g></g><g fill="#a77880" fill-opacity="1"><g transform="translate(103.38852, 240.971411)"><g><path d="M 3.296875 0.21875 C 3.628906 0.273438 3.984375 0.300781 4.34375 0.300781 C 6.320312 0.300781 8.738281 -0.550781 9.726562 -2.253906 L 9.726562 -1.042969 C 9.726562 -0.136719 10.332031 0.191406 11.074219 0.191406 C 11.734375 0.191406 12.503906 -0.0820312 12.996094 -0.441406 C 12.613281 -0.300781 12.3125 -0.246094 12.0625 -0.246094 C 11.402344 -0.246094 11.292969 -0.769531 11.292969 -1.921875 L 11.292969 -10.113281 C 11.183594 -12.613281 8.683594 -13.960938 6.101562 -13.960938 C 3.875 -13.960938 1.59375 -12.96875 0.769531 -10.828125 C 0.714844 -10.691406 0.714844 -10.550781 0.714844 -10.414062 C 0.714844 -9.835938 1.179688 -9.34375 1.785156 -9.34375 C 2.363281 -9.34375 2.859375 -9.835938 2.859375 -10.414062 C 2.859375 -11.019531 2.363281 -11.488281 1.785156 -11.488281 C 1.621094 -11.488281 1.484375 -11.460938 1.320312 -11.375 C 2.007812 -12.75 4.066406 -13.710938 5.964844 -13.710938 C 7.804688 -13.710938 9.507812 -12.832031 9.699219 -10.523438 C 9.34375 -7.914062 4.066406 -7.886719 2.199219 -6.816406 C -1.097656 -4.945312 -0.46875 -0.441406 3.296875 0.21875 Z M 3.296875 -6.566406 C 5.109375 -8.023438 8.574219 -7.640625 9.726562 -9.894531 L 9.726562 -2.746094 C 9.480469 -1.457031 6.925781 -0.191406 5.386719 -0.0273438 C 1.457031 0.414062 0.851562 -4.589844 3.296875 -6.566406 Z M 3.296875 -6.566406 "/></g></g></g><g fill="#a77880" fill-opacity="1"><g transform="translate(116.490653, 240.971411)"><g><path d="M 5.054688 0.0273438 C 4.121094 0.0273438 3.324219 -0.6875 3.324219 -2.007812 L 3.324219 -9.921875 C 3.324219 -9.949219 3.351562 -9.976562 3.351562 -10.003906 C 3.875 -11.925781 6.402344 -13.628906 8.65625 -13.628906 C 9.207031 -13.628906 9.78125 -13.519531 10.277344 -13.273438 C 10.222656 -13.273438 10.167969 -13.246094 10.113281 -13.246094 C 9.535156 -13.082031 9.207031 -12.503906 9.371094 -11.925781 C 9.535156 -11.347656 10.113281 -11.019531 10.691406 -11.183594 C 11.265625 -11.347656 11.597656 -11.953125 11.433594 -12.53125 L 11.347656 -12.75 C 10.9375 -13.546875 9.507812 -13.878906 8.710938 -13.878906 C 6.675781 -13.878906 4.257812 -12.667969 3.324219 -10.550781 L 3.324219 -13.710938 L 0.6875 -13.328125 C 1.402344 -13.328125 1.730469 -12.667969 1.730469 -11.980469 L 1.730469 -2.007812 C 1.730469 -0.6875 0.960938 0.0273438 0.0273438 0.0273438 Z M 5.054688 0.0273438 "/></g></g></g><g fill="#a77880" fill-opacity="1"><g transform="translate(128.329221, 240.971411)"><g><path d="M 6.953125 0.246094 C 16.296875 0.246094 16.296875 -14.042969 6.953125 -14.042969 C -2.390625 -14.042969 -2.390625 0.246094 6.953125 0.246094 Z M 6.953125 -13.851562 C 14.097656 -13.851562 14.097656 0.0546875 6.953125 0.0546875 C -0.191406 0.0546875 -0.191406 -13.851562 6.953125 -13.851562 Z M 6.953125 -13.851562 "/></g></g></g><g fill="#a77880" fill-opacity="1"><g transform="translate(142.942133, 240.971411)"><g><path d="M 1.949219 -13.65625 L 1.949219 -3.574219 C 1.949219 -1.320312 3.078125 0.164062 5.359375 0.164062 C 6.183594 0.164062 7.171875 -0.0820312 8.410156 -0.769531 L 8.300781 -0.90625 C 7.53125 -0.441406 6.707031 -0.164062 5.964844 -0.164062 C 5.332031 -0.164062 4.753906 -0.355469 4.34375 -0.714844 C 3.820312 -1.125 3.515625 -1.921875 3.542969 -3.132812 L 3.542969 -13.65625 L 7.226562 -13.65625 L 7.226562 -13.851562 L 3.542969 -13.851562 L 3.542969 -18.328125 C 3.542969 -18.410156 3.433594 -18.4375 3.433594 -18.328125 C 3.296875 -14.867188 2.308594 -13.878906 0 -13.851562 L 0 -13.65625 Z M 1.949219 -13.65625 "/></g></g></g><g fill="#a77880" fill-opacity="1"><g transform="translate(152.088777, 240.971411)"><g><path d="M 3.296875 0.21875 C 3.628906 0.273438 3.984375 0.300781 4.34375 0.300781 C 6.320312 0.300781 8.738281 -0.550781 9.726562 -2.253906 L 9.726562 -1.042969 C 9.726562 -0.136719 10.332031 0.191406 11.074219 0.191406 C 11.734375 0.191406 12.503906 -0.0820312 12.996094 -0.441406 C 12.613281 -0.300781 12.3125 -0.246094 12.0625 -0.246094 C 11.402344 -0.246094 11.292969 -0.769531 11.292969 -1.921875 L 11.292969 -10.113281 C 11.183594 -12.613281 8.683594 -13.960938 6.101562 -13.960938 C 3.875 -13.960938 1.59375 -12.96875 0.769531 -10.828125 C 0.714844 -10.691406 0.714844 -10.550781 0.714844 -10.414062 C 0.714844 -9.835938 1.179688 -9.34375 1.785156 -9.34375 C 2.363281 -9.34375 2.859375 -9.835938 2.859375 -10.414062 C 2.859375 -11.019531 2.363281 -11.488281 1.785156 -11.488281 C 1.621094 -11.488281 1.484375 -11.460938 1.320312 -11.375 C 2.007812 -12.75 4.066406 -13.710938 5.964844 -13.710938 C 7.804688 -13.710938 9.507812 -12.832031 9.699219 -10.523438 C 9.34375 -7.914062 4.066406 -7.886719 2.199219 -6.816406 C -1.097656 -4.945312 -0.46875 -0.441406 3.296875 0.21875 Z M 3.296875 -6.566406 C 5.109375 -8.023438 8.574219 -7.640625 9.726562 -9.894531 L 9.726562 -2.746094 C 9.480469 -1.457031 6.925781 -0.191406 5.386719 -0.0273438 C 1.457031 0.414062 0.851562 -4.589844 3.296875 -6.566406 Z M 3.296875 -6.566406 "/></g></g></g><g fill="#a77880" fill-opacity="1"><g transform="translate(165.190911, 240.971411)"><g/></g></g><g fill="#a77880" fill-opacity="1"><g transform="translate(171.013847, 240.971411)"><g><path d="M -0.0546875 -16.460938 C 0.355469 -17.945312 1.292969 -19.070312 3.683594 -19.070312 L 8.132812 -19.070312 L 8.132812 -2.0625 C 8.132812 -0.769531 7.335938 -0.0546875 6.402344 -0.0546875 L 11.625 -0.0546875 C 10.691406 -0.0546875 9.894531 -0.769531 9.894531 -2.0625 L 9.894531 -19.070312 L 14.34375 -19.070312 C 16.679688 -19.070312 17.640625 -17.972656 18.027344 -16.515625 L 17.285156 -19.375 L 0.742188 -19.375 Z M 18.027344 -16.515625 C 18.027344 -16.515625 18.027344 -16.488281 18.054688 -16.460938 Z M 18.027344 -16.515625 "/></g></g></g><g fill="#a77880" fill-opacity="1"><g transform="translate(190.516175, 240.971411)"><g><path d="M 5.054688 0.0273438 C 4.121094 0.0273438 3.324219 -0.6875 3.324219 -2.007812 L 3.324219 -9.921875 C 3.324219 -9.949219 3.351562 -9.976562 3.351562 -10.003906 C 3.875 -11.925781 6.402344 -13.628906 8.65625 -13.628906 C 9.207031 -13.628906 9.78125 -13.519531 10.277344 -13.273438 C 10.222656 -13.273438 10.167969 -13.246094 10.113281 -13.246094 C 9.535156 -13.082031 9.207031 -12.503906 9.371094 -11.925781 C 9.535156 -11.347656 10.113281 -11.019531 10.691406 -11.183594 C 11.265625 -11.347656 11.597656 -11.953125 11.433594 -12.53125 L 11.347656 -12.75 C 10.9375 -13.546875 9.507812 -13.878906 8.710938 -13.878906 C 6.675781 -13.878906 4.257812 -12.667969 3.324219 -10.550781 L 3.324219 -13.710938 L 0.6875 -13.328125 C 1.402344 -13.328125 1.730469 -12.667969 1.730469 -11.980469 L 1.730469 -2.007812 C 1.730469 -0.6875 0.960938 0.0273438 0.0273438 0.0273438 Z M 5.054688 0.0273438 "/></g></g></g><g fill="#a77880" fill-opacity="1"><g transform="translate(202.354743, 240.971411)"><g><path d="M 3.296875 0.21875 C 3.628906 0.273438 3.984375 0.300781 4.34375 0.300781 C 6.320312 0.300781 8.738281 -0.550781 9.726562 -2.253906 L 9.726562 -1.042969 C 9.726562 -0.136719 10.332031 0.191406 11.074219 0.191406 C 11.734375 0.191406 12.503906 -0.0820312 12.996094 -0.441406 C 12.613281 -0.300781 12.3125 -0.246094 12.0625 -0.246094 C 11.402344 -0.246094 11.292969 -0.769531 11.292969 -1.921875 L 11.292969 -10.113281 C 11.183594 -12.613281 8.683594 -13.960938 6.101562 -13.960938 C 3.875 -13.960938 1.59375 -12.96875 0.769531 -10.828125 C 0.714844 -10.691406 0.714844 -10.550781 0.714844 -10.414062 C 0.714844 -9.835938 1.179688 -9.34375 1.785156 -9.34375 C 2.363281 -9.34375 2.859375 -9.835938 2.859375 -10.414062 C 2.859375 -11.019531 2.363281 -11.488281 1.785156 -11.488281 C 1.621094 -11.488281 1.484375 -11.460938 1.320312 -11.375 C 2.007812 -12.75 4.066406 -13.710938 5.964844 -13.710938 C 7.804688 -13.710938 9.507812 -12.832031 9.699219 -10.523438 C 9.34375 -7.914062 4.066406 -7.886719 2.199219 -6.816406 C -1.097656 -4.945312 -0.46875 -0.441406 3.296875 0.21875 Z M 3.296875 -6.566406 C 5.109375 -8.023438 8.574219 -7.640625 9.726562 -9.894531 L 9.726562 -2.746094 C 9.480469 -1.457031 6.925781 -0.191406 5.386719 -0.0273438 C 1.457031 0.414062 0.851562 -4.589844 3.296875 -6.566406 Z M 3.296875 -6.566406 "/></g></g></g><g fill="#a77880" fill-opacity="1"><g transform="translate(215.456877, 240.971411)"><g><path d="M 5.054688 0 C 4.121094 0 3.324219 -0.714844 3.324219 -2.035156 L 3.324219 -11.433594 C 3.847656 -12.96875 6.347656 -13.710938 7.804688 -13.710938 C 9.726562 -13.710938 11.515625 -12.722656 11.460938 -10.167969 L 11.460938 -2.035156 C 11.460938 -0.714844 10.664062 0 9.726562 0 L 14.757812 0 C 13.824219 0 13.027344 -0.714844 13.027344 -2.035156 L 13.027344 -10.167969 C 13.027344 -12.667969 10.632812 -13.933594 8.105469 -13.933594 C 6.320312 -13.933594 4.480469 -13.328125 3.324219 -12.0625 L 3.324219 -13.738281 L 0.6875 -13.355469 C 1.429688 -13.355469 1.757812 -12.695312 1.757812 -12.007812 L 1.757812 -2.035156 C 1.757812 -0.714844 0.960938 0 0.0273438 0 Z M 5.054688 0 "/></g></g></g><g fill="#a77880" fill-opacity="1"><g transform="translate(230.838914, 240.971411)"><g><path d="M -0.109375 -6.84375 C -0.0546875 -2.144531 3.023438 0 6.15625 0.246094 L 5.304688 2.035156 L 5.796875 2.253906 C 7.445312 1.894531 9.207031 3.351562 8.382812 5.054688 C 7.96875 5.878906 7.171875 6.238281 6.347656 6.238281 C 5.441406 6.238281 4.507812 5.769531 4.148438 4.917969 C 4.371094 6.074219 5.660156 6.871094 6.953125 6.871094 C 7.832031 6.871094 8.738281 6.484375 9.289062 5.578125 C 10.46875 3.65625 9.039062 1.097656 6.402344 1.484375 L 6.707031 0.273438 C 9.34375 0.273438 11.84375 -1.070312 12.53125 -3.351562 L 12.339844 -3.378906 C 11.625 -1.320312 9.589844 -0.191406 7.472656 -0.191406 C 4.644531 -0.191406 1.703125 -2.253906 1.648438 -6.871094 C 1.621094 -10.332031 3.820312 -13.492188 7.445312 -13.492188 C 9.011719 -13.492188 10.605469 -12.859375 11.625 -11.488281 C 11.488281 -11.542969 11.347656 -11.570312 11.210938 -11.570312 C 10.632812 -11.570312 10.140625 -11.074219 10.140625 -10.496094 C 10.140625 -9.894531 10.632812 -9.425781 11.210938 -9.425781 C 11.816406 -9.425781 12.285156 -9.894531 12.285156 -10.496094 C 12.285156 -10.746094 12.171875 -11.046875 12.0625 -11.265625 C 10.882812 -13.136719 8.847656 -14.015625 6.761719 -14.015625 C 2.636719 -14.015625 -0.164062 -10.992188 -0.109375 -6.84375 Z M -0.109375 -6.84375 "/></g></g></g><g fill="#a77880" fill-opacity="1"><g transform="translate(243.63889, 240.971411)"><g><path d="M 3.296875 0.21875 C 3.628906 0.273438 3.984375 0.300781 4.34375 0.300781 C 6.320312 0.300781 8.738281 -0.550781 9.726562 -2.253906 L 9.726562 -1.042969 C 9.726562 -0.136719 10.332031 0.191406 11.074219 0.191406 C 11.734375 0.191406 12.503906 -0.0820312 12.996094 -0.441406 C 12.613281 -0.300781 12.3125 -0.246094 12.0625 -0.246094 C 11.402344 -0.246094 11.292969 -0.769531 11.292969 -1.921875 L 11.292969 -10.113281 C 11.183594 -12.613281 8.683594 -13.960938 6.101562 -13.960938 C 3.875 -13.960938 1.59375 -12.96875 0.769531 -10.828125 C 0.714844 -10.691406 0.714844 -10.550781 0.714844 -10.414062 C 0.714844 -9.835938 1.179688 -9.34375 1.785156 -9.34375 C 2.363281 -9.34375 2.859375 -9.835938 2.859375 -10.414062 C 2.859375 -11.019531 2.363281 -11.488281 1.785156 -11.488281 C 1.621094 -11.488281 1.484375 -11.460938 1.320312 -11.375 C 2.007812 -12.75 4.066406 -13.710938 5.964844 -13.710938 C 7.804688 -13.710938 9.507812 -12.832031 9.699219 -10.523438 C 9.34375 -7.914062 4.066406 -7.886719 2.199219 -6.816406 C -1.097656 -4.945312 -0.46875 -0.441406 3.296875 0.21875 Z M 3.296875 -6.566406 C 5.109375 -8.023438 8.574219 -7.640625 9.726562 -9.894531 L 9.726562 -2.746094 C 9.480469 -1.457031 6.925781 -0.191406 5.386719 -0.0273438 C 1.457031 0.414062 0.851562 -4.589844 3.296875 -6.566406 Z M 3.296875 -6.566406 "/></g></g></g><g fill="#a77880" fill-opacity="1"><g transform="translate(256.741024, 240.971411)"><g><path d="M 11.046875 0.300781 L 14.316406 -0.578125 C 13.164062 -0.578125 12.613281 -0.988281 12.613281 -2.691406 L 12.613281 -21.847656 L 9.976562 -21.460938 C 10.71875 -21.460938 11.046875 -20.800781 11.046875 -20.117188 L 11.046875 -12.285156 C 9.894531 -13.4375 8.410156 -13.960938 6.789062 -13.960938 C 2.417969 -13.960938 -0.21875 -11.183594 -0.273438 -6.734375 C -0.300781 -1.921875 2.832031 0.300781 5.964844 0.300781 C 7.886719 0.300781 9.835938 -0.550781 11.046875 -2.117188 Z M 1.539062 -6.816406 C 1.539062 -11.652344 4.453125 -13.824219 7.117188 -13.796875 C 8.765625 -13.765625 10.386719 -12.777344 11.046875 -11.761719 L 11.046875 -2.582031 C 9.921875 -0.933594 8.242188 -0.0820312 6.621094 -0.0820312 C 4.039062 -0.0820312 1.539062 -2.253906 1.539062 -6.816406 Z M 1.539062 -6.816406 "/></g></g></g><g fill="#a77880" fill-opacity="1"><g transform="translate(271.216586, 240.971411)"><g><path d="M 3.296875 0.21875 C 3.628906 0.273438 3.984375 0.300781 4.34375 0.300781 C 6.320312 0.300781 8.738281 -0.550781 9.726562 -2.253906 L 9.726562 -1.042969 C 9.726562 -0.136719 10.332031 0.191406 11.074219 0.191406 C 11.734375 0.191406 12.503906 -0.0820312 12.996094 -0.441406 C 12.613281 -0.300781 12.3125 -0.246094 12.0625 -0.246094 C 11.402344 -0.246094 11.292969 -0.769531 11.292969 -1.921875 L 11.292969 -10.113281 C 11.183594 -12.613281 8.683594 -13.960938 6.101562 -13.960938 C 3.875 -13.960938 1.59375 -12.96875 0.769531 -10.828125 C 0.714844 -10.691406 0.714844 -10.550781 0.714844 -10.414062 C 0.714844 -9.835938 1.179688 -9.34375 1.785156 -9.34375 C 2.363281 -9.34375 2.859375 -9.835938 2.859375 -10.414062 C 2.859375 -11.019531 2.363281 -11.488281 1.785156 -11.488281 C 1.621094 -11.488281 1.484375 -11.460938 1.320312 -11.375 C 2.007812 -12.75 4.066406 -13.710938 5.964844 -13.710938 C 7.804688 -13.710938 9.507812 -12.832031 9.699219 -10.523438 C 9.34375 -7.914062 4.066406 -7.886719 2.199219 -6.816406 C -1.097656 -4.945312 -0.46875 -0.441406 3.296875 0.21875 Z M 3.296875 -6.566406 C 5.109375 -8.023438 8.574219 -7.640625 9.726562 -9.894531 L 9.726562 -2.746094 C 9.480469 -1.457031 6.925781 -0.191406 5.386719 -0.0273438 C 1.457031 0.414062 0.851562 -4.589844 3.296875 -6.566406 Z M 3.296875 -6.566406 "/></g></g></g><g fill="#a77880" fill-opacity="1"><g transform="translate(284.316557, 240.971411)"><g/></g></g><g fill="#a77880" fill-opacity="1"><g transform="translate(163.810621, 213.352515)"><g><path d="M 47.609375 0 L 48.621094 0 L 48.621094 -87.261719 L 85.875 -87.261719 L 85.875 -88.398438 L 10.355469 -88.398438 L 10.355469 -87.261719 L 47.609375 -87.261719 Z M 47.609375 0 "/></g></g></g><g fill="#a77880" fill-opacity="1"><g transform="translate(119.65113, 257.567519)"><g><path d="M 5.5 -5.515625 L 5.5 0 L 4.9375 0 L 4.9375 -2.546875 L 1.484375 -2.546875 L 1.484375 0 L 0.890625 0 L 0.890625 -5.515625 L 1.484375 -5.515625 L 1.484375 -3.0625 L 4.9375 -3.0625 L 4.9375 -5.515625 Z M 5.5 -5.515625 "/></g></g></g><g fill="#a77880" fill-opacity="1"><g transform="translate(128.215699, 257.567519)"><g><path d="M 4.359375 -1.46875 L 1.28125 -1.46875 L 0.625 0 L 0.015625 0 L 2.53125 -5.515625 L 3.109375 -5.515625 L 5.625 0 L 5.015625 0 Z M 4.140625 -1.9375 L 2.8125 -4.90625 L 1.5 -1.9375 Z M 4.140625 -1.9375 "/></g></g></g><g fill="#a77880" fill-opacity="1"><g transform="translate(136.023875, 257.567519)"><g><path d="M 0.890625 -5.515625 L 1.484375 -5.515625 L 1.484375 0 L 0.890625 0 Z M 0.890625 -5.515625 "/></g></g></g><g fill="#a77880" fill-opacity="1"><g transform="translate(140.56222, 257.567519)"><g><path d="M 4.65625 0 L 3.40625 -1.765625 C 3.257812 -1.753906 3.113281 -1.75 2.96875 -1.75 L 1.484375 -1.75 L 1.484375 0 L 0.890625 0 L 0.890625 -5.515625 L 2.96875 -5.515625 C 3.664062 -5.515625 4.210938 -5.34375 4.609375 -5 C 5.015625 -4.664062 5.21875 -4.207031 5.21875 -3.625 C 5.21875 -3.195312 5.109375 -2.832031 4.890625 -2.53125 C 4.671875 -2.238281 4.359375 -2.023438 3.953125 -1.890625 L 5.296875 0 Z M 2.9375 -2.25 C 3.488281 -2.25 3.90625 -2.367188 4.1875 -2.609375 C 4.476562 -2.847656 4.625 -3.1875 4.625 -3.625 C 4.625 -4.070312 4.476562 -4.414062 4.1875 -4.65625 C 3.90625 -4.894531 3.488281 -5.015625 2.9375 -5.015625 L 1.484375 -5.015625 L 1.484375 -2.25 Z M 2.9375 -2.25 "/></g></g></g><g fill="#a77880" fill-opacity="1"><g transform="translate(148.417664, 257.567519)"><g><path d="M 0.890625 -5.515625 L 3.140625 -5.515625 C 3.722656 -5.515625 4.238281 -5.394531 4.6875 -5.15625 C 5.132812 -4.925781 5.476562 -4.601562 5.71875 -4.1875 C 5.96875 -3.769531 6.09375 -3.289062 6.09375 -2.75 C 6.09375 -2.21875 5.96875 -1.742188 5.71875 -1.328125 C 5.476562 -0.910156 5.132812 -0.582031 4.6875 -0.34375 C 4.238281 -0.113281 3.722656 0 3.140625 0 L 0.890625 0 Z M 3.109375 -0.5 C 3.585938 -0.5 4.007812 -0.59375 4.375 -0.78125 C 4.738281 -0.976562 5.019531 -1.242188 5.21875 -1.578125 C 5.414062 -1.921875 5.515625 -2.3125 5.515625 -2.75 C 5.515625 -3.195312 5.414062 -3.585938 5.21875 -3.921875 C 5.019531 -4.265625 4.738281 -4.53125 4.375 -4.71875 C 4.007812 -4.914062 3.585938 -5.015625 3.109375 -5.015625 L 1.484375 -5.015625 L 1.484375 -0.5 Z M 3.109375 -0.5 "/></g></g></g><g fill="#a77880" fill-opacity="1"><g transform="translate(157.084656, 257.567519)"><g><path d="M 4.65625 0 L 3.40625 -1.765625 C 3.257812 -1.753906 3.113281 -1.75 2.96875 -1.75 L 1.484375 -1.75 L 1.484375 0 L 0.890625 0 L 0.890625 -5.515625 L 2.96875 -5.515625 C 3.664062 -5.515625 4.210938 -5.34375 4.609375 -5 C 5.015625 -4.664062 5.21875 -4.207031 5.21875 -3.625 C 5.21875 -3.195312 5.109375 -2.832031 4.890625 -2.53125 C 4.671875 -2.238281 4.359375 -2.023438 3.953125 -1.890625 L 5.296875 0 Z M 2.9375 -2.25 C 3.488281 -2.25 3.90625 -2.367188 4.1875 -2.609375 C 4.476562 -2.847656 4.625 -3.1875 4.625 -3.625 C 4.625 -4.070312 4.476562 -4.414062 4.1875 -4.65625 C 3.90625 -4.894531 3.488281 -5.015625 2.9375 -5.015625 L 1.484375 -5.015625 L 1.484375 -2.25 Z M 2.9375 -2.25 "/></g></g></g><g fill="#a77880" fill-opacity="1"><g transform="translate(164.940101, 257.567519)"><g><path d="M 4.796875 -0.5 L 4.796875 0 L 0.890625 0 L 0.890625 -5.515625 L 4.671875 -5.515625 L 4.671875 -5.015625 L 1.484375 -5.015625 L 1.484375 -3.046875 L 4.328125 -3.046875 L 4.328125 -2.546875 L 1.484375 -2.546875 L 1.484375 -0.5 Z M 4.796875 -0.5 "/></g></g></g><g fill="#a77880" fill-opacity="1"><g transform="translate(172.370081, 257.567519)"><g><path d="M 2.421875 0.046875 C 2.003906 0.046875 1.609375 -0.015625 1.234375 -0.140625 C 0.859375 -0.273438 0.570312 -0.453125 0.375 -0.671875 L 0.59375 -1.125 C 0.789062 -0.914062 1.054688 -0.75 1.390625 -0.625 C 1.722656 -0.507812 2.066406 -0.453125 2.421875 -0.453125 C 2.910156 -0.453125 3.273438 -0.539062 3.515625 -0.71875 C 3.765625 -0.90625 3.890625 -1.140625 3.890625 -1.421875 C 3.890625 -1.640625 3.820312 -1.816406 3.6875 -1.953125 C 3.5625 -2.085938 3.398438 -2.1875 3.203125 -2.25 C 3.003906 -2.320312 2.734375 -2.398438 2.390625 -2.484375 C 1.972656 -2.585938 1.640625 -2.6875 1.390625 -2.78125 C 1.148438 -2.882812 0.941406 -3.035156 0.765625 -3.234375 C 0.585938 -3.429688 0.5 -3.703125 0.5 -4.046875 C 0.5 -4.328125 0.570312 -4.582031 0.71875 -4.8125 C 0.863281 -5.039062 1.085938 -5.222656 1.390625 -5.359375 C 1.703125 -5.492188 2.082031 -5.5625 2.53125 -5.5625 C 2.851562 -5.5625 3.160156 -5.515625 3.453125 -5.421875 C 3.753906 -5.335938 4.019531 -5.222656 4.25 -5.078125 L 4.046875 -4.609375 C 3.816406 -4.753906 3.566406 -4.863281 3.296875 -4.9375 C 3.035156 -5.019531 2.78125 -5.0625 2.53125 -5.0625 C 2.050781 -5.0625 1.6875 -4.96875 1.4375 -4.78125 C 1.195312 -4.59375 1.078125 -4.351562 1.078125 -4.0625 C 1.078125 -3.84375 1.144531 -3.664062 1.28125 -3.53125 C 1.414062 -3.394531 1.582031 -3.289062 1.78125 -3.21875 C 1.988281 -3.15625 2.257812 -3.082031 2.59375 -3 C 3 -2.894531 3.328125 -2.789062 3.578125 -2.6875 C 3.828125 -2.59375 4.035156 -2.445312 4.203125 -2.25 C 4.378906 -2.050781 4.46875 -1.785156 4.46875 -1.453125 C 4.46875 -1.179688 4.394531 -0.929688 4.25 -0.703125 C 4.101562 -0.472656 3.875 -0.289062 3.5625 -0.15625 C 3.25 -0.0195312 2.867188 0.046875 2.421875 0.046875 Z M 2.421875 0.046875 "/></g></g></g><g fill="#a77880" fill-opacity="1"><g transform="translate(179.374586, 257.567519)"><g><path d="M 2.421875 0.046875 C 2.003906 0.046875 1.609375 -0.015625 1.234375 -0.140625 C 0.859375 -0.273438 0.570312 -0.453125 0.375 -0.671875 L 0.59375 -1.125 C 0.789062 -0.914062 1.054688 -0.75 1.390625 -0.625 C 1.722656 -0.507812 2.066406 -0.453125 2.421875 -0.453125 C 2.910156 -0.453125 3.273438 -0.539062 3.515625 -0.71875 C 3.765625 -0.90625 3.890625 -1.140625 3.890625 -1.421875 C 3.890625 -1.640625 3.820312 -1.816406 3.6875 -1.953125 C 3.5625 -2.085938 3.398438 -2.1875 3.203125 -2.25 C 3.003906 -2.320312 2.734375 -2.398438 2.390625 -2.484375 C 1.972656 -2.585938 1.640625 -2.6875 1.390625 -2.78125 C 1.148438 -2.882812 0.941406 -3.035156 0.765625 -3.234375 C 0.585938 -3.429688 0.5 -3.703125 0.5 -4.046875 C 0.5 -4.328125 0.570312 -4.582031 0.71875 -4.8125 C 0.863281 -5.039062 1.085938 -5.222656 1.390625 -5.359375 C 1.703125 -5.492188 2.082031 -5.5625 2.53125 -5.5625 C 2.851562 -5.5625 3.160156 -5.515625 3.453125 -5.421875 C 3.753906 -5.335938 4.019531 -5.222656 4.25 -5.078125 L 4.046875 -4.609375 C 3.816406 -4.753906 3.566406 -4.863281 3.296875 -4.9375 C 3.035156 -5.019531 2.78125 -5.0625 2.53125 -5.0625 C 2.050781 -5.0625 1.6875 -4.96875 1.4375 -4.78125 C 1.195312 -4.59375 1.078125 -4.351562 1.078125 -4.0625 C 1.078125 -3.84375 1.144531 -3.664062 1.28125 -3.53125 C 1.414062 -3.394531 1.582031 -3.289062 1.78125 -3.21875 C 1.988281 -3.15625 2.257812 -3.082031 2.59375 -3 C 3 -2.894531 3.328125 -2.789062 3.578125 -2.6875 C 3.828125 -2.59375 4.035156 -2.445312 4.203125 -2.25 C 4.378906 -2.050781 4.46875 -1.785156 4.46875 -1.453125 C 4.46875 -1.179688 4.394531 -0.929688 4.25 -0.703125 C 4.101562 -0.472656 3.875 -0.289062 3.5625 -0.15625 C 3.25 -0.0195312 2.867188 0.046875 2.421875 0.046875 Z M 2.421875 0.046875 "/></g></g></g><g fill="#a77880" fill-opacity="1"><g transform="translate(186.379092, 257.567519)"><g><path d="M 0.890625 -5.515625 L 1.484375 -5.515625 L 1.484375 0 L 0.890625 0 Z M 0.890625 -5.515625 "/></g></g></g><g fill="#a77880" fill-opacity="1"><g transform="translate(190.917438, 257.567519)"><g><path d="M 5.5 -5.515625 L 5.5 0 L 5.03125 0 L 1.484375 -4.46875 L 1.484375 0 L 0.890625 0 L 0.890625 -5.515625 L 1.375 -5.515625 L 4.9375 -1.046875 L 4.9375 -5.515625 Z M 5.5 -5.515625 "/></g></g></g><g fill="#a77880" fill-opacity="1"><g transform="translate(199.482008, 257.567519)"><g><path d="M 4.78125 -2.75 L 5.34375 -2.75 L 5.34375 -0.65625 C 5.082031 -0.425781 4.773438 -0.25 4.421875 -0.125 C 4.066406 -0.0078125 3.695312 0.046875 3.3125 0.046875 C 2.757812 0.046875 2.265625 -0.0703125 1.828125 -0.3125 C 1.390625 -0.550781 1.039062 -0.882812 0.78125 -1.3125 C 0.53125 -1.738281 0.40625 -2.21875 0.40625 -2.75 C 0.40625 -3.28125 0.53125 -3.757812 0.78125 -4.1875 C 1.039062 -4.613281 1.390625 -4.945312 1.828125 -5.1875 C 2.265625 -5.4375 2.765625 -5.5625 3.328125 -5.5625 C 3.742188 -5.5625 4.128906 -5.492188 4.484375 -5.359375 C 4.835938 -5.222656 5.132812 -5.023438 5.375 -4.765625 L 5.015625 -4.390625 C 4.578125 -4.828125 4.019531 -5.046875 3.34375 -5.046875 C 2.894531 -5.046875 2.488281 -4.945312 2.125 -4.75 C 1.769531 -4.550781 1.488281 -4.273438 1.28125 -3.921875 C 1.082031 -3.578125 0.984375 -3.1875 0.984375 -2.75 C 0.984375 -2.320312 1.082031 -1.9375 1.28125 -1.59375 C 1.488281 -1.25 1.769531 -0.972656 2.125 -0.765625 C 2.488281 -0.566406 2.894531 -0.46875 3.34375 -0.46875 C 3.90625 -0.46875 4.382812 -0.609375 4.78125 -0.890625 Z M 4.78125 -2.75 "/></g></g></g><g fill="#a77880" fill-opacity="1"><g transform="translate(207.731405, 257.567519)"><g/></g></g><g fill="#a77880" fill-opacity="1"><g transform="translate(211.954587, 257.567519)"><g><path d="M 2.421875 0.046875 C 2.003906 0.046875 1.609375 -0.015625 1.234375 -0.140625 C 0.859375 -0.273438 0.570312 -0.453125 0.375 -0.671875 L 0.59375 -1.125 C 0.789062 -0.914062 1.054688 -0.75 1.390625 -0.625 C 1.722656 -0.507812 2.066406 -0.453125 2.421875 -0.453125 C 2.910156 -0.453125 3.273438 -0.539062 3.515625 -0.71875 C 3.765625 -0.90625 3.890625 -1.140625 3.890625 -1.421875 C 3.890625 -1.640625 3.820312 -1.816406 3.6875 -1.953125 C 3.5625 -2.085938 3.398438 -2.1875 3.203125 -2.25 C 3.003906 -2.320312 2.734375 -2.398438 2.390625 -2.484375 C 1.972656 -2.585938 1.640625 -2.6875 1.390625 -2.78125 C 1.148438 -2.882812 0.941406 -3.035156 0.765625 -3.234375 C 0.585938 -3.429688 0.5 -3.703125 0.5 -4.046875 C 0.5 -4.328125 0.570312 -4.582031 0.71875 -4.8125 C 0.863281 -5.039062 1.085938 -5.222656 1.390625 -5.359375 C 1.703125 -5.492188 2.082031 -5.5625 2.53125 -5.5625 C 2.851562 -5.5625 3.160156 -5.515625 3.453125 -5.421875 C 3.753906 -5.335938 4.019531 -5.222656 4.25 -5.078125 L 4.046875 -4.609375 C 3.816406 -4.753906 3.566406 -4.863281 3.296875 -4.9375 C 3.035156 -5.019531 2.78125 -5.0625 2.53125 -5.0625 C 2.050781 -5.0625 1.6875 -4.96875 1.4375 -4.78125 C 1.195312 -4.59375 1.078125 -4.351562 1.078125 -4.0625 C 1.078125 -3.84375 1.144531 -3.664062 1.28125 -3.53125 C 1.414062 -3.394531 1.582031 -3.289062 1.78125 -3.21875 C 1.988281 -3.15625 2.257812 -3.082031 2.59375 -3 C 3 -2.894531 3.328125 -2.789062 3.578125 -2.6875 C 3.828125 -2.59375 4.035156 -2.445312 4.203125 -2.25 C 4.378906 -2.050781 4.46875 -1.785156 4.46875 -1.453125 C 4.46875 -1.179688 4.394531 -0.929688 4.25 -0.703125 C 4.101562 -0.472656 3.875 -0.289062 3.5625 -0.15625 C 3.25 -0.0195312 2.867188 0.046875 2.421875 0.046875 Z M 2.421875 0.046875 "/></g></g></g><g fill="#a77880" fill-opacity="1"><g transform="translate(218.959087, 257.567519)"><g><path d="M 1.96875 -5.015625 L 0.03125 -5.015625 L 0.03125 -5.515625 L 4.484375 -5.515625 L 4.484375 -5.015625 L 2.546875 -5.015625 L 2.546875 0 L 1.96875 0 Z M 1.96875 -5.015625 "/></g></g></g><g fill="#a77880" fill-opacity="1"><g transform="translate(225.640544, 257.567519)"><g><path d="M 3.125 0.046875 C 2.40625 0.046875 1.84375 -0.15625 1.4375 -0.5625 C 1.039062 -0.976562 0.84375 -1.578125 0.84375 -2.359375 L 0.84375 -5.515625 L 1.4375 -5.515625 L 1.4375 -2.375 C 1.4375 -1.738281 1.578125 -1.257812 1.859375 -0.9375 C 2.148438 -0.625 2.570312 -0.46875 3.125 -0.46875 C 3.675781 -0.46875 4.09375 -0.625 4.375 -0.9375 C 4.664062 -1.257812 4.8125 -1.738281 4.8125 -2.375 L 4.8125 -5.515625 L 5.375 -5.515625 L 5.375 -2.359375 C 5.375 -1.578125 5.175781 -0.976562 4.78125 -0.5625 C 4.382812 -0.15625 3.832031 0.046875 3.125 0.046875 Z M 3.125 0.046875 "/></g></g></g><g fill="#a77880" fill-opacity="1"><g transform="translate(234.03965, 257.567519)"><g><path d="M 0.890625 -5.515625 L 3.140625 -5.515625 C 3.722656 -5.515625 4.238281 -5.394531 4.6875 -5.15625 C 5.132812 -4.925781 5.476562 -4.601562 5.71875 -4.1875 C 5.96875 -3.769531 6.09375 -3.289062 6.09375 -2.75 C 6.09375 -2.21875 5.96875 -1.742188 5.71875 -1.328125 C 5.476562 -0.910156 5.132812 -0.582031 4.6875 -0.34375 C 4.238281 -0.113281 3.722656 0 3.140625 0 L 0.890625 0 Z M 3.109375 -0.5 C 3.585938 -0.5 4.007812 -0.59375 4.375 -0.78125 C 4.738281 -0.976562 5.019531 -1.242188 5.21875 -1.578125 C 5.414062 -1.921875 5.515625 -2.3125 5.515625 -2.75 C 5.515625 -3.195312 5.414062 -3.585938 5.21875 -3.921875 C 5.019531 -4.265625 4.738281 -4.53125 4.375 -4.71875 C 4.007812 -4.914062 3.585938 -5.015625 3.109375 -5.015625 L 1.484375 -5.015625 L 1.484375 -0.5 Z M 3.109375 -0.5 "/></g></g></g><g fill="#a77880" fill-opacity="1"><g transform="translate(242.706637, 257.567519)"><g><path d="M 0.890625 -5.515625 L 1.484375 -5.515625 L 1.484375 0 L 0.890625 0 Z M 0.890625 -5.515625 "/></g></g></g><g fill="#a77880" fill-opacity="1"><g transform="translate(247.244978, 257.567519)"><g><path d="M 3.3125 0.046875 C 2.757812 0.046875 2.257812 -0.0703125 1.8125 -0.3125 C 1.375 -0.5625 1.03125 -0.894531 0.78125 -1.3125 C 0.53125 -1.738281 0.40625 -2.21875 0.40625 -2.75 C 0.40625 -3.28125 0.53125 -3.757812 0.78125 -4.1875 C 1.03125 -4.613281 1.375 -4.945312 1.8125 -5.1875 C 2.257812 -5.4375 2.757812 -5.5625 3.3125 -5.5625 C 3.851562 -5.5625 4.34375 -5.4375 4.78125 -5.1875 C 5.21875 -4.945312 5.5625 -4.613281 5.8125 -4.1875 C 6.070312 -3.757812 6.203125 -3.28125 6.203125 -2.75 C 6.203125 -2.21875 6.070312 -1.738281 5.8125 -1.3125 C 5.5625 -0.882812 5.21875 -0.550781 4.78125 -0.3125 C 4.34375 -0.0703125 3.851562 0.046875 3.3125 0.046875 Z M 3.3125 -0.46875 C 3.75 -0.46875 4.140625 -0.566406 4.484375 -0.765625 C 4.835938 -0.960938 5.113281 -1.234375 5.3125 -1.578125 C 5.507812 -1.929688 5.609375 -2.320312 5.609375 -2.75 C 5.609375 -3.1875 5.507812 -3.578125 5.3125 -3.921875 C 5.113281 -4.273438 4.835938 -4.550781 4.484375 -4.75 C 4.140625 -4.945312 3.75 -5.046875 3.3125 -5.046875 C 2.875 -5.046875 2.476562 -4.945312 2.125 -4.75 C 1.769531 -4.550781 1.488281 -4.273438 1.28125 -3.921875 C 1.082031 -3.578125 0.984375 -3.1875 0.984375 -2.75 C 0.984375 -2.320312 1.082031 -1.929688 1.28125 -1.578125 C 1.488281 -1.234375 1.769531 -0.960938 2.125 -0.765625 C 2.476562 -0.566406 2.875 -0.46875 3.3125 -0.46875 Z M 3.3125 -0.46875 "/></g></g></g><g fill="#a77880" fill-opacity="1"><g transform="translate(106.868445, 180.598524)"><g><path d="M 54.429688 0 C 65.921875 0 76.527344 -4.292969 84.863281 -11.996094 L 84.863281 0 L 85.875 0 L 85.875 -44.703125 L 51.398438 -44.703125 L 51.398438 -43.566406 L 84.863281 -43.566406 L 84.863281 -13.511719 C 76.65625 -5.429688 65.921875 -1.011719 54.429688 -1.011719 C 42.9375 -1.011719 32.078125 -5.429688 23.996094 -13.640625 C 7.070312 -30.433594 7.070312 -57.839844 23.996094 -74.632812 C 32.078125 -82.84375 42.9375 -87.261719 54.429688 -87.261719 C 66.046875 -87.261719 76.78125 -82.84375 84.988281 -74.632812 L 85.746094 -75.390625 C 77.414062 -83.726562 66.300781 -88.398438 54.429688 -88.398438 C 42.683594 -88.398438 31.570312 -83.726562 23.238281 -75.390625 C 5.933594 -58.21875 5.933594 -30.183594 23.238281 -12.882812 C 31.570312 -4.546875 42.683594 0 54.429688 0 Z M 54.429688 0 "/></g></g></g></svg>