<svg xmlns="http://www.w3.org/2000/svg" version="1.1" xmlns:xlink="http://www.w3.org/1999/xlink" xmlns:svgjs="http://svgjs.dev/svgjs" width="100%" height="100%" viewBox="0 0 1000 600"><rect width="1000" height="600" x="0" y="0" fill="#a97782"/><g><rect width="333.3333333333333" height="333.3333333333333" y="276.4889870905454" fill="#ffffff" transform="matrix(0.49160970893968725,0,0,0.49160970893968736,0,82.14038817129092)" x="254.26673889160156"/><path d="M364.07247426408003 368.15565774978285L364.07247426408003 368.15565774978285Q371.403739157381 368.15565774978285 378.32771155660964 368.59204256486026Q385.2225916348331 368.99933505893256 391.71017921898436 369.95938165210293Q398.22685912414073 370.89033592426813 404.2780618932145 372.57769054256755L404.2780618932145 372.57769054256755L402.4161533488841 386.39654302001964Q395.89947344372774 385.7565119579061 389.324608896561 385.34921946383383Q382.72065202838917 384.9128346487564 376.6403569383102 384.82555768574093Q370.56006184823127 384.70918840172027 365.1197978202659 384.70918840172027L365.1197978202659 384.70918840172027Q353.39559245518547 384.70918840172027 345.33701953675546 386.9202047981126Q337.24935429732034 389.10212887349974 332.4491213314685 395.3860702106149Q327.6197960446116 401.6700115477299 325.4378719692244 413.42330923381553Q323.22685557283205 425.147514598896 323.22685557283205 443.99933861024124L323.22685557283205 443.99933861024124Q323.22685557283205 465.3531022280305 326.1651799943534 478.0373541862813Q329.1035044158748 490.69251382352695 335.99838449409833 496.3655164195336Q342.922356893327 502.00942669453514 354.44291601137127 502.00942669453514L354.44291601137127 502.00942669453514Q362.3851196457806 502.00942669453514 368.9890765139525 499.71113333512733Q375.59303338212436 497.41283997571946 381.35331294114656 493.747207529069Q387.1135925001687 490.08157508241857 392.5538565281341 486.0959271047113L392.5538565281341 486.0959271047113L395.08488845558315 497.41283997571946Q391.30288672491207 501.805780447499 384.6989298567402 506.63510573435593Q378.0949729885683 511.43533870020775 369.30909204500927 514.7809556158014Q360.5232111014502 518.1556648524003 349.4099444774782 518.1556648524003L349.4099444774782 518.1556648524003Q333.29279864061823 518.1556648524003 323.11048628881133 510.0679996129651Q312.95726625800967 502.00942669453514 308.360679539194 485.36861907958223Q303.7350004993732 468.69871914362415 303.7350004993732 442.7483688070193L303.7350004993732 442.7483688070193Q303.7350004993732 414.03424797492397 309.49528005839534 397.8007328540433Q315.25555961741753 381.5672177331627 328.5798426377819 374.87598390197536Q341.87503333714113 368.15565774978285 364.07247426408003 368.15565774978285ZM390.0519169216901 431.83874843008334L408.06006362388564 431.83874843008334L408.06006362388564 515.420986677915L394.64850364050574 515.420986677915L391.71017921898436 494.0672230601258L390.0519169216901 489.87792883538236L390.0519169216901 431.83874843008334ZM472.99412410740814 370.89033592426813L491.43865562468113 370.89033592426813L491.43865562468113 515.420986677915L472.99412410740814 515.420986677915L472.99412410740814 370.89033592426813ZM426.5045951411586 370.89033592426813L538.1318308379668 370.89033592426813L538.1318308379668 387.24022032916935L426.5045951411586 387.24022032916935L426.5045951411586 370.89033592426813Z " fill="#a97782" transform="matrix(0.49160970893968725,0,0,0.49160970893968736,0,82.14038817129092)"/><path d="M716.6122341995764 368.15565850470705L716.6122341995764 368.15565850470705Q722.1624094922686 368.15565850470705 727.4042417131445 368.486026081653Q732.6240494288908 368.79436915346923 737.5355140728208 369.52117782275036Q742.4690032218805 370.2259619869017 747.0501002888645 371.50338328442615L747.0501002888645 371.50338328442615L745.6405319605617 381.96502322104834Q740.707042811502 381.4804841081942 735.7295046521829 381.172141036378Q730.7299419877339 380.84177345943203 726.1268204156202 380.77569994404286Q721.5236988435064 380.6876019235239 717.4051163842466 380.6876019235239L717.4051163842466 380.6876019235239Q708.5292408169651 380.6876019235239 702.4284528960297 382.36146431338346Q696.3056404699645 384.01330219811325 692.6715971235589 388.7705953061352Q689.0155292720235 393.527888414157 687.3636913872938 402.4257884865683Q685.6898289974342 411.3016640538499 685.6898289974342 425.57354337791554L685.6898289974342 425.57354337791554Q685.6898289974342 441.73953014313804 687.914304015537 451.34221437970075Q690.1387790336398 460.9228741111337 695.358586749386 465.2176526114312Q700.600418970262 469.49040660659904 709.3221230016354 469.49040660659904L709.3221230016354 469.49040660659904Q715.3348129020519 469.49040660659904 720.334375566501 467.7504707013503Q725.3339382309498 466.0105347961015 729.6947902466366 463.23544714975543Q734.0556422623233 460.46035950340934 738.174224721583 457.4430023006362L738.174224721583 457.4430023006362L740.0903566678695 466.0105347961015Q737.2271710010045 469.3362350706909 732.2276083365556 472.99230292222626Q727.2280456721066 476.62634626863183 720.576645122928 479.1591643585509Q713.9252445737492 481.71400695359966 705.511883614192 481.71400695359966L705.511883614192 481.71400695359966Q693.310307772321 481.71400695359966 685.6017309769152 475.59119452753447Q677.9151786866391 469.49040660659904 674.4353068761416 456.89238967239294Q670.9334105605144 444.27234823305713 670.9334105605144 424.6264896573371L670.9334105605144 424.6264896573371Q670.9334105605144 402.8883030942927 675.2942625762012 390.5986292319028Q679.6551145918879 378.308955369513 689.7423379413046 373.2433191896748Q699.8075367855917 368.15565850470705 716.6122341995764 368.15565850470705ZM736.2801172804261 416.367300233688L749.9132859557295 416.367300233688L749.9132859557295 479.643703471405L739.7599890909236 479.643703471405L737.5355140728208 463.4777167061825L736.2801172804261 460.3061879675012L736.2801172804261 416.367300233688ZM809.5336213419112 400.50965654028175L809.5336213419112 400.50965654028175Q818.1011538373765 400.50965654028175 824.0477702224039 402.8222295789035Q829.9943866074312 405.1127781123955 833.0117438102044 410.5087818691796Q836.0291010129775 415.90478562596365 836.0291010129775 425.2431758009696L836.0291010129775 425.2431758009696L836.0291010129775 479.643703471405L825.3912650353175 479.643703471405L823.3429860582524 462.8390060574203L822.3739078325443 461.0990701521715L822.3739078325443 425.2431758009696Q822.3739078325443 418.10723613893674 819.1363055784739 415.02380542077447Q815.8766788192737 411.94037470261213 806.6924601801759 411.94037470261213L806.6924601801759 411.94037470261213Q800.6577457746296 411.94037470261213 791.539600650921 412.55706084624455Q782.4214555272124 413.19577149500674 773.5455799599308 413.9886536796771L773.5455799599308 413.9886536796771L772.2681586624064 404.011552855909Q777.6641624191906 403.0424746302008 784.095317917072 402.2495924455305Q790.5044489098236 401.4567102608602 797.1778739641321 400.9941956531358Q803.8292745133109 400.50965654028175 809.5336213419112 400.50965654028175ZM790.1961058380074 432.0707723911862L829.686043535615 432.0707723911862L829.5098474945771 442.22406925599216L792.5747523920184 442.3782407919002Q787.0245770993262 442.5324123278084 784.8001020812234 445.30749997415444Q782.5756270631205 448.0825876205006 782.5756270631205 452.9940522644306L782.5756270631205 452.9940522644306L782.5756270631205 457.9275414134903Q782.5756270631205 463.94023131390685 785.4388127299856 466.71531896025294Q788.2799738917208 469.49040660659904 794.6230313690834 469.49040660659904L794.6230313690834 469.49040660659904Q799.071981405289 469.49040660659904 804.7102547185001 467.8385687218692Q810.3265035265815 466.16470633200964 816.0308503551818 462.6848345215122Q821.7572216889118 459.18293820588497 826.5145147969337 453.7869344491009L826.5145147969337 453.7869344491009L826.5145147969337 463.78605977799873Q824.7525543865553 466.0105347961015 821.5149521324848 468.93979397835574Q818.2553253732846 471.86905316060995 813.7403018216897 474.64414080695605Q809.2252782700949 477.41922845330214 803.741176492792 479.24726237906987Q798.2790992206186 481.0752963048375 791.9360417432562 481.0752963048375L791.9360417432562 481.0752963048375Q785.1084451530395 481.0752963048375 779.8886374372934 478.6085517303076Q774.6468052164174 476.1638316609075 771.7175460341632 471.3184405323667Q768.788286851909 466.4730494038259 768.788286851909 459.5133057828309L768.788286851909 459.5133057828309L768.788286851909 451.0999448232737Q768.788286851909 442.06989772008404 774.4045356599903 437.0703350556351Q780.0428089732014 432.0707723911862 790.1961058380074 432.0707723911862L790.1961058380074 432.0707723911862ZM860.1239096249031 402.4257884865683L870.5855495615253 402.4257884865683L872.325485466774 417.1601824183583L873.6029067642984 419.5388289723693L873.6029067642984 479.643703471405L860.1239096249031 479.643703471405L860.1239096249031 402.4257884865683ZM905.0098510792948 400.50965654028175L908.4897228897922 400.50965654028175L906.9039585204516 413.19577149500674L902.4550084842459 413.19577149500674Q895.6494363991591 413.19577149500674 888.8218398089425 415.9708591413529Q882.0162677238557 418.745946787699 872.171313930866 423.8336074726668L872.171313930866 423.8336074726668L871.0700886743793 415.4202465131096Q879.6376211698447 408.4384783869849 888.2712271806993 404.47406746363333Q896.9048331915537 400.50965654028175 905.0098510792948 400.50965654028175L905.0098510792948 400.50965654028175ZM954.3227180647623 400.50965654028175L954.3227180647623 400.50965654028175Q967.6475436682496 400.50965654028175 975.6424390303417 404.47406746363333Q983.659358897564 408.4384783869849 987.1392307080613 417.4024519747854Q990.6411270236887 426.36642556258585 990.6411270236887 441.10081949437586L990.6411270236887 441.10081949437586Q990.6411270236887 455.8572379312956 987.1392307080613 464.8212115190961Q983.659358897564 473.78518510689656 975.6424390303417 477.74959603024814Q967.6475436682496 481.71400695359966 954.3227180647623 481.71400695359966L954.3227180647623 481.71400695359966Q941.1520639971832 481.71400695359966 933.1571686350909 477.74959603024814Q925.1402487678688 473.78518510689656 921.5722789368524 464.8212115190961Q918.004309105836 455.8572379312956 918.004309105836 441.10081949437586L918.004309105836 441.10081949437586Q918.004309105836 426.36642556258585 921.5722789368524 417.4024519747854Q925.1402487678688 408.4384783869849 933.1571686350909 404.47406746363333Q941.1520639971832 400.50965654028175 954.3227180647623 400.50965654028175ZM954.3227180647623 411.94037470261213L954.3227180647623 411.94037470261213Q945.909357105205 411.94037470261213 941.085990481794 414.53926630792034Q936.2405993532533 417.1601824183583 934.1702958710586 423.50323989572087Q932.1220168939935 429.84629737308336 932.1220168939935 441.10081949437586L932.1220168939935 441.10081949437586Q932.1220168939935 452.3773661207981 934.1702958710586 458.7204235981606Q936.2405993532533 465.0634810755231 941.085990481794 467.66237268083137Q945.909357105205 470.28328879126934 954.3227180647623 470.28328879126934L954.3227180647623 470.28328879126934Q962.7140545191897 470.28328879126934 967.6475436682496 467.66237268083137Q972.5590083121795 465.0634810755231 974.6072872892445 458.7204235981606Q976.6775907714392 452.3773661207981 976.6775907714392 441.10081949437586L976.6775907714392 441.10081949437586Q976.6775907714392 429.84629737308336 974.6072872892445 423.50323989572087Q972.5590083121795 417.1601824183583 967.6475436682496 414.53926630792034Q962.7140545191897 411.94037470261213 954.3227180647623 411.94037470261213ZM1017.4229252614415 379.58637666703737L1030.9019224008366 379.58637666703737L1030.9019224008366 458.39005602121466Q1030.9019224008366 463.94023131390685 1033.2805689548477 466.31887786791776Q1035.6592155088588 468.69752442192873 1041.3855868425885 468.69752442192873L1041.3855868425885 468.69752442192873L1053.1026235716054 468.69752442192873L1054.688387940946 479.0049928226428Q1052.155569851027 479.643703471405 1048.8298695764379 480.12824258425906Q1045.5041693018484 480.5907571919834 1042.332640563167 480.8330267484105Q1039.161111824486 481.0752963048375 1037.244979878199 481.0752963048375L1037.244979878199 481.0752963048375Q1027.5762221262476 481.0752963048375 1022.5105859464092 475.6792925480534Q1017.4229252614415 470.28328879126934 1017.4229252614415 460.1299919264634L1017.4229252614415 460.1299919264634L1017.4229252614415 379.58637666703737ZM1018.7003465589659 402.4257884865683L1055.4812701256164 402.4257884865683L1055.4812701256164 413.0415999590987L1003.4814135143217 413.0415999590987L1003.4814135143217 403.21867067123867L1018.7003465589659 402.4257884865683ZM1108.4502049626194 400.50965654028175L1108.4502049626194 400.50965654028175Q1117.0177374580846 400.50965654028175 1122.964353843112 402.8222295789035Q1128.9109702281394 405.1127781123955 1131.9283274309125 410.5087818691796Q1134.9456846336857 415.90478562596365 1134.9456846336857 425.2431758009696L1134.9456846336857 425.2431758009696L1134.9456846336857 479.643703471405L1124.3078486560257 479.643703471405L1122.2595696789606 462.8390060574203L1121.2904914532523 461.0990701521715L1121.2904914532523 425.2431758009696Q1121.2904914532523 418.10723613893674 1118.0528891991821 415.02380542077447Q1114.7932624399818 411.94037470261213 1105.6090438008841 411.94037470261213L1105.6090438008841 411.94037470261213Q1099.5743293953378 411.94037470261213 1090.4561842716294 412.55706084624455Q1081.3380391479204 413.19577149500674 1072.4621635806388 413.9886536796771L1072.4621635806388 413.9886536796771L1071.1847422831147 404.011552855909Q1076.5807460398987 403.0424746302008 1083.01190153778 402.2495924455305Q1089.4210325305316 401.4567102608602 1096.0944575848403 400.9941956531358Q1102.745858134019 400.50965654028175 1108.4502049626194 400.50965654028175ZM1089.1126894587155 432.0707723911862L1128.6026271563233 432.0707723911862L1128.4264311152851 442.22406925599216L1091.4913360127266 442.3782407919002Q1085.9411607200343 442.5324123278084 1083.7166857019315 445.30749997415444Q1081.4922106838285 448.0825876205006 1081.4922106838285 452.9940522644306L1081.4922106838285 452.9940522644306L1081.4922106838285 457.9275414134903Q1081.4922106838285 463.94023131390685 1084.3553963506938 466.71531896025294Q1087.196557512429 469.49040660659904 1093.5396149897915 469.49040660659904L1093.5396149897915 469.49040660659904Q1097.988565025997 469.49040660659904 1103.6268383392082 467.8385687218692Q1109.2430871472898 466.16470633200964 1114.94743397589 462.6848345215122Q1120.67380530962 459.18293820588497 1125.4310984176418 453.7869344491009L1125.4310984176418 453.7869344491009L1125.4310984176418 463.78605977799873Q1123.6691380072634 466.0105347961015 1120.431535753193 468.93979397835574Q1117.171908993993 471.86905316060995 1112.656885442398 474.64414080695605Q1108.141861890803 477.41922845330214 1102.6577601135 479.24726237906987Q1097.1956828413267 481.0752963048375 1090.8526253639643 481.0752963048375L1090.8526253639643 481.0752963048375Q1084.0250287737476 481.0752963048375 1078.8052210580015 478.6085517303076Q1073.5633888371256 476.1638316609075 1070.6341296548712 471.3184405323667Q1067.7048704726171 466.4730494038259 1067.7048704726171 459.5133057828309L1067.7048704726171 459.5133057828309L1067.7048704726171 451.0999448232737Q1067.7048704726171 442.06989772008404 1073.3211192806984 437.0703350556351Q1078.9593925939098 432.0707723911862 1089.1126894587155 432.0707723911862L1089.1126894587155 432.0707723911862ZM1167.9163688128929 370.2259619869017L1181.8799050651423 370.2259619869017L1181.8799050651423 479.643703471405L1167.9163688128929 479.643703471405L1167.9163688128929 370.2259619869017ZM1132.7212096155827 370.2259619869017L1217.2292357983604 370.2259619869017L1217.2292357983604 382.6037338698105L1132.7212096155827 382.6037338698105L1132.7212096155827 370.2259619869017ZM1218.6608286317928 402.4257884865683L1229.1224685684151 402.4257884865683L1230.8844289787935 417.1601824183583L1232.139825771188 419.5388289723693L1232.139825771188 479.643703471405L1218.6608286317928 479.643703471405L1218.6608286317928 402.4257884865683ZM1263.5467700861846 400.50965654028175L1267.0266418966821 400.50965654028175L1265.4408775273414 413.19577149500674L1261.0139519962654 413.19577149500674Q1254.1863554060487 413.19577149500674 1247.3587588158323 415.9708591413529Q1240.5531867307454 418.745946787699 1230.7082329377558 423.8336074726668L1230.7082329377558 423.8336074726668L1229.6070076812691 415.4202465131096Q1238.1745401767344 408.4384783869849 1246.808146187589 404.47406746363333Q1255.4637767035733 400.50965654028175 1263.5467700861846 400.50965654028175L1263.5467700861846 400.50965654028175ZM1318.7181554361605 400.50965654028175L1318.7181554361605 400.50965654028175Q1327.285687931626 400.50965654028175 1333.2323043166534 402.8222295789035Q1339.1789207016805 405.1127781123955 1342.1962779044538 410.5087818691796Q1345.2136351072268 415.90478562596365 1345.2136351072268 425.2431758009696L1345.2136351072268 425.2431758009696L1345.2136351072268 479.643703471405L1334.5757991295668 479.643703471405L1332.527520152502 462.8390060574203L1331.5804664319235 461.0990701521715L1331.5804664319235 425.2431758009696Q1331.5804664319235 418.10723613893674 1328.3208396727232 415.02380542077447Q1325.061212913523 411.94037470261213 1315.8769942744252 411.94037470261213L1315.8769942744252 411.94037470261213Q1309.842279868879 411.94037470261213 1300.7241347451704 412.55706084624455Q1291.6059896214615 413.19577149500674 1282.7301140541804 413.9886536796771L1282.7301140541804 413.9886536796771L1281.4526927566558 404.011552855909Q1286.8486965134398 403.0424746302008 1293.2798520113215 402.2495924455305Q1299.6889830040732 401.4567102608602 1306.3624080583818 400.9941956531358Q1313.0138086075603 400.50965654028175 1318.7181554361605 400.50965654028175ZM1299.3806399322566 432.0707723911862L1338.8705776298643 432.0707723911862L1338.7164060939563 442.22406925599216L1301.7592864862677 442.3782407919002Q1296.2091111935756 442.5324123278084 1293.9846361754726 445.30749997415444Q1291.76016115737 448.0825876205006 1291.76016115737 452.9940522644306L1291.76016115737 452.9940522644306L1291.76016115737 457.9275414134903Q1291.76016115737 463.94023131390685 1294.6233468242349 466.71531896025294Q1297.4865324910998 469.49040660659904 1303.8295899684626 469.49040660659904L1303.8295899684626 469.49040660659904Q1308.2565154995382 469.49040660659904 1313.8947888127495 467.8385687218692Q1319.5110376208308 466.16470633200964 1325.237408954561 462.6848345215122Q1330.9417557831612 459.18293820588497 1335.6990488911833 453.7869344491009L1335.6990488911833 453.7869344491009L1335.6990488911833 463.78605977799873Q1333.9591129859346 466.0105347961015 1330.6994862267343 468.93979397835574Q1327.439859467534 471.86905316060995 1322.9248359159392 474.64414080695605Q1318.4098123643444 477.41922845330214 1312.9477350921711 479.24726237906987Q1307.4636333148683 481.0752963048375 1301.1205758375054 481.0752963048375L1301.1205758375054 481.0752963048375Q1294.3150037524188 481.0752963048375 1289.0731715315428 478.6085517303076Q1283.8313393106669 476.1638316609075 1280.9020801284128 471.3184405323667Q1277.9728209461582 466.4730494038259 1277.9728209461582 459.5133057828309L1277.9728209461582 459.5133057828309L1277.9728209461582 451.0999448232737Q1277.9728209461582 442.06989772008404 1283.6110942593696 437.0703350556351Q1289.2273430674509 432.0707723911862 1299.3806399322566 432.0707723911862L1299.3806399322566 432.0707723911862ZM1416.242664150609 400.50965654028175L1416.242664150609 400.50965654028175Q1437.1879685289832 400.50965654028175 1437.1879685289832 421.7633039904721L1437.1879685289832 421.7633039904721L1437.1879685289832 479.643703471405L1423.708971389588 479.643703471405L1423.708971389588 425.57354337791554Q1423.708971389588 417.79889306712056 1421.1761532996688 414.86963388486635Q1418.62131070462 411.94037470261213 1412.6086208042034 411.94037470261213L1412.6086208042034 411.94037470261213Q1405.4726811421706 411.94037470261213 1398.3367414801378 415.4202465131096Q1391.200801818105 418.9001183236071 1381.3558480251154 424.93483272915336L1381.3558480251154 424.93483272915336L1380.7391618814827 415.26607497720147Q1389.7692089846723 408.2843068510768 1398.645084551954 404.40799394824415Q1407.5209601192355 400.50965654028175 1416.242664150609 400.50965654028175ZM1369.3084437191524 402.4257884865683L1380.7391618814827 402.4257884865683L1381.8403871379696 417.1601824183583L1382.787440858548 419.5388289723693L1382.787440858548 479.643703471405L1369.3084437191524 479.643703471405L1369.3084437191524 402.4257884865683ZM1494.429657361154 400.50965654028175L1494.429657361154 400.50965654028175Q1497.9095291716512 400.50965654028175 1502.2043076719488 400.8400241172277Q1506.4770616671167 401.14836718904394 1510.9920852187115 401.94124937371424Q1515.5291332754364 402.73413155838455 1519.31734815775 404.1657243918171L1519.31734815775 404.1657243918171L1517.5774122525013 412.88742842319056Q1512.357604536755 412.40288931033643 1506.5651596876355 412.16061975390943Q1500.7727148385165 411.94037470261213 1496.6541323792567 411.94037470261213L1496.6541323792567 411.94037470261213Q1487.4478892350294 411.94037470261213 1482.0518854782454 414.47319279253117Q1476.677906226591 417.0060108824502 1474.2992596725799 423.34906835981275Q1471.9206131185688 429.69212583717524 1471.9206131185688 440.94664795846774L1471.9206131185688 440.94664795846774Q1471.9206131185688 452.20117007976023 1474.2992596725799 458.63232557764167Q1476.677906226591 465.0634810755231 1482.0518854782454 467.5962991654422Q1487.4478892350294 470.1291172553612 1496.6541323792567 470.1291172553612L1496.6541323792567 470.1291172553612Q1499.0327789332678 470.1291172553612 1502.843018320711 469.9749457194531Q1506.6312332030247 469.820774183545 1510.9920852187115 469.49040660659904Q1515.3529372343983 469.1820635347828 1519.31734815775 468.5433528860206L1519.31734815775 468.5433528860206L1520.7489409911823 477.5733999892103Q1514.890422626674 479.643703471405 1507.9967525210682 480.5907571919834Q1501.0810579103327 481.53781091256184 1494.275485825246 481.53781091256184L1494.275485825246 481.53781091256184Q1480.9506602217584 481.53781091256184 1472.8676668391472 477.5733999892103Q1464.784673456536 473.60898906585874 1461.2167036255196 464.73311349857715Q1457.6487337945032 455.8572379312956 1457.6487337945032 440.94664795846774L1457.6487337945032 440.94664795846774Q1457.6487337945032 426.0360579856399 1461.2827771409088 417.1601824183583Q1464.938844992444 408.2843068510768 1473.0218383750553 404.40799394824415Q1481.104831757667 400.50965654028175 1494.429657361154 400.50965654028175ZM1484.9150711451102 494.70846498014095L1486.3466639785424 488.36540750277845Q1492.5355499199973 487.72669685401627 1496.4118628228298 488.4535055232974Q1500.2881757256623 489.15828968744876 1502.2043076719488 491.53693624145967Q1504.098415113106 493.91558279547064 1503.9442435771975 498.6728759034925L1503.9442435771975 498.6728759034925Q1503.7900720412895 505.32427645267126 1500.2881757256623 510.0154960453039Q1496.8083039151647 514.6846911328068 1490.9497855506565 516.7549946150016Q1485.0692426810183 518.8032735920666 1477.4707884112613 517.8562198714882L1477.4707884112613 517.8562198714882L1479.5190673883262 510.7202802094553Q1486.0162964015967 510.87445174536344 1490.0688053454674 507.7910210272011Q1494.1213142893375 504.7075903090388 1494.275485825246 499.77410115997907L1494.275485825246 499.77410115997907Q1494.429657361154 496.9329399982438 1492.5355499199973 495.89778825714643Q1490.6194179737104 494.86263651604906 1484.9150711451102 494.70846498014095L1484.9150711451102 494.70846498014095ZM1575.457811733434 400.50965654028175L1575.457811733434 400.50965654028175Q1584.0253442288995 400.50965654028175 1589.971960613927 402.8222295789035Q1595.918576998954 405.1127781123955 1598.9359342017274 410.5087818691796Q1601.9532914045003 415.90478562596365 1601.9532914045003 425.2431758009696L1601.9532914045003 425.2431758009696L1601.9532914045003 479.643703471405L1591.3154554268403 479.643703471405L1589.2671764497754 462.8390060574203L1588.298098224067 461.0990701521715L1588.298098224067 425.2431758009696Q1588.298098224067 418.10723613893674 1585.0604959699967 415.02380542077447Q1581.8008692107965 411.94037470261213 1572.6166505716988 411.94037470261213L1572.6166505716988 411.94037470261213Q1566.5819361661524 411.94037470261213 1557.463791042444 412.55706084624455Q1548.345645918735 413.19577149500674 1539.4697703514535 413.9886536796771L1539.4697703514535 413.9886536796771L1538.1923490539293 404.011552855909Q1543.5883528107133 403.0424746302008 1550.019508308595 402.2495924455305Q1556.4286393013463 401.4567102608602 1563.1020643556549 400.9941956531358Q1569.753464904834 400.50965654028175 1575.457811733434 400.50965654028175ZM1556.1202962295301 432.0707723911862L1595.6102339271379 432.0707723911862L1595.4340378861002 442.22406925599216L1558.4989427835412 442.3782407919002Q1552.9487674908491 442.5324123278084 1550.7242924727461 445.30749997415444Q1548.4998174546436 448.0825876205006 1548.4998174546436 452.9940522644306L1548.4998174546436 452.9940522644306L1548.4998174546436 457.9275414134903Q1548.4998174546436 463.94023131390685 1551.3630031215084 466.71531896025294Q1554.2041642832437 469.49040660659904 1560.5472217606061 469.49040660659904L1560.5472217606061 469.49040660659904Q1564.9961717968117 469.49040660659904 1570.634445110023 467.8385687218692Q1576.2506939181044 466.16470633200964 1581.9550407467045 462.6848345215122Q1587.6814120804347 459.18293820588497 1592.4387051884564 453.7869344491009L1592.4387051884564 453.7869344491009L1592.4387051884564 463.78605977799873Q1590.676744778078 466.0105347961015 1587.4391425240074 468.93979397835574Q1584.1795157648075 471.86905316060995 1579.6644922132127 474.64414080695605Q1575.149468661618 477.41922845330214 1569.6653668843146 479.24726237906987Q1564.2032896121414 481.0752963048375 1557.860232134779 481.0752963048375L1557.860232134779 481.0752963048375Q1551.0326355445623 481.0752963048375 1545.812827828816 478.6085517303076Q1540.5709956079404 476.1638316609075 1537.6417364256858 471.3184405323667Q1534.7124772434317 466.4730494038259 1534.7124772434317 459.5133057828309L1534.7124772434317 459.5133057828309L1534.7124772434317 451.0999448232737Q1534.7124772434317 442.06989772008404 1540.328726051513 437.0703350556351Q1545.9669993647244 432.0707723911862 1556.1202962295301 432.0707723911862L1556.1202962295301 432.0707723911862ZM1651.7286729976922 400.50965654028175L1651.7286729976922 400.50965654028175Q1659.3491517725793 400.50965654028175 1666.7934345064282 402.49186200195754Q1674.2597417454072 404.47406746363333 1681.0653138304938 408.59264992289303L1681.0653138304938 408.59264992289303L1680.2724316458234 417.0060108824502Q1672.8281489119745 414.7815358643474 1667.123802083374 413.52613907195274Q1661.4194552547738 412.2487177744283 1654.9002017363737 412.2487177744283L1654.9002017363737 412.2487177744283Q1648.2488011871947 412.2487177744283 1644.196292243324 414.53926630792034Q1640.1658078045834 416.8518393465421 1638.249675858297 423.0407252879965Q1636.3555684171401 429.2075867243212 1636.3555684171401 440.6383048866515L1636.3555684171401 440.6383048866515Q1636.3555684171401 452.04699854385217 1638.1836023429078 458.39005602121466Q1640.0116362686754 464.73311349857715 1643.9760471920267 467.2659315884962Q1647.9404581153785 469.820774183545 1654.1073195517033 469.820774183545L1654.1073195517033 469.820774183545Q1658.710441123817 469.820774183545 1662.4325824907414 468.6314509065395Q1666.1767483627955 467.44212762953407 1670.3614043374446 464.73311349857715Q1674.5680848172233 462.04612387274994 1680.2724316458234 457.9275414134903L1680.2724316458234 457.9275414134903L1681.549852943348 467.44212762953407Q1675.2067954659856 473.3006459940425 1667.123802083374 477.41922845330214Q1659.0408087007631 481.53781091256184 1649.6803940206273 481.53781091256184L1649.6803940206273 481.53781091256184Q1635.0781471196156 481.53781091256184 1628.823187662772 471.23034251184777Q1622.5682282059283 460.9228741111337 1622.5682282059283 440.7924764225596L1622.5682282059283 440.7924764225596Q1622.5682282059283 425.72771491382366 1625.7397569446098 416.9179128619313Q1628.9112856832912 408.1301353151687 1635.4085146965617 404.3198959277252Q1641.9057437098322 400.50965654028175 1651.7286729976922 400.50965654028175ZM1678.5324957405746 368.6401976175611L1692.0114928799703 368.6401976175611L1692.0114928799703 479.643703471405L1681.549852943348 479.643703471405L1679.9640885740073 466.16470633200964L1678.5324957405746 465.0634810755231L1678.5324957405746 412.0945462385202L1679.479549461153 409.7158996845093Q1678.8628633175208 405.26694964830364 1678.6866672764827 401.14836718904394Q1678.5324957405746 397.0297847297843 1678.5324957405746 392.42666315767053L1678.5324957405746 392.42666315767053L1678.5324957405746 368.6401976175611ZM1753.3937886765302 400.50965654028175L1753.3937886765302 400.50965654028175Q1761.9392966668656 400.50965654028175 1767.885913051893 402.8222295789035Q1773.8325294369206 405.1127781123955 1776.8498866396935 410.5087818691796Q1779.867243842467 415.90478562596365 1779.867243842467 425.2431758009696L1779.867243842467 425.2431758009696L1779.867243842467 479.643703471405L1769.2514323699365 479.643703471405L1767.181128887742 462.8390060574203L1766.2340751671632 461.0990701521715L1766.2340751671632 425.2431758009696Q1766.2340751671632 418.10723613893674 1762.9744484079633 415.02380542077447Q1759.7368461538927 411.94037470261213 1750.530603009665 411.94037470261213L1750.530603009665 411.94037470261213Q1744.495888604119 411.94037470261213 1735.3777434804106 412.55706084624455Q1726.2595983567016 413.19577149500674 1717.38372278942 413.9886536796771L1717.38372278942 413.9886536796771L1716.1283259970255 404.011552855909Q1721.50230524868 403.0424746302008 1727.9334607465612 402.2495924455305Q1734.364616244443 401.4567102608602 1741.0160167936215 400.9941956531358Q1747.6674173428 400.50965654028175 1753.3937886765302 400.50965654028175ZM1734.0342486674967 432.0707723911862L1773.524186365104 432.0707723911862L1773.370014829196 442.22406925599216L1736.4128952215078 442.3782407919002Q1730.8627199288153 442.5324123278084 1728.6382449107127 445.30749997415444Q1726.4357943977393 448.0825876205006 1726.4357943977393 452.9940522644306L1726.4357943977393 452.9940522644306L1726.4357943977393 457.9275414134903Q1726.4357943977393 463.94023131390685 1729.276955559475 466.71531896025294Q1732.14014122634 469.49040660659904 1738.4831987037023 469.49040660659904L1738.4831987037023 469.49040660659904Q1742.9101242347783 469.49040660659904 1748.5483975479897 467.8385687218692Q1754.1866708612006 466.16470633200964 1759.8910176898007 462.6848345215122Q1765.5953645184013 459.18293820588497 1770.352657626423 453.7869344491009L1770.352657626423 453.7869344491009L1770.352657626423 463.78605977799873Q1768.6127217211742 466.0105347961015 1765.353094961974 468.93979397835574Q1762.1154927079037 471.86905316060995 1757.5784446511789 474.64414080695605Q1753.0634210995845 477.41922845330214 1747.6013438274108 479.24726237906987Q1742.117242050108 481.0752963048375 1735.7741845727455 481.0752963048375L1735.7741845727455 481.0752963048375Q1728.968612487659 481.0752963048375 1723.726780266783 478.6085517303076Q1718.5069725510366 476.1638316609075 1715.5556888636524 471.3184405323667Q1712.6264296813983 466.4730494038259 1712.6264296813983 459.5133057828309L1712.6264296813983 459.5133057828309L1712.6264296813983 451.0999448232737Q1712.6264296813983 442.06989772008404 1718.2647029946093 437.0703350556351Q1723.8809518026906 432.0707723911862 1734.0342486674967 432.0707723911862L1734.0342486674967 432.0707723911862Z " fill="#ffffff" transform="matrix(0.49160970893968725,0,0,0.49160970893968736,0,82.14038817129092)"/></g></svg>